<svg id="Calque_1" data-name="Calque 1" xmlns="http://www.w3.org/2000/svg" viewBox="0 0 193.49 202.59"><defs><style>.cls-1{fill:#fccb00;}.cls-2{fill:#1fb4b1;}</style></defs><title>Plan de travail 1</title><path class="cls-1" d="M151.52,55l19,5,6,17-6,10v15l6,9-6,16-15,12-19-17-7,17-14,12-18,21-14,13-17-36-10-17V111l-14,5-18-5-4-24,11-15,4-6-3-16s6-15,8-14,13,0,13,0l8,5,2,7,15-7,17-8h20l8.8,7.63L140.52,60Z"/><path d="M181.45,76.67c2.27-13-5.81-25.31-18-27.45-6.75-1.18-12.54,0-17.23,3.46a16.9,16.9,0,0,0-1.54,1.37A43.86,43.86,0,0,0,69.57,41.11a20.11,20.11,0,0,0-1.08-2c-3.25-4.9-8.36-8-15.18-9.18C41,27.81,29.16,36.64,26.88,49.64a24.71,24.71,0,0,0,2.77,16.41c-5.84,4.73-13.94,11.71-15.77,22.21-2.1,12,4.11,30.87,20.79,33.79,6,1,11.24-.83,15.52-3.75l-.14.79a43.56,43.56,0,0,0,13.09,39.25l14.79,30.55a5.49,5.49,0,0,0,8.78,1.54L111,166.71a43.53,43.53,0,0,0,25.63-32.48l.09-.48a20.26,20.26,0,0,0,13,8.41c16.78,2.94,28.69-12.49,30.84-24.75,1.83-10.5-3.37-19.81-7.21-26.23A24.82,24.82,0,0,0,181.45,76.67ZM115.31,151l-50.9-8.9a32.26,32.26,0,0,1-4-15.57l63.87,11.18A32.28,32.28,0,0,1,115.31,151Zm-53.5-35.38,2.52-14.43,64.94,11.36L126.74,127Zm47.28-79a33,33,0,0,1,26.79,38.15l-4.72,27L66.23,90.39,71,63.4A33,33,0,0,1,109.09,36.61ZM60.8,55.33l-7.52,43c-1.56,2.78-8.56,14.28-16.72,12.85-10-1.75-13-14.45-11.86-21.06,1.22-7,7.61-12.14,12.74-16.28,1.22-1,2.35-1.9,3.34-2.76a5.51,5.51,0,0,0,.31-8,13.3,13.3,0,0,1-3.38-11.62c1.23-7,7.38-11.85,13.7-10.75,3.77.66,6.35,2.1,7.9,4.39C62.06,49.26,60.86,55,60.8,55.33ZM84.5,177.24,73.68,154.89l28.58,5Zm85.19-61.72c-1.15,6.61-8.2,17.56-18.11,15.82-8.1-1.42-10.68-14.56-11.18-17.73L148,70.29c0-.06.88-5.89,4.78-8.79,2.2-1.63,5.07-2.1,8.79-1.45,6.24,1.09,10.32,7.7,9.09,14.73a13.42,13.42,0,0,1-7.08,9.81,5.49,5.49,0,0,0-2.41,7.56c.63,1.15,1.38,2.4,2.18,3.74C166.71,101.52,170.92,108.53,169.69,115.52Z"/><circle cx="92.34" cy="61.86" r="6.04"/><circle cx="115.72" cy="65.95" r="5.98"/><path d="M107.23,79.15a4.88,4.88,0,0,1-1,5.65,6.95,6.95,0,0,1-11.31-2,4.9,4.9,0,0,1,.93-5.67l.09-.07a.16.16,0,0,1,.22,0,.19.19,0,0,1,0,.12,5.68,5.68,0,0,0,1,4,5.25,5.25,0,0,0,3.45,2.13,5.31,5.31,0,0,0,4-.82,5.68,5.68,0,0,0,2.3-3.42.16.16,0,0,1,.19-.12.18.18,0,0,1,.1.07Z"/><circle class="cls-2" cx="76.02" cy="108.5" r="4.24"/><circle class="cls-2" cx="94.02" cy="131.5" r="4.34"/><circle class="cls-2" cx="108.02" cy="142.5" r="3.36"/><circle class="cls-2" cx="120.02" cy="126.5" r="4.28"/><circle class="cls-2" cx="76.02" cy="147.5" r="5.13"/><circle class="cls-2" cx="42.02" cy="97.5" r="6.28"/><circle class="cls-2" cx="157.02" cy="116.5" r="4.03"/><circle class="cls-2" cx="108.02" cy="111.5" r="4.55"/></svg>