<svg id="Calque_1" data-name="Calque 1" xmlns="http://www.w3.org/2000/svg" viewBox="0 0 357.16 342.7"><title>Plan de travail 1</title><path d="M345.94,133.63c9.68-11.15,9-27.61-1.43-36.7-5.78-5-12-7.26-18.5-6.64-.79.08-1.52.27-2.27.42A49.05,49.05,0,0,0,259.26,35a20.74,20.74,0,0,0,.1-2.51c-.28-6.57-3.4-12.47-9.25-17.56-10.54-9.15-27-7.54-36.68,3.61a27.64,27.64,0,0,0-6.82,17.32C198.29,37,186.5,39,178.68,48c-8.91,10.25-13.88,31.95.42,44.37,5.17,4.49,11.25,5.7,17,5.37l-.59.68a48.7,48.7,0,0,0-10.11,45.16L182,181.42a6.14,6.14,0,0,0,7.53,6.53l37-8.7a48.7,48.7,0,0,0,43.3-16.34l.36-.41c.54,5.6,2.59,11.22,7.57,15.55,14.39,12.49,34.7,4.59,43.83-5.93,7.82-9,8.21-20.92,8.24-29.28A27.83,27.83,0,0,0,345.94,133.63ZM239.66,166.7,196,128.79a36,36,0,0,1,5.18-17.2L256,159.16A36.05,36.05,0,0,1,239.66,166.7Zm-30.85-64.78,10.75-12.37,55.66,48.36-10.75,12.37Zm90.92-48.44a36.92,36.92,0,0,1,3.65,52l-20.1,23.14L227.62,80.27l20.09-23.14A36.93,36.93,0,0,1,299.73,53.48Zm-57.08-9.93L210.6,80.44c-3.1,1.77-16.44,8.75-23.44,2.67-8.61-7.48-4.13-21.36.79-27,5.2-6,14.3-7.24,21.61-8.24,1.73-.24,3.35-.46,4.79-.72a6.14,6.14,0,0,0,4.89-7.46,14.92,14.92,0,0,1,3.47-13.08c5.24-6,13.91-7.1,19.34-2.39,3.23,2.81,4.88,5.67,5,8.76C247.36,38.45,242.89,43.29,242.65,43.55ZM195,174l2.53-27.66L222,167.67Zm117.26-10c-4.92,5.66-18,12.09-26.49,4.7-6.94-6-1.82-20.11-.48-23.44l32.26-37.15c0-.05,4.24-5.13,9.65-5.65,3.05-.3,6.08.91,9.26,3.67,5.36,4.65,5.45,13.34.21,19.37a15,15,0,0,1-12.44,5.31,6.13,6.13,0,0,0-6.67,5.86c-.06,1.46-.07,3.09-.07,4.84C317.47,148.93,317.46,158.07,312.25,164.07Z"/><circle cx="269.11" cy="68.01" r="6.75"/><circle cx="289.15" cy="85.42" r="6.69"/><path d="M273.39,93.16A5.46,5.46,0,0,1,269.12,98a7.77,7.77,0,0,1-9.68-8.44,5.46,5.46,0,0,1,4.16-4.89l.14,0a.17.17,0,0,1,.2.14.23.23,0,0,1,0,.14,6.37,6.37,0,0,0-1.35,4.41,6.12,6.12,0,0,0,6.36,5.54,6.35,6.35,0,0,0,4.19-1.95.16.16,0,0,1,.24,0,.16.16,0,0,1,.06.13Z"/><path d="M31.59,337.87A71.44,71.44,0,0,1,14,337.05a3.92,3.92,0,1,1,1.67-7.67h0c1.73.37,34.93,7,63.34-19.91-15.35.15-26.87-4.08-34.31-12.62-12.46-14.3-8.54-35-7-41,3.19-12.74,11.35-21.07,23-23.45,14.59-3,32.25,4.22,42,17.11,8.32,11,9.43,24.39,3,36.72a120.66,120.66,0,0,1-8,13.34c29.55-5.67,50.63-21.37,62.74-46.79a104.45,104.45,0,0,0,9.91-41.66,3.92,3.92,0,1,1,7.84-.13c0,.87.42,86.6-87.57,97.63A84.2,84.2,0,0,1,31.59,337.87Zm34-98.22a28,28,0,0,0-3.45.45c-8.63,1.76-14.49,7.87-16.94,17.67-2.6,10.44-2.57,24.83,5.35,33.92,7,8,19.13,11.22,36.07,9.49a107.11,107.11,0,0,0,12-18.55c6.75-13.06,1.43-23.38-2.34-28.38C89.23,244.83,76.56,239,65.63,239.65Z"/></svg>