<svg id="Calque_1" data-name="Calque 1" xmlns="http://www.w3.org/2000/svg" viewBox="0 0 576.15 428.98"><title>Plan de travail 1</title><path d="M151.17,97.29h2.07v18.65h-2.07Z"/><path d="M156.94,97.29h1.87v18.65h-1.87Z"/><path d="M170,103.87h-2v-1.49h2v-1.11c0-4.18,3.3-4.3,4.76-4.3v1.48c-.93,0-2.92,0-2.92,3v.93h2.92v1.49h-2.92v12.07H170Z"/><path d="M189.64,115.94h-1.86v-2.8a6,6,0,0,1-5.54,3.17,7.16,7.16,0,0,1,0-14.31,6,6,0,0,1,5.54,3.23v-2.85h1.86Zm-12.59-6.76a5.29,5.29,0,0,0,5.44,5.4,5.51,5.51,0,0,0,5.34-5.45,4.91,4.91,0,0,0-.43-2.16,5.22,5.22,0,0,0-5-3.25,5.31,5.31,0,0,0-5.39,5.44Z"/><path d="M205.74,115.94H204v-2.42c-.75,1.76-2.59,2.82-5,2.79-4.23-.07-5.72-2.94-5.72-6.24v-7.69h1.84v7.33c0,2.93,1.31,4.89,4.36,4.87,2.82,0,4.43-1.72,4.43-4.54v-7.66h1.87Z"/><path d="M210.42,103.87h-2.67v-1.49h2.67V97.29h1.84v5.09h3v1.49h-3v12.07h-1.84Z"/><path d="M238.08,121.08h-1.86v-7.89a6,6,0,0,1-5.59,3.12,6.84,6.84,0,0,1-6.93-7.07,6.93,6.93,0,0,1,7-7.24,6.12,6.12,0,0,1,5.56,3.1v-2.72h1.79Zm-12.54-11.87a5.39,5.39,0,1,0,10.78,0,5.16,5.16,0,0,0-1.51-3.85,5.42,5.42,0,0,0-9.27,3.85Z"/><path d="M254.18,115.94h-1.76v-2.42c-.76,1.76-2.6,2.82-5,2.79-4.23-.07-5.72-2.94-5.72-6.24v-7.69h1.84v7.33c0,2.93,1.31,4.89,4.36,4.87,2.82,0,4.44-1.72,4.44-4.54v-7.66h1.86Z"/><path d="M258.64,109.69a5.16,5.16,0,0,0,5.29,5,5,5,0,0,0,4.66-2.79h1.94a7.19,7.19,0,0,1-2.75,3.3,7.08,7.08,0,0,1-3.85,1.1,7,7,0,0,1-7.16-7.13,7.12,7.12,0,1,1,14.21.51Zm10.5-1.49a5.28,5.28,0,0,0-10.48,0Z"/><path d="M281.94,103.87h-2.67v-1.49h2.67V97.29h1.84v5.09h3v1.49h-3v12.07h-1.84Z"/><path d="M301.26,115.94H299.5v-2.42c-.76,1.76-2.6,2.82-5,2.79-4.23-.07-5.71-2.94-5.71-6.24v-7.69h1.83v7.33c0,2.93,1.31,4.89,4.36,4.87,2.82,0,4.44-1.72,4.44-4.54v-7.66h1.86Z"/><path d="M318.24,105.78a2.33,2.33,0,0,0-4.66,0c.05,1.29,1,1.82,2.67,2.3,1.94.53,4.11,1.08,4.21,4a4.22,4.22,0,0,1-4.49,4.3c-2.19,0-4.61-1.38-4.63-4.23h1.84a2.68,2.68,0,0,0,2.82,2.7,2.52,2.52,0,0,0,2.62-2.55c-.05-1.53-1.06-2.16-3.4-2.84-1.94-.58-3.46-1.36-3.51-3.51,0-2.44,1.94-3.88,4.24-3.88a3.85,3.85,0,0,1,4.13,3.78Z"/><path d="M337.08,115.94h-1.86v-2.8a6,6,0,0,1-5.54,3.17,7.16,7.16,0,0,1,0-14.31,6,6,0,0,1,5.54,3.23v-2.85h1.86Zm-12.59-6.76a5.29,5.29,0,0,0,5.44,5.4,5.09,5.09,0,0,0,4.89-3.3,5.25,5.25,0,0,0,.45-2.15,4.91,4.91,0,0,0-.43-2.16,5.22,5.22,0,0,0-5-3.25,5.31,5.31,0,0,0-5.39,5.44Z"/><path d="M353.91,111.35a7.21,7.21,0,1,1,0-4.28H352a5.38,5.38,0,0,0-8.74-1.82,5.62,5.62,0,0,0-1.53,3.91,5.26,5.26,0,0,0,5.34,5.42,5.12,5.12,0,0,0,4.91-3.23Z"/><path d="M356.45,97.29h1.87v7.31a5.1,5.1,0,0,1,4.83-2.6,5.3,5.3,0,0,1,4.49,1.87,7.56,7.56,0,0,1,1.28,4.76v7.31h-1.84v-7.23a5.78,5.78,0,0,0-1-3.58,4.1,4.1,0,0,0-3.4-1.39,4.22,4.22,0,0,0-3.3,1.34,4.59,4.59,0,0,0-1.08,3.15v7.71h-1.87Z"/><path d="M373.33,109.69a5.16,5.16,0,0,0,5.29,5,5,5,0,0,0,4.66-2.79h1.94a7.23,7.23,0,0,1-2.74,3.3,7.11,7.11,0,0,1-3.86,1.1,7,7,0,0,1-7.15-7.13,7.12,7.12,0,1,1,14.21.51Zm10.51-1.49a5.28,5.28,0,0,0-10.48,0Z"/><path d="M394.42,105.78a2.33,2.33,0,0,0-4.66,0c.05,1.29,1,1.82,2.67,2.3,1.94.53,4.1,1.08,4.2,4a4.21,4.21,0,0,1-4.48,4.3c-2.19,0-4.61-1.38-4.64-4.23h1.84a2.68,2.68,0,0,0,2.82,2.7,2.5,2.5,0,0,0,2.62-2.55c-.05-1.53-1.05-2.16-3.4-2.84-1.94-.58-3.45-1.36-3.5-3.51,0-2.44,1.94-3.88,4.23-3.88a3.85,3.85,0,0,1,4.14,3.78Z"/><path d="M164.68,151.31h-1.87v-7.89a6,6,0,0,1-5.59,3.12,6.84,6.84,0,0,1-6.93-7.07,6.93,6.93,0,0,1,7-7.24,6.13,6.13,0,0,1,5.57,3.1v-2.72h1.79Zm-12.55-11.87a5.43,5.43,0,0,0,9.25,3.8,5.38,5.38,0,0,0,1.53-3.83,5.16,5.16,0,0,0-1.51-3.85,5.26,5.26,0,0,0-3.83-1.61,5.32,5.32,0,0,0-5.44,5.46Z"/><path d="M180.77,146.17H179v-2.42c-.75,1.76-2.59,2.82-5,2.79-4.23-.07-5.72-2.94-5.72-6.24v-7.69h1.84v7.33c0,2.93,1.31,4.89,4.36,4.87,2.82,0,4.43-1.72,4.43-4.54v-7.66h1.86Z"/><path d="M185.23,139.92a5.16,5.16,0,0,0,5.29,5,5,5,0,0,0,4.66-2.79h1.94a7,7,0,0,1-6.6,4.4,7,7,0,0,1-7.15-7.13,7.12,7.12,0,1,1,14.21.51Zm10.51-1.49a5.28,5.28,0,0,0-10.48,0Z"/><path d="M209.84,146c0,2.41-.2,5.06-3.78,5.46a3.83,3.83,0,0,0-.57,0v-1.57a1.94,1.94,0,0,0,.35,0c2-.33,2.14-1.84,2.14-3.86v-13.4h1.86ZM208,127.52h1.86v2.6H208Z"/><path d="M214.68,139.92a5.16,5.16,0,0,0,5.29,5,5,5,0,0,0,4.66-2.79h1.94a7.19,7.19,0,0,1-2.75,3.3,7.38,7.38,0,1,1,3.2-5.52Zm10.51-1.49a5.28,5.28,0,0,0-10.48,0Z"/><path d="M243,136a2.33,2.33,0,0,0-4.66,0c0,1.29,1,1.82,2.67,2.3,1.94.52,4.11,1.08,4.21,4a4.22,4.22,0,0,1-4.49,4.3c-2.19,0-4.61-1.38-4.63-4.23H238a2.68,2.68,0,0,0,2.82,2.7,2.52,2.52,0,0,0,2.62-2.55c-.05-1.53-1.06-2.16-3.4-2.84-1.94-.58-3.45-1.36-3.5-3.51,0-2.44,1.93-3.88,4.23-3.88a3.85,3.85,0,0,1,4.13,3.78Z"/><path d="M260.73,146.17H259v-2.42c-.76,1.76-2.6,2.82-5,2.79-4.23-.07-5.72-2.94-5.72-6.24v-7.69h1.84v7.33c0,2.93,1.31,4.89,4.36,4.87,2.82,0,4.44-1.72,4.44-4.54v-7.66h1.86Z"/><path d="M264.36,127.52h1.86v2.6h-1.86Zm0,5.09h1.86v13.56h-1.86Z"/><path d="M275.94,136a2.12,2.12,0,0,0-2.31-2.24,2.15,2.15,0,0,0-2.35,2.19c.05,1.29,1,1.82,2.67,2.3,1.94.52,4.11,1.08,4.21,4a4.21,4.21,0,0,1-4.48,4.3c-2.2,0-4.61-1.38-4.64-4.23h1.84a2.68,2.68,0,0,0,2.82,2.7,2.51,2.51,0,0,0,2.62-2.55c-.05-1.53-1.06-2.16-3.4-2.84-1.94-.58-3.45-1.36-3.5-3.51,0-2.44,1.94-3.88,4.23-3.88a3.84,3.84,0,0,1,4.13,3.78Z"/><path d="M302,146.17h-1.86v-2.8a6,6,0,0,1-5.54,3.17,7.16,7.16,0,0,1,0-14.31,6,6,0,0,1,5.54,3.23v-2.85H302Zm-12.59-6.76a5.29,5.29,0,0,0,5.44,5.4,5.51,5.51,0,0,0,5.34-5.45,4.91,4.91,0,0,0-.43-2.16,5.22,5.22,0,0,0-5-3.25,5.31,5.31,0,0,0-5.39,5.44Z"/><path d="M306.73,134.1h-2.67v-1.49h2.67v-5.09h1.84v5.09h3v1.49h-3v12.07h-1.84Z"/><path d="M314.64,134.1H312v-1.49h2.67v-5.09h1.84v5.09h3v1.49h-3v12.07h-1.84Z"/><path d="M321.49,127.52h1.86v2.6h-1.86Zm0,5.09h1.86v13.56h-1.86Z"/><path d="M327,132.61h1.76v2.22a4.62,4.62,0,0,1,4.34-2.6v1.84h-.18c-2.62,0-4.08,1.64-4.08,4.71v7.39H327Z"/><path d="M335,139.92a5.17,5.17,0,0,0,5.3,5,5,5,0,0,0,4.66-2.79h1.94a7.19,7.19,0,0,1-2.75,3.3,7.08,7.08,0,0,1-3.85,1.1,7,7,0,0,1-7.16-7.13,7.12,7.12,0,1,1,14.21.51Zm10.51-1.49a5.28,5.28,0,0,0-10.48,0Zm-2.37-12,.68,1.36-6,3.25-.63-1.21Z"/><path d="M357.21,132.61H359v2.82a6.25,6.25,0,0,1,5.67-3.2c4.56,0,6.95,3.71,6.95,7.21a6.88,6.88,0,0,1-6.95,7.1,6,6,0,0,1-5.57-3.15v7.92h-1.86Zm12.52,6.75a5.29,5.29,0,0,0-5.44-5.41,5.37,5.37,0,0,0-3.83,1.58,5.63,5.63,0,0,0-1.51,3.88,5.3,5.3,0,0,0,5.39,5.4,5.29,5.29,0,0,0,5.39-5.42Z"/><path d="M388,146.17h-1.86v-2.8a6,6,0,0,1-5.54,3.17,7.16,7.16,0,0,1,0-14.31,6,6,0,0,1,5.54,3.23v-2.85H388Zm-12.59-6.76a5.29,5.29,0,0,0,5.44,5.4,5.09,5.09,0,0,0,4.89-3.3,5.25,5.25,0,0,0,.45-2.15,4.91,4.91,0,0,0-.43-2.16,5.22,5.22,0,0,0-5-3.25,5.31,5.31,0,0,0-5.39,5.44Z"/><path d="M391.67,132.61h1.76v2.22a4.62,4.62,0,0,1,4.34-2.6v1.84h-.18c-2.62,0-4.08,1.64-4.08,4.71v7.39h-1.84Z"/><path d="M151.12,157.75H153V176.4h-1.87Z"/><path d="M157.42,170.15a5.16,5.16,0,0,0,5.29,5,5,5,0,0,0,4.66-2.79h1.94a7.22,7.22,0,0,1-2.74,3.3,7.11,7.11,0,0,1-3.86,1.1,7,7,0,0,1-7.15-7.13,7.12,7.12,0,1,1,14.21.51Zm10.51-1.49a5.28,5.28,0,0,0-10.48,0Z"/><path d="M178.51,166.24a2.33,2.33,0,0,0-4.66-.05c.05,1.29,1,1.82,2.67,2.3,1.94.52,4.1,1.08,4.2,4a4.21,4.21,0,0,1-4.48,4.3c-2.19,0-4.61-1.38-4.64-4.23h1.84a2.68,2.68,0,0,0,2.82,2.7,2.5,2.5,0,0,0,2.62-2.55c0-1.53-1-2.16-3.4-2.84-1.94-.58-3.45-1.36-3.5-3.51,0-2.44,1.94-3.88,4.23-3.88a3.85,3.85,0,0,1,4.14,3.78Z"/><path d="M193.17,164.33V176.4h-1.84V164.33h-2v-1.49h2v-1.11c0-4.18,3.3-4.3,4.76-4.3v1.48c-.93.05-2.92.05-2.92,3v.93h4v-5.09H199V176.4h-1.86V164.33Z"/><path d="M203.47,170.15a5.16,5.16,0,0,0,5.29,5,5,5,0,0,0,4.66-2.79h1.94a7.24,7.24,0,0,1-2.75,3.3,7.38,7.38,0,1,1,3.2-5.52ZM214,168.66a5.28,5.28,0,0,0-10.48,0Z"/><path d="M230.93,176.4h-1.76V174c-.76,1.76-2.6,2.82-5,2.79-4.23-.07-5.72-2.94-5.72-6.24v-7.69h1.84v7.33c0,2.93,1.31,4.89,4.36,4.87,2.82,0,4.43-1.72,4.43-4.54v-7.66h1.87Z"/><path d="M234.56,162.84h1.76v2.22a4.61,4.61,0,0,1,4.33-2.6v1.84h-.17c-2.62,0-4.09,1.64-4.09,4.71v7.39h-1.83Z"/><path d="M248.76,166.24a2.12,2.12,0,0,0-2.31-2.24,2.15,2.15,0,0,0-2.35,2.19c.05,1.29,1,1.82,2.67,2.3,1.94.52,4.11,1.08,4.21,4a4.21,4.21,0,0,1-4.48,4.3c-2.2,0-4.61-1.38-4.64-4.23h1.84a2.68,2.68,0,0,0,2.82,2.7,2.51,2.51,0,0,0,2.62-2.55c0-1.53-1.06-2.16-3.4-2.84-1.94-.58-3.45-1.36-3.5-3.51,0-2.44,1.94-3.88,4.23-3.88a3.84,3.84,0,0,1,4.13,3.78Z"/><path d="M274.81,181.54H273v-7.89a6,6,0,0,1-5.6,3.12,6.84,6.84,0,0,1-6.92-7.08,6.92,6.92,0,0,1,7-7.23,6.12,6.12,0,0,1,5.57,3.1v-2.72h1.79Zm-12.55-11.87a5.4,5.4,0,1,0,10.79,0,5.16,5.16,0,0,0-1.51-3.85,5.42,5.42,0,0,0-9.28,3.85Z"/><path d="M290.91,176.4h-1.77V174c-.75,1.76-2.59,2.82-5,2.79-4.23-.07-5.72-2.94-5.72-6.24v-7.69h1.84v7.33c0,2.93,1.31,4.89,4.36,4.87,2.82,0,4.43-1.72,4.43-4.54v-7.66h1.87Z"/><path d="M294.53,157.75h1.87v2.6h-1.87Zm0,5.09h1.87V176.4h-1.87Z"/><path d="M320.83,176.4h-1.78v-2.8a6,6,0,0,1-5.6,3.17,7.16,7.16,0,0,1,0-14.31,6,6,0,0,1,5.54,3.13v-7.84h1.86Zm-12.54-6.78a5.28,5.28,0,0,0,5.44,5.42,5.37,5.37,0,0,0,3.85-1.59,5.31,5.31,0,0,0,1.52-3.91,5.18,5.18,0,0,0-1.57-3.8,5.43,5.43,0,0,0-9.24,3.85Z"/><path d="M325.34,170.15a5.16,5.16,0,0,0,5.29,5,5,5,0,0,0,4.66-2.79h1.94a7.22,7.22,0,0,1-2.74,3.3,7.11,7.11,0,0,1-3.86,1.1,7,7,0,0,1-7.15-7.13,7.12,7.12,0,1,1,14.21.51Zm10.51-1.49a5.28,5.28,0,0,0-10.48,0Zm-2.37-12,.68,1.36-6.05,3.25-.63-1.21Z"/><path d="M353.88,174.83a7,7,0,0,1-2,5.35,7.63,7.63,0,0,1-5.14,2.09,6.85,6.85,0,0,1-6.7-4.39h2.14a5.23,5.23,0,0,0,9.85-2.62v-1.74a5.86,5.86,0,0,1-5.47,3.25,7.16,7.16,0,0,1,0-14.31,6,6,0,0,1,5.5,3.18v-2.8h1.83Zm-12.54-5.21a5.27,5.27,0,0,0,5.44,5.42,5.15,5.15,0,0,0,3.8-1.57,5.66,5.66,0,0,0,1.52-3.83,5.85,5.85,0,0,0-1.24-3.55,5,5,0,0,0-4.13-1.89,5.27,5.27,0,0,0-5.39,5.39Z"/><path d="M371.09,176.4h-1.86v-2.8a6,6,0,0,1-5.55,3.17,7.16,7.16,0,0,1,0-14.31,6,6,0,0,1,5.55,3.23v-2.85h1.86Zm-12.6-6.76a5.31,5.31,0,0,0,5.45,5.4,5.07,5.07,0,0,0,4.88-3.3,5.29,5.29,0,0,0,.46-2.15,4.91,4.91,0,0,0-.43-2.16,5.23,5.23,0,0,0-5-3.25,5.32,5.32,0,0,0-5.39,5.44Z"/><path d="M388.27,174.83a7,7,0,0,1-2,5.35,7.61,7.61,0,0,1-5.14,2.09,6.86,6.86,0,0,1-6.7-4.39h2.15a5.05,5.05,0,0,0,1.61,1.79,5.3,5.3,0,0,0,3,1,5.24,5.24,0,0,0,5.23-5.39v-1.74a5.83,5.83,0,0,1-5.46,3.25,7.16,7.16,0,0,1,0-14.31,6,6,0,0,1,5.49,3.18v-2.8h1.84Zm-12.55-5.21a5.27,5.27,0,0,0,5.45,5.42,5.18,5.18,0,0,0,3.8-1.57,5.66,5.66,0,0,0,1.51-3.83,5.9,5.9,0,0,0-1.23-3.55,5,5,0,0,0-4.14-1.89,5.27,5.27,0,0,0-5.39,5.39Z"/><path d="M392.7,170.15a5.16,5.16,0,0,0,5.29,5,5,5,0,0,0,4.66-2.79h1.94a7.22,7.22,0,0,1-2.74,3.3,7.11,7.11,0,0,1-3.86,1.1,7,7,0,0,1-7.15-7.13,7.12,7.12,0,1,1,14.21.51Zm10.51-1.49a5.28,5.28,0,0,0-10.48,0Z"/><path d="M427.42,176.4h-1.77V174c-.75,1.76-2.59,2.82-5,2.79-4.23-.07-5.72-2.94-5.72-6.24v-7.69h1.84v7.33c0,2.93,1.31,4.89,4.36,4.87,2.82,0,4.43-1.72,4.43-4.54v-7.66h1.87Z"/><path d="M431,162.84h1.77c0,.76,0,1.51,0,2.42a5.08,5.08,0,0,1,5-2.8c4.21,0,5.69,2.93,5.69,6.23v7.71h-1.84v-7.34c0-2.92-1.31-4.91-4.35-4.86-2.8,0-4.41,1.72-4.41,4.54v7.66H431Z"/><path d="M150.82,192.64h3.93v1.54a5.59,5.59,0,0,1,4.44-2c5,0,6.82,4.36,6.82,7.61,0,4-2.82,7.33-6.8,7.33a5.36,5.36,0,0,1-4.21-1.74v5.92h-4.18Zm11,7a3.49,3.49,0,0,0-3.5-3.55,3.44,3.44,0,0,0-2.52,1.06,3.67,3.67,0,0,0-1,2.54,3.48,3.48,0,0,0,3.5,3.53,3.48,3.48,0,0,0,3.5-3.55Z"/><path d="M183.07,206.62h-4.19v-1.51a4.64,4.64,0,0,1-4.13,2c-4.43,0-7-3.47-7-7.48a7.07,7.07,0,0,1,7-7.46,4.69,4.69,0,0,1,4.13,2v-1.49h4.19Zm-11.16-6.92a3.48,3.48,0,0,0,3.47,3.5,3.26,3.26,0,0,0,2.93-1.56,3.89,3.89,0,0,0,.57-1.79,3.47,3.47,0,0,0-.35-1.84,3.31,3.31,0,0,0-3.17-1.94,3.45,3.45,0,0,0-3.45,3.6Z"/><path d="M186.09,192.64H190v1.56a3.51,3.51,0,0,1,3.55-2v4.21h-.15c-2.14,0-3.15.78-3.15,2.75v7.5h-4.18Z"/><path d="M195.41,195.82h-1.56v-3.18h1.56V192c0-4.06,3-4.41,5.94-4.41v3.15c-.78,0-1.76,0-1.76,1.33v.53h1.76v3.18h-1.76v10.8h-4.18Z"/><path d="M216.12,206.62h-3.91v-1.48a4.17,4.17,0,0,1-3.88,2c-4.73,0-5.21-3.83-5.21-5.72v-8.74h4.18v7.64c0,1.53.33,2.89,2.22,2.89,2.09,0,2.41-1.48,2.41-2.92v-7.61h4.19Z"/><path d="M219.14,192.64H223v1.49a3.46,3.46,0,0,1,.86-1,4.6,4.6,0,0,1,3-1,4.29,4.29,0,0,1,3.2,1.34,4.67,4.67,0,0,1,.83,1.16,5.51,5.51,0,0,1,1-1.21,4.93,4.93,0,0,1,3.42-1.29,5.07,5.07,0,0,1,3.68,1.41c1.31,1.39,1.51,2.32,1.51,5.42v7.63h-4.18v-7.43a4.88,4.88,0,0,0-.28-2,1.76,1.76,0,0,0-1.86-1.14,2,2,0,0,0-2,1.16A4,4,0,0,0,232,199v7.63h-4.18V199a4.83,4.83,0,0,0-.25-1.74,1.81,1.81,0,0,0-1.84-1.19,2,2,0,0,0-2.07,1.24,4.6,4.6,0,0,0-.3,1.86v7.43h-4.18Z"/><path d="M251.94,200.38a5.16,5.16,0,0,0,5.29,5,5,5,0,0,0,4.66-2.8h1.94a7.19,7.19,0,0,1-2.75,3.3,7.09,7.09,0,0,1-3.85,1.11,7,7,0,0,1-7.16-7.13,7.12,7.12,0,1,1,14.21.51Zm10.5-1.49a5.28,5.28,0,0,0-10.48,0Z"/><path d="M268,194.56h-2.67v-1.49H268V188h1.84v5.09h3v1.49h-3v12.06H268Z"/><path d="M295.64,211.76h-1.86v-7.88a6,6,0,0,1-5.59,3.12,6.85,6.85,0,0,1-6.93-7.08,6.93,6.93,0,0,1,7-7.23,6.13,6.13,0,0,1,5.57,3.1v-2.72h1.78ZM283.1,199.9a5.43,5.43,0,0,0,9.24,3.8,5.39,5.39,0,0,0,1.54-3.83,5.16,5.16,0,0,0-1.51-3.85,5.42,5.42,0,0,0-9.27,3.85Z"/><path d="M311.74,206.62H310v-2.41c-.76,1.76-2.6,2.82-5,2.79-4.23-.07-5.72-2.95-5.72-6.25v-7.68h1.84v7.33c0,2.92,1.31,4.89,4.36,4.86,2.82,0,4.44-1.71,4.44-4.53v-7.66h1.86Z"/><path d="M315.37,188h1.86v2.6h-1.86Zm0,5.09h1.86v13.55h-1.86Z"/><path d="M328.11,193.07h1.77v2.82a6.24,6.24,0,0,1,5.67-3.2c4.56,0,6.95,3.71,6.95,7.21a6.89,6.89,0,0,1-6.95,7.1,6,6,0,0,1-5.57-3.15v7.91h-1.87Zm12.52,6.75a5.28,5.28,0,0,0-5.44-5.41,5.39,5.39,0,0,0-3.83,1.58,5.63,5.63,0,0,0-1.51,3.88,5.28,5.28,0,0,0,5.39,5.39,5.29,5.29,0,0,0,5.39-5.41Z"/><path d="M344.51,199.82a7.2,7.2,0,1,1,7.18,7.16,7,7,0,0,1-7.18-7.16Zm1.84.05a5.34,5.34,0,1,0,5.34-5.44,5.28,5.28,0,0,0-5.34,5.44Z"/><path d="M367.79,196.47a2.33,2.33,0,0,0-4.66-.05c.05,1.29,1,1.82,2.67,2.29,1.94.53,4.1,1.09,4.21,4a4.22,4.22,0,0,1-4.49,4.31c-2.19,0-4.61-1.38-4.63-4.23h1.84a2.68,2.68,0,0,0,2.82,2.7,2.52,2.52,0,0,0,2.62-2.55c-.05-1.54-1.06-2.17-3.4-2.85-1.94-.58-3.45-1.36-3.51-3.5,0-2.44,1.94-3.88,4.24-3.88a3.85,3.85,0,0,1,4.13,3.78Z"/><path d="M379.12,196.47a2.12,2.12,0,0,0-2.31-2.24,2.15,2.15,0,0,0-2.35,2.19c.06,1.29,1,1.82,2.68,2.29,1.93.53,4.1,1.09,4.2,4a4.21,4.21,0,0,1-4.48,4.31c-2.19,0-4.61-1.38-4.64-4.23h1.84a2.69,2.69,0,0,0,2.82,2.7,2.5,2.5,0,0,0,2.62-2.55c-.05-1.54-1.05-2.17-3.4-2.85-1.94-.58-3.45-1.36-3.5-3.5,0-2.44,1.94-3.88,4.23-3.88a3.84,3.84,0,0,1,4.13,3.78Z"/><path d="M385.2,200.38a5.15,5.15,0,0,0,5.29,5,5,5,0,0,0,4.66-2.8h1.94a7.19,7.19,0,0,1-2.75,3.3,7.09,7.09,0,0,1-3.85,1.11,7.24,7.24,0,1,1,7.05-6.62Zm10.5-1.49a5.28,5.28,0,0,0-10.48,0Zm-2.19-8.51-.61,1.18-6.07-3.23.66-1.36Z"/><path d="M413.74,206.62H412v-2.79a6,6,0,0,1-5.59,3.17,7.16,7.16,0,0,1,0-14.31,6,6,0,0,1,5.54,3.13V188h1.87Zm-12.55-6.77a5.28,5.28,0,0,0,5.44,5.41,5.41,5.41,0,0,0,3.86-1.58,5.35,5.35,0,0,0,1.51-3.91,5.22,5.22,0,0,0-1.56-3.8,5.44,5.44,0,0,0-9.25,3.85Z"/><path d="M418.25,200.38a5.15,5.15,0,0,0,5.29,5,5,5,0,0,0,4.66-2.8h1.94a7.19,7.19,0,0,1-2.75,3.3,7.09,7.09,0,0,1-3.85,1.11,7,7,0,0,1-7.16-7.13,7.12,7.12,0,1,1,14.21.51Zm10.5-1.49a5.28,5.28,0,0,0-10.48,0Z"/><path d="M163.59,236.85h-1.76v-2.41c-.76,1.76-2.59,2.82-5,2.79-4.23-.07-5.72-2.95-5.72-6.25V223.3h1.84v7.33c0,2.92,1.31,4.89,4.36,4.86,2.82,0,4.43-1.71,4.43-4.53V223.3h1.86Z"/><path d="M167.22,223.3H169c0,.76,0,1.51,0,2.42a5.08,5.08,0,0,1,5-2.8c4.2.05,5.69,2.93,5.69,6.22v7.71h-1.84v-7.33c0-2.92-1.31-4.91-4.36-4.86-2.79,0-4.4,1.71-4.4,4.54v7.65h-1.87Z"/><path d="M184.12,230.61a5.16,5.16,0,0,0,5.29,5,5,5,0,0,0,4.66-2.8H196a7.05,7.05,0,0,1-6.6,4.41,7,7,0,0,1-7.15-7.13,7.12,7.12,0,1,1,14.21.51Zm10.51-1.49a5.28,5.28,0,0,0-10.48,0Z"/><path d="M220.2,231.54a7.51,7.51,0,0,1-14.82-1.71,7.48,7.48,0,0,1,14.79-1.57h-4.23a3.13,3.13,0,0,0-3-2,3,3,0,0,0-2.42,1,3.85,3.85,0,0,0-.91,2.57,3.31,3.31,0,0,0,3.33,3.55,3.21,3.21,0,0,0,3-1.86Z"/><path d="M221.83,229.83a7.54,7.54,0,1,1,7.54,7.45,7.3,7.3,0,0,1-7.54-7.45Zm4.19,0a3.36,3.36,0,1,0,3.35-3.56,3.4,3.4,0,0,0-3.35,3.56Z"/><path d="M252.22,236.85h-3.91v-1.48a4.17,4.17,0,0,1-3.88,2c-4.74,0-5.21-3.83-5.21-5.72v-8.74h4.18v7.64c0,1.53.33,2.89,2.21,2.89,2.1,0,2.42-1.48,2.42-2.92v-7.61h4.19Z"/><path d="M255.24,218.21h4.18v18.64h-4.18Z"/><path d="M265.87,231.31a3,3,0,0,0,3.22,2.47,2.83,2.83,0,0,0,2.55-1.31h4.28a8.21,8.21,0,0,1-2.85,3.58,6.8,6.8,0,0,1-4,1.26,7.46,7.46,0,0,1-.07-14.92,7.14,7.14,0,0,1,5.29,2.22,7.81,7.81,0,0,1,2,6.7Zm6.3-3.17a3.31,3.31,0,0,0-6.25,0Z"/><path d="M291.66,236.85h-3.9v-1.48a4.17,4.17,0,0,1-3.88,2c-4.74,0-5.22-3.83-5.22-5.72v-8.74h4.19v7.64c0,1.53.32,2.89,2.21,2.89,2.09,0,2.42-1.48,2.42-2.92v-7.61h4.18Z"/><path d="M294.66,222.87h3.93v1.56a3.51,3.51,0,0,1,3.55-2v4.21H302c-2.14,0-3.15.78-3.15,2.75v7.5h-4.18Z"/><path d="M319.55,236.85h-4l-5-14h4.33l2.7,8.72,2.69-8.72h4.34Z"/><path d="M326.53,218.21h4.18v3.18h-4.18Zm0,4.66h4.18v14h-4.18Z"/><path d="M341.67,236.85h-4l-5-14H337l2.7,8.72,2.69-8.72h4.33Z"/><path d="M351.19,231.31a3,3,0,0,0,3.22,2.47,2.83,2.83,0,0,0,2.55-1.31h4.28a8.21,8.21,0,0,1-2.85,3.58,6.78,6.78,0,0,1-4,1.26,7.46,7.46,0,0,1-.07-14.92,7.14,7.14,0,0,1,5.29,2.22,7.81,7.81,0,0,1,2,6.7Zm6.3-3.17a3.31,3.31,0,0,0-6.25,0Z"/><path d="M384.79,232.27a7.21,7.21,0,1,1,0-4.28h-1.91a5.18,5.18,0,0,0-4.91-3.35,5.13,5.13,0,0,0-3.83,1.53,5.54,5.54,0,0,0-1.54,3.91,5.26,5.26,0,0,0,5.34,5.41,5.09,5.09,0,0,0,4.91-3.22Z"/><path d="M386.63,230.05a7.2,7.2,0,1,1,7.18,7.16,7,7,0,0,1-7.18-7.16Zm1.84,0a5.34,5.34,0,1,0,5.34-5.44,5.27,5.27,0,0,0-5.34,5.44Z"/><path d="M403.81,223.3h1.76v2.14a4.87,4.87,0,0,1,4.29-2.52,4.8,4.8,0,0,1,3.7,1.54,6.88,6.88,0,0,1,.88,1.41,6.11,6.11,0,0,1,1-1.44,5.13,5.13,0,0,1,3.73-1.51,5,5,0,0,1,3.66,1.36c1.18,1.19,1.53,2.65,1.53,5v7.53h-1.86V229.4a5.36,5.36,0,0,0-1-3.61,3.2,3.2,0,0,0-2.69-1.13,3.55,3.55,0,0,0-3,1.41,4.79,4.79,0,0,0-.8,3.25v7.53h-1.87v-7.53a5.15,5.15,0,0,0-.7-3.22,3.52,3.52,0,0,0-3-1.44,3.35,3.35,0,0,0-2.87,1.39,5.24,5.24,0,0,0-.9,3.25v7.55h-1.87Z"/><path d="M427.89,223.3h1.77v2.14a4.84,4.84,0,0,1,4.28-2.52,4.78,4.78,0,0,1,3.7,1.54,7,7,0,0,1,.89,1.41,5.82,5.82,0,0,1,1-1.44,5.09,5.09,0,0,1,3.73-1.51,5,5,0,0,1,3.65,1.36c1.18,1.19,1.54,2.65,1.54,5v7.53h-1.87V229.4a5.36,5.36,0,0,0-1-3.61,3.2,3.2,0,0,0-2.69-1.13,3.54,3.54,0,0,0-3,1.41,4.74,4.74,0,0,0-.81,3.25v7.53h-1.87v-7.53a5.08,5.08,0,0,0-.7-3.22,3.52,3.52,0,0,0-3-1.44,3.35,3.35,0,0,0-2.88,1.39,5.3,5.3,0,0,0-.9,3.25v7.55h-1.87Z"/><path d="M452.81,230.61a5.16,5.16,0,0,0,5.29,5,5,5,0,0,0,4.66-2.8h1.94a7.19,7.19,0,0,1-2.75,3.3,7.09,7.09,0,0,1-3.85,1.11,7,7,0,0,1-7.16-7.13,7.12,7.12,0,1,1,14.21.51Zm10.5-1.49a5.28,5.28,0,0,0-10.48,0Z"/><path d="M151.12,248.44H153v18.64h-1.87Z"/><path d="M157.42,260.84a5.16,5.16,0,0,0,5.29,5,5,5,0,0,0,4.66-2.8h1.94a7.05,7.05,0,0,1-6.6,4.41,7,7,0,0,1-7.15-7.13,7.12,7.12,0,1,1,14.21.51Zm10.51-1.49a5.28,5.28,0,0,0-10.48,0Z"/><path d="M182,266.88c0,2.42-.2,5.07-3.78,5.47-.17,0-.37,0-.57,0v-1.56a1.94,1.94,0,0,0,.35,0c2-.33,2.14-1.84,2.14-3.86v-13.4H182Zm-1.86-18.44H182V251h-1.86Z"/><path d="M199.64,267.08h-1.86v-2.79a6,6,0,0,1-5.54,3.17,7.16,7.16,0,0,1,0-14.31,6,6,0,0,1,5.54,3.23v-2.85h1.86Zm-12.59-6.75a5.28,5.28,0,0,0,5.44,5.39,5.51,5.51,0,0,0,5.34-5.44,5,5,0,0,0-.43-2.17,5.23,5.23,0,0,0-5-3.24,5.3,5.3,0,0,0-5.39,5.44Z"/><path d="M215.74,267.08H214v-2.42c-.76,1.77-2.6,2.83-5,2.8-4.23-.07-5.72-2.95-5.72-6.25v-7.68h1.84v7.33c0,2.92,1.31,4.89,4.36,4.86,2.82,0,4.43-1.71,4.43-4.53v-7.66h1.87Z"/><path d="M219.37,253.53h1.76c0,.76,0,1.51,0,2.42a5.07,5.07,0,0,1,5-2.8c4.21,0,5.7,2.92,5.7,6.22v7.71H230v-7.33c0-2.92-1.31-4.91-4.36-4.86-2.8,0-4.41,1.71-4.41,4.54v7.65h-1.86Z"/><path d="M236.27,260.84a5.16,5.16,0,0,0,5.29,5,5,5,0,0,0,4.66-2.8h1.94a7.19,7.19,0,0,1-2.75,3.3,7.09,7.09,0,0,1-3.85,1.11,7,7,0,0,1-7.16-7.13,7.12,7.12,0,1,1,14.21.51Zm10.5-1.49a5.28,5.28,0,0,0-10.48,0Z"/><path d="M257.68,260.28a7.2,7.2,0,1,1,7.18,7.16,7,7,0,0,1-7.18-7.16Zm1.84.05a5.34,5.34,0,1,0,5.34-5.44,5.27,5.27,0,0,0-5.34,5.44Z"/><path d="M287.33,267.08h-1.76v-2.42c-.76,1.77-2.6,2.83-5,2.8-4.23-.07-5.71-2.95-5.71-6.25v-7.68h1.83v7.33c0,2.92,1.31,4.89,4.36,4.86,2.82,0,4.44-1.71,4.44-4.53v-7.66h1.86Z"/><path d="M298.21,248.44h1.87v18.64h-1.87Z"/><path d="M304.51,260.84a5.16,5.16,0,0,0,5.29,5,5,5,0,0,0,4.66-2.8h1.94a7.19,7.19,0,0,1-2.75,3.3,7.37,7.37,0,1,1,3.2-5.51Zm10.5-1.49a5.28,5.28,0,0,0-10.48,0Z"/><path d="M326.75,248.44h1.87v7.81a6.39,6.39,0,0,1,5.51-3.1,7.16,7.16,0,0,1-.05,14.31,6,6,0,0,1-5.54-3.17v2.79h-1.79Zm12.5,11.84a5.37,5.37,0,1,0-5.44,5.44,5.29,5.29,0,0,0,5.44-5.44Z"/><path d="M343.88,248.44h1.87v18.64h-1.87Z"/><path d="M350.18,260.84a5.16,5.16,0,0,0,5.29,5,5,5,0,0,0,4.66-2.8h1.94a7.19,7.19,0,0,1-2.75,3.3,7.37,7.37,0,1,1,3.2-5.51Zm10.51-1.49a5.28,5.28,0,0,0-10.48,0Z"/><path d="M377.64,267.08h-1.77v-2.42c-.75,1.77-2.59,2.83-5,2.8-4.23-.07-5.72-2.95-5.72-6.25v-7.68H367v7.33c0,2.92,1.31,4.89,4.36,4.86,2.82,0,4.43-1.71,4.43-4.53v-7.66h1.87Z"/><path d="M510.3,6A259.43,259.43,0,0,1,475,328.76,259.21,259.21,0,0,1,32.51,145.47,257.52,257.52,0,0,1,73.13,6h-13a270.48,270.48,0,0,0,40.48,330.53A270.21,270.21,0,0,0,561.92,145.47,268.47,268.47,0,0,0,523.26,6Z"/></svg>