<?xml version="1.0" encoding="utf-8"?>
<!-- Generator: Adobe Illustrator 22.1.0, SVG Export Plug-In . SVG Version: 6.00 Build 0)  -->
<svg version="1.1" id="Calque_1" xmlns="http://www.w3.org/2000/svg" xmlns:xlink="http://www.w3.org/1999/xlink" x="0px" y="0px"
	 viewBox="0 0 1281 781" style="enable-background:new 0 0 1281 781;" xml:space="preserve">
<style type="text/css">
	.st0{fill:none;}
	.st1{fill:#010101;}
</style>
<title>Plan de travail 1</title>
<path class="st0" d="M933.8,445.4c-3-4.5-8.1-7.4-15.6-8.6c-12.5-2.2-24.6,7.3-27,21.2c-1.6,8.3,0.9,16.8,6.7,22.9
	c4.2,4.3,4.1,11.2-0.2,15.3c-0.1,0.1-0.3,0.3-0.4,0.4c-1.9,1.7-4.2,3.5-6.6,5.5c-10.1,8.2-22.7,18.3-25.1,32.1
	c-2.3,13,3.6,38.1,23.4,41.6c16.1,2.8,29.9-19.9,33-25.4l14.8-84.9C936.9,464.9,939.3,453.5,933.8,445.4z"/>
<path class="st0" d="M1032.1,428.6c-35.4-6.1-69,17.5-75.3,52.9l-9.3,53.2l128.1,22.4l9.3-53.2
	C1091,468.4,1067.4,434.8,1032.1,428.6z M990.4,486.6c-4.5-4.8-4.4-12.3,0.4-16.8s12.3-4.4,16.8,0.4c4.5,4.8,4.4,12.3-0.4,16.8
	C1002.5,491.5,994.9,491.3,990.4,486.6C990.4,486.6,990.4,486.6,990.4,486.6L990.4,486.6z M1026.3,523.5c-5.3,5.4-14,5.5-19.4,0.2
	c-1.2-1.2-2.2-2.6-2.9-4.2c-1.8-3.9-1.1-8.6,1.8-11.2l0.2-0.1c0.1-0.1,0.3-0.1,0.4,0c0.1,0.1,0.1,0.2,0.1,0.2
	c-0.3,2.8,0.4,5.6,2,7.9c3.4,4.6,9.9,5.8,14.7,2.6c2.3-1.6,3.9-4,4.6-6.8c0-0.2,0.2-0.3,0.4-0.2c0.1,0,0.2,0.1,0.2,0.1l0.1,0.2
	C1030.3,515.9,1029.3,520.6,1026.3,523.5L1026.3,523.5z M1052.9,495.2c-4.9,4.3-12.3,3.8-16.7-1.1c-4.3-4.9-3.8-12.3,1.1-16.7
	s12.3-3.8,16.7,1.1c0,0,0,0,0,0C1058.3,483.4,1057.9,490.9,1052.9,495.2C1053,495.2,1052.9,495.3,1052.9,495.2L1052.9,495.2z"/>
<path class="st1" d="M1174.8,507.6c4.5-25.6-11.5-49.9-35.6-54.1c-13.3-2.3-24.8,0-34,6.8c-1,0.8-2,1.7-3,2.7
	c-16.3-44.9-65.9-68.1-110.8-51.8c-14.6,5.3-27.4,14.4-37.3,26.3c-0.6-1.3-1.3-2.6-2.1-3.9c-6.4-9.7-16.5-15.8-30-18.1
	c-24.3-4.2-47.6,13.2-52.1,38.8c-2,11.1-0.1,22.5,5.5,32.4c-11.5,9.3-27.5,23.1-31.1,43.8c-4.1,23.6,8.1,60.9,41,66.7
	c11.9,2.1,22.2-1.6,30.6-7.4l-0.3,1.5c-5,28.5,4.7,57.6,25.8,77.5l29.2,60.3c2.6,5.4,9.1,7.6,14.5,5c1-0.5,2-1.2,2.8-2l47.9-46.8
	c26.6-11.5,45.6-35.6,50.6-64.1l0.2-1c5.9,8,14.1,14.6,25.6,16.6c33.1,5.8,56.6-24.6,60.8-48.8c3.6-20.7-6.6-39.1-14.2-51.7
	C1167.2,528.8,1172.9,518.7,1174.8,507.6z M888.9,575.8c-19.8-3.5-25.7-28.5-23.4-41.6c2.4-13.8,15-23.9,25.1-32.1
	c2.4-1.9,4.6-3.8,6.6-5.5c4.5-4,4.9-10.8,1-15.3c-0.1-0.1-0.2-0.3-0.4-0.4c-5.8-6.1-8.2-14.6-6.7-22.9c2.4-13.9,14.6-23.4,27-21.2
	c7.4,1.3,12.5,4.1,15.6,8.6c5.4,8.1,3.1,19.5,3,20l-14.8,84.9C918.8,555.9,905,578.6,888.9,575.8z M983.5,706l-21.3-44.1l56.4,9.9
	L983.5,706z M1044.3,654.3l-100.4-17.6c-5.2-9.4-7.8-20-7.8-30.7l126,22C1058.5,638.1,1052.4,647.2,1044.3,654.3L1044.3,654.3z
	 M1066.9,606.9l-128.1-22.4l5-28.5l128.1,22.4L1066.9,606.9z M1084.9,503.8l-9.3,53.2l-128.1-22.4l9.3-53.2
	c6.2-35.4,39.9-59,75.3-52.9C1067.4,434.7,1091.1,468.4,1084.9,503.8L1084.9,503.8L1084.9,503.8z M1153.4,503.8
	c-1.3,8.3-6.5,15.5-14,19.3c-5.4,2.6-7.6,9.1-4.9,14.5c0.1,0.1,0.1,0.3,0.2,0.4c1.2,2.3,2.7,4.7,4.3,7.4c6.7,11.1,15,24.9,12.6,38.7
	c-2.3,13-16.2,34.6-35.8,31.2c-16-2.8-21.1-28.7-22-35l14.9-85.4c0-0.1,1.7-11.6,9.4-17.3c4.3-3.2,10-4.2,17.3-2.9
	C1147.8,476.9,1155.9,490,1153.4,503.8L1153.4,503.8z"/>
<ellipse transform="matrix(0.8903 -0.4554 0.4554 0.8903 -108.2538 507.4178)" class="st1" cx="999" cy="478.4" rx="11.9" ry="11.9"/>
<ellipse transform="matrix(2.914285e-02 -0.9996 0.9996 2.914285e-02 528.4878 1517.0603)" class="st1" cx="1045.2" cy="486.5" rx="11.8" ry="11.8"/>
<path class="st1" d="M1028.2,512.3c0-0.1-0.1-0.1-0.2-0.2c-0.2,0-0.3,0.1-0.4,0.2c-0.6,2.7-2.3,5.1-4.6,6.8
	c-4.8,3.2-11.2,2-14.7-2.6c-1.6-2.3-2.3-5.1-2-7.9c0-0.2-0.1-0.3-0.3-0.3c-0.1,0-0.2,0-0.2,0.1l-0.2,0.1c-3,2.5-3.6,7.3-1.8,11.2
	c3.1,6.9,11.2,10,18.1,6.9c1.6-0.7,3-1.7,4.2-2.9c3-3.1,4-7.7,2.1-11.2L1028.2,512.3z"/>
</svg>
