<svg id="Calque_1" data-name="Calque 1" xmlns="http://www.w3.org/2000/svg" viewBox="0 0 320.36 232.53"><defs><style>.cls-1{fill:#fccb00;}</style></defs><title>Plan de travail 1</title><path class="cls-1" d="M250.63,75l31,8.15,9.78,27.74-9.78,16.31v24.47l9.78,14.68-9.78,26.1L257.16,212l-31-27.74L214.74,212,191.9,231.6l-29.36,34.26-22.84,21.2L112,228.34,95.66,200.61V166.35l-22.84,8.16-29.36-8.16L36.93,127.2l18-24.47,6.52-9.79-4.89-26.1S66.3,42.37,69.56,44s21.2,0,21.2,0l13.06,8.16,3.26,11.42,24.47-11.42,27.73-13H191.9l14.36,12.44,26.43,31.6Z"/><path d="M299.45,110.35c3.71-21.21-9.47-41.29-29.39-44.78-11-1.92-20.47,0-28.11,5.64a30.14,30.14,0,0,0-2.52,2.23A71.54,71.54,0,0,0,117,52.34a31.81,31.81,0,0,0-1.76-3.22c-5.3-8-13.64-13-24.78-15C70.36,30.64,51,45,47.31,66.25A40.31,40.31,0,0,0,51.82,93c-9.52,7.72-22.73,19.11-25.73,36.24-3.41,19.5,6.71,50.35,33.92,55.1,9.84,1.73,18.33-1.34,25.32-6.1l-.22,1.28a71.07,71.07,0,0,0,21.34,64l24.14,49.83a9,9,0,0,0,14.32,2.51l39.62-38.69a71,71,0,0,0,41.81-53l.14-.78c4.89,6.59,11.66,12.06,21.15,13.72,27.37,4.79,46.8-20.37,50.3-40.37,3-17.13-5.49-32.32-11.75-42.79A40.5,40.5,0,0,0,299.45,110.35ZM191.57,231.63l-83-14.52a52.8,52.8,0,0,1-6.46-25.39L206.26,210A52.6,52.6,0,0,1,191.57,231.63Zm-87.28-57.71,4.11-23.54L214.33,168.9l-4.12,23.54ZM181.42,45a53.83,53.83,0,0,1,43.7,62.22l-7.7,44L111.49,132.72l7.7-44A53.82,53.82,0,0,1,181.42,45ZM102.64,75.53,90.37,145.74c-2.55,4.53-14,23.3-27.28,21-16.38-2.86-21.23-23.58-19.34-34.36,2-11.39,12.41-19.8,20.78-26.56,2-1.6,3.84-3.09,5.45-4.5a9,9,0,0,0,.5-13,21.72,21.72,0,0,1-5.51-19C67,57.86,77,50,87.33,51.81c6.14,1.07,10.36,3.41,12.87,7.15C104.7,65.62,102.74,75,102.64,75.53ZM141.29,274.4,123.64,238l46.64,8.16Zm139-100.68c-1.89,10.78-13.38,28.64-29.56,25.81-13.21-2.31-17.42-23.75-18.24-28.92l12.36-70.68c0-.09,1.43-9.6,7.79-14.33,3.59-2.65,8.28-3.43,14.34-2.37,10.18,1.78,16.83,12.56,14.83,24a21.85,21.85,0,0,1-11.55,16,9,9,0,0,0-3.92,12.33c1,1.88,2.24,3.92,3.56,6.1C275.4,150.88,282.27,162.31,280.28,173.72Z"/><circle cx="154.1" cy="86.19" r="9.85"/><circle cx="192.24" cy="92.86" r="9.76"/><path d="M178.38,114.38c1.61,2.83.75,6.7-1.71,9.22a11.34,11.34,0,0,1-18.46-3.26c-1.45-3.21-.94-7.14,1.53-9.24l.15-.13a.25.25,0,0,1,.41.23,9.29,9.29,0,0,0,1.63,6.53,8.93,8.93,0,0,0,12.12,2.14,9.31,9.31,0,0,0,3.76-5.59.26.26,0,0,1,.31-.19.25.25,0,0,1,.16.12Z"/></svg>