<svg id="Calque_1" data-name="Calque 1" xmlns="http://www.w3.org/2000/svg" viewBox="0 0 357.16 342.7"><title>Plan de travail 1</title><path d="M178.68,124.35a48.15,48.15,0,1,0,48.14,48.15A48.2,48.2,0,0,0,178.68,124.35Zm0,88.05a39.9,39.9,0,1,1,39.89-39.9A39.95,39.95,0,0,1,178.68,212.4Z"/><path d="M343.74,172.5a56.43,56.43,0,0,0-37.15-53,56.36,56.36,0,0,0-74.93-74.94,56.36,56.36,0,0,0-106,0,56.36,56.36,0,0,0-74.93,74.94,56.36,56.36,0,0,0,0,106,56.36,56.36,0,0,0,74.93,74.94,56.36,56.36,0,0,0,106,0,56.36,56.36,0,0,0,74.93-74.94A56.43,56.43,0,0,0,343.74,172.5ZM289.56,61.62a48.15,48.15,0,0,1,8.14,57.11l-18.85,7.81a43.66,43.66,0,0,0-54.21-54.22l7.81-18.84A48.13,48.13,0,0,1,289.56,61.62ZM262,255.83a35.51,35.51,0,0,1-41.8,6.17l-3.79-9.16a89.25,89.25,0,0,0,42.6-42.6l9.15,3.8A35.49,35.49,0,0,1,262,255.83ZM95.35,89.17A35.48,35.48,0,0,1,137.14,83l3.79,9.16a89.29,89.29,0,0,0-42.6,42.6L89.18,131A35.48,35.48,0,0,1,95.35,89.17ZM268.17,131l-9.15,3.8a89.25,89.25,0,0,0-42.6-42.6L220.21,83a35.42,35.42,0,0,1,48,48ZM178.68,253.12A80.62,80.62,0,1,1,259.3,172.5,80.71,80.71,0,0,1,178.68,253.12ZM208.8,89a87.34,87.34,0,0,0-60.25,0l-3.79-9.15a35.43,35.43,0,0,1,67.83,0ZM95.17,142.38a87.16,87.16,0,0,0,0,60.24L86,206.41a35.42,35.42,0,0,1,0-67.82Zm-6,71.66,9.15-3.8a89.29,89.29,0,0,0,42.6,42.6L137.14,262a35.42,35.42,0,0,1-48-48Zm59.37,42a87.34,87.34,0,0,0,60.25,0l3.79,9.15a35.43,35.43,0,0,1-67.83,0Zm113.63-53.39a87.16,87.16,0,0,0,0-60.24l9.15-3.79a35.42,35.42,0,0,1,0,67.82ZM178.68,15.69a48.14,48.14,0,0,1,46.14,34.63L217,69.16a43.66,43.66,0,0,0-76.67,0l-7.81-18.84A48.16,48.16,0,0,1,178.68,15.69ZM67.8,61.62a48.12,48.12,0,0,1,57.11-8.14l7.81,18.84A43.66,43.66,0,0,0,78.5,126.54l-18.85-7.81A48.15,48.15,0,0,1,67.8,61.62ZM21.87,172.5a48.15,48.15,0,0,1,34.62-46.14l18.85,7.8a43.67,43.67,0,0,0,0,76.68l-18.85,7.8A48.15,48.15,0,0,1,21.87,172.5ZM67.8,283.38a48.15,48.15,0,0,1-8.15-57.11l18.85-7.81a43.66,43.66,0,0,0,54.21,54.22l-7.8,18.84A48.13,48.13,0,0,1,67.8,283.38Zm110.88,45.93a48.16,48.16,0,0,1-46.15-34.63l7.81-18.84a43.66,43.66,0,0,0,76.67,0l7.81,18.84A48.14,48.14,0,0,1,178.68,329.31Zm110.88-45.93a48.12,48.12,0,0,1-57.11,8.14l-7.81-18.84a43.66,43.66,0,0,0,54.21-54.22l18.85,7.81A48.15,48.15,0,0,1,289.56,283.38Zm11.3-64.74L282,210.84a43.66,43.66,0,0,0,0-76.68l18.85-7.8a48.05,48.05,0,0,1,0,92.28Z"/></svg>