<svg id="Calque_1" data-name="Calque 1" xmlns="http://www.w3.org/2000/svg" viewBox="0 0 357.16 342.7"><title>Plan de travail 1</title><path d="M310.29,116.17a57.8,57.8,0,0,0-76.84-76.83,57.79,57.79,0,0,0-108.65,0A57.79,57.79,0,0,0,48,116.17a57.79,57.79,0,0,0,0,108.66,57.79,57.79,0,0,0,76.83,76.83,57.79,57.79,0,0,0,108.65,0,57.8,57.8,0,0,0,76.84-76.83,57.8,57.8,0,0,0,0-108.66ZM292.82,56.81a49.37,49.37,0,0,1,8.34,58.56l-19.32,8a44.76,44.76,0,0,0-55.59-55.59l8-19.33A49.37,49.37,0,0,1,292.82,56.81ZM264.57,255.94a36.41,36.41,0,0,1-42.85,6.33l-3.4-8.2A92.94,92.94,0,0,0,262.7,209.7l8.19,3.39A36.39,36.39,0,0,1,264.57,255.94ZM93.68,85.06a36.41,36.41,0,0,1,42.86-6.33l3.39,8.2A92.92,92.92,0,0,0,95.56,131.3l-8.2-3.39A36.4,36.4,0,0,1,93.68,85.06Zm177.21,42.85-8.19,3.39a92.94,92.94,0,0,0-44.38-44.37l3.4-8.2a36.32,36.32,0,0,1,49.17,49.18ZM179.13,254.36A83.86,83.86,0,1,1,263,170.5,84,84,0,0,1,179.13,254.36ZM210.51,83.68a92.3,92.3,0,0,0-62.77,0l-3.38-8.18a36.32,36.32,0,0,1,69.54,0ZM92.3,139.12a92.3,92.3,0,0,0,0,62.77l-8.18,3.38a36.32,36.32,0,0,1,0-69.54Zm-4.94,74,8.2-3.39a92.88,92.88,0,0,0,44.37,44.37l-3.39,8.2a36.32,36.32,0,0,1-49.18-49.18Zm60.38,44.24a92.3,92.3,0,0,0,62.77,0l3.39,8.17a36.32,36.32,0,0,1-69.54,0ZM266,201.89a92.3,92.3,0,0,0,0-62.77l8.18-3.39a36.32,36.32,0,0,1,0,69.54ZM179.13,9.72a49.37,49.37,0,0,1,47.31,35.5l-8,19.33a44.76,44.76,0,0,0-78.61,0l-8-19.33A49.36,49.36,0,0,1,179.13,9.72ZM65.44,56.81A49.36,49.36,0,0,1,124,48.46l8,19.33a44.76,44.76,0,0,0-55.59,55.59l-19.32-8A49.36,49.36,0,0,1,65.44,56.81ZM18.35,170.5a49.37,49.37,0,0,1,35.5-47.31l19.32,8a44.77,44.77,0,0,0,0,78.62l-19.32,8A49.37,49.37,0,0,1,18.35,170.5ZM65.44,284.19a49.36,49.36,0,0,1-8.35-58.56l19.32-8A44.76,44.76,0,0,0,132,273.21l-8,19.33A49.37,49.37,0,0,1,65.44,284.19Zm113.69,47.09a49.36,49.36,0,0,1-47.31-35.5l8-19.33a44.76,44.76,0,0,0,78.61,0l8,19.33A49.37,49.37,0,0,1,179.13,331.28Zm113.69-47.09a49.39,49.39,0,0,1-58.57,8.35l-8-19.33a44.76,44.76,0,0,0,55.59-55.59l19.32,8A49.37,49.37,0,0,1,292.82,284.19Zm11.59-66.38-19.33-8a44.77,44.77,0,0,0,0-78.62l19.33-8a49.27,49.27,0,0,1,0,94.62Z"/><path d="M240.29,195.39a4.23,4.23,0,0,0-2.29-5.52l-11.08-4.6A50.07,50.07,0,0,0,229,174.38h12a4.23,4.23,0,1,0,0-8.46H228.94a50.61,50.61,0,0,0-2.25-10.84l11.17-4.62a4.23,4.23,0,0,0-3.24-7.82l-11.16,4.62a50,50,0,0,0-6.22-9.14l8.56-8.56a4.23,4.23,0,1,0-6-6l-8.58,8.57A50.11,50.11,0,0,0,202,126l4.62-11.15a4.23,4.23,0,0,0-7.82-3.24l-4.63,11.19a50.48,50.48,0,0,0-10.85-2.14V108.62a4.23,4.23,0,0,0-8.46,0v12.06A50.16,50.16,0,0,0,164,122.83l-4.58-11.06a4.23,4.23,0,0,0-7.82,3.23l4.57,11a49.86,49.86,0,0,0-9.26,6.19l-8.39-8.39a4.23,4.23,0,0,0-6,6L141,138.2a49.65,49.65,0,0,0-6.24,9.26L123.85,143a4.23,4.23,0,1,0-3.24,7.81l10.89,4.51a49.82,49.82,0,0,0-2.19,11H117.6a4.23,4.23,0,0,0,0,8.46h11.71a50,50,0,0,0,2.19,11l-10.76,4.46a4.23,4.23,0,0,0,1.62,8.14A4.41,4.41,0,0,0,124,198l10.74-4.45a49.53,49.53,0,0,0,6.29,9.32l-8.21,8.21a4.23,4.23,0,0,0,6,6l8.22-8.22a49.76,49.76,0,0,0,9.37,6.21l-4.44,10.72a4.23,4.23,0,0,0,7.82,3.24l4.46-10.77a50.19,50.19,0,0,0,11,2.09V232a4.23,4.23,0,0,0,8.46,0V220.31a50.42,50.42,0,0,0,11-2.29l4.5,10.86a4.23,4.23,0,1,0,7.82-3.24l-4.5-10.87a49.83,49.83,0,0,0,9.2-6.32l8.38,8.37a4.22,4.22,0,0,0,6,0,4.23,4.23,0,0,0,0-6l-8.41-8.4a50.18,50.18,0,0,0,6.11-9.32l11,4.56a4.21,4.21,0,0,0,5.53-2.29Zm-31.75,4.52a41.57,41.57,0,1,1,0-58.82A41.64,41.64,0,0,1,208.54,199.91Z"/></svg>