<svg id="Calque_1" data-name="Calque 1" xmlns="http://www.w3.org/2000/svg" viewBox="0 0 585.15 305.98"><title>Plan de travail 1</title><path d="M401.38,124.85a14.37,14.37,0,0,1,14.35-14.35H521a14.35,14.35,0,0,1,0,28.7H415.73a14.37,14.37,0,0,1-14.35-14.35m-9.57,76.53A14.37,14.37,0,0,1,406.16,187h33.48v28.7H406.16a14.37,14.37,0,0,1-14.35-14.35m31.09,86.1a12,12,0,1,1,0-23.92h90.88a12,12,0,1,1,0,23.92H422.9m62.66-108.63c.15.3.33.6.46.91a19,19,0,0,1,1.45,7.27v28.7H449.21V187a19.16,19.16,0,0,1,1.45-7.27c.13-.31.31-.6.46-.91a19,19,0,0,1,1.18-2.18c.24-.36.51-.69.76-1a20.24,20.24,0,0,1,1.38-1.66c.33-.35.69-.68,1-1s1-.87,1.53-1.26.83-.6,1.27-.87,1.13-.64,1.72-.93.91-.46,1.39-.65a17.91,17.91,0,0,1,2.08-.64c.43-.12.84-.26,1.28-.35a18.08,18.08,0,0,1,7.18,0c.44.09.86.23,1.29.35a19.19,19.19,0,0,1,2.08.64c.48.19.93.42,1.39.65s1.16.59,1.72.93.85.57,1.26.87A18.62,18.62,0,0,1,481.2,173c.36.33.71.66,1,1a20.24,20.24,0,0,1,1.38,1.66c.25.35.53.68.76,1a17.6,17.6,0,0,1,1.18,2.18m59.31,22.53a14.37,14.37,0,0,1-14.35,14.35H497V187h33.48a14.37,14.37,0,0,1,14.35,14.35M16.71,40.6a5.34,5.34,0,0,0-4.07,5.95c.43,2.6,3,3.92,5.64,3.49l320.39-1.57,22.58,9h0l.09,0,29,9.66a4.87,4.87,0,0,0,1.51.24,4.79,4.79,0,0,0,1.94-.41l40.49-18,24.54,18.4H422.9A21.55,21.55,0,0,0,401.38,89a21.31,21.31,0,0,0,5.15,13.81,23.76,23.76,0,0,0-8.55,38,23.75,23.75,0,0,0-6,41.51,23.75,23.75,0,0,0,6,41.51,23.76,23.76,0,0,0,8.55,37.95,21.31,21.31,0,0,0-5.15,13.81A21.55,21.55,0,0,0,422.9,297h90.88a21.4,21.4,0,0,0,16.38-35.33,23.77,23.77,0,0,0,8.54-37.95,23.74,23.74,0,0,0,6-41.51,23.74,23.74,0,0,0-6-41.51,23.77,23.77,0,0,0-8.54-37.95,21.41,21.41,0,0,0-16.38-35.34H474.72L442.14,43l14.3-14.3,35.63-8.9,24.1,8v2.27a37.37,37.37,0,0,0,37.34,37.33h5.71A4.78,4.78,0,0,0,564,62.67V57a37.38,37.38,0,0,0-37.34-37.33h-4.93l-28-9.32a4.85,4.85,0,0,0-2.67-.1l-38.26,9.56A4.86,4.86,0,0,0,450.61,21l-18.5,18.51-40.55,18-8-2.69a37.37,37.37,0,0,0,22.64-34.31V14.84a4.78,4.78,0,0,0-4.78-4.78h-5.72a37.34,37.34,0,0,0-37.26,36l-17.43-7a4.75,4.75,0,0,0-2.56-.27L16.64,40.55"/><path d="M372.68,105.72a4.78,4.78,0,1,0,4.78,4.78,4.78,4.78,0,0,0-4.78-4.78"/><path d="M320.06,167.9a4.79,4.79,0,1,0,4.79,4.78,4.78,4.78,0,0,0-4.79-4.78"/><path d="M348.76,254a4.78,4.78,0,1,0,4.79,4.78,4.78,4.78,0,0,0-4.79-4.78"/><path d="M564,86.59a4.78,4.78,0,1,0,4.78,4.78A4.79,4.79,0,0,0,564,86.59"/><path d="M568.79,268.35a4.78,4.78,0,1,0,4.78,4.78,4.78,4.78,0,0,0-4.78-4.78"/></svg>