<svg id="Calque_1" data-name="Calque 1" xmlns="http://www.w3.org/2000/svg" viewBox="0 0 979.32 1444.94"><defs><style>.cls-1{fill:#fff;}.cls-2{fill:#fccb00;}.cls-3{fill:#1fb4b1;}</style></defs><title>Plan de travail 1</title><path class="cls-1" d="M114.46,550.89c30.76,9.05,68.76,12.67,110.39,12.67h23.52c-3.62,1.81-7.24,3.61-9.05,5.42-76,48.86-143,121.25-117.62,161.06,5.43,9.05,18.09,18.09,41.62,18.09,10.86,0,23.52-1.81,39.81-7.23,34.38-9,74.19-29,114-54.29,1.81-1.81,5.43-3.62,7.24-5.43-3.62,5.43-3.62,9.05-5.43,12.67-19.9,41.62-32.57,85-38,119.43-7.24,52.48,9.05,72.38,23.53,79.62,5.43,1.81,10.86,3.62,14.47,3.62,41.63,0,94.1-70.57,128.49-143,3.61-5.43,5.42-12.66,7.23-18.09-18.09,161-39.81,441.54-3.62,646,1.81,9,9,14.48,18.1,14.48h3.62a18.77,18.77,0,0,0,14.48-21.72c-38-206.29-12.67-499.44,5.43-655.07,3.61,12.67,7.23,27.14,10.85,39.81,14.48,45.24,34.39,85,54.29,114,25.34,34.38,45.24,43.43,59.72,43.43,3.62,0,7.24,0,10.86-1.81,14.47-5.43,34.38-21.72,32.57-76,0-34.38-9.05-79.62-23.53-123.05,0-1.81-1.81-5.43-3.62-7.24,3.62,1.81,5.43,5.43,9.05,7.24,36.19,30.76,72.39,54.29,105,68.77,19.9,9,36.19,12.66,48.86,12.66,18.09,0,27.14-7.23,34.38-14.47,32.57-38-27.14-117.63-95.91-175.53a25,25,0,0,0-7.24-5.43c3.62,0,7.24,1.81,10.86,1.81a577,577,0,0,0,76,5.43c18.1,0,34.39-1.81,48.86-3.62,52.48-9,67-29,68.77-45.24S927,520.13,879.92,496.6c-30.76-16.29-74.19-27.14-121.24-34.38-3.62,0-5.43,0-9-1.81,3.62-1.81,7.24-1.81,10.86-3.62,43.43-18.1,81.43-41.62,108.57-63.34,41.62-34.38,41.62-59.71,36.19-74.19-19.9-45.24-117.62-27.14-199,7.24-1.81,1.81-5.43,1.81-7.24,3.62,1.81-3.62,3.62-5.43,7.24-9.05,52.48-74.19,88.67-164.67,48.86-193.63-12.67-9-38-12.66-81.43,18.1-27.15,21.71-57.91,54.29-85.06,92.29h0c-1.81,1.81-3.62,5.43-5.42,7.24V234.21c5.42-90.48-10.86-188.2-59.72-190-48.86-3.62-77.81,92.29-83.24,181v9.05l-5.43-10.86C393.14,143.73,326.18,69.54,284.56,93.06c-43.43,23.53-16.28,119.43,25.34,197.25,1.81,1.81,3.62,5.43,3.62,7.23-3.62-1.8-5.43-3.61-9-5.42C264.66,268.59,223,252.3,188.65,243.26c-52.48-10.86-72.38,1.81-81.43,16.28S103.6,301.16,139.79,341c23.53,25.33,59.72,52.47,99.53,76,1.81,1.81,5.43,3.62,7.24,3.62H235.7c-90.48,1.81-186.39,27.14-184.58,76C51.12,514.7,62,536.41,114.46,550.89Zm181,108.57c-83.24,54.29-137.53,59.72-144.77,52.48C147,702.89,174.18,654,257.42,599.75c65.14-43.43,114-56.1,133.91-56.1,5.43,0,9.05,0,10.86,1.81C405.81,556.32,378.66,605.18,295.42,659.46Zm119.43,79.63c-41.62,88.67-85.05,123-95.91,121.24-7.23-5.43-9-61.53,32.58-152,39.81-86.86,83.24-121.24,94.1-121.24h0C454.66,594.32,456.47,650.42,414.85,739.09ZM619.34,882h0c-10.86,0-48.86-39.81-79.62-132.1C509,655.84,518,601.56,527.05,596.13h0c10.86,0,48.86,39.81,79.62,132.1C635.62,822.33,626.58,876.62,619.34,882ZM805.73,759c-7.24,5.43-61.53-7.24-137.53-70.57S572.29,572.6,575.91,563.56c1.81,0,3.62-1.81,5.43-1.81,18.09,0,66.95,16.28,132.1,72.38C789.44,699.28,811.15,751.75,805.73,759ZM758.68,500.22c97.71,14.48,143,47,143,57.91-3.61,9-56.09,27.14-153.81,12.66s-143-47-143-57.9c1.81-7.24,30.76-18.1,83.24-18.1Q718,492.08,758.68,500.22ZM724.29,360.88C782.2,335.55,825.63,328.31,851,328.31c14.47,0,23.52,1.81,25.33,5.43,1.81,9-34.38,52.48-124.86,90.48s-146.58,34.38-152,27.14C597.62,442.31,633.81,398.88,724.29,360.88ZM623,261.35h0c54.28-76,101.33-103.14,114-103.14h1.81c7.24,7.23-1.81,63.33-57.91,143S574.1,407.93,565.05,404.31C557.81,397.07,565.05,341,623,261.35ZM496.28,559.94A62.94,62.94,0,0,1,433,496.6c0-34.38,28.95-63.34,63.33-63.34s63.34,29,63.34,63.34A63,63,0,0,1,496.28,559.94ZM481.81,228.78c5.43-97.72,34.38-146.58,43.43-148.39,9,3.62,32.57,54.29,25.33,152-5.43,97.72-34.38,146.58-43.43,148.39C498.09,379,476.38,328.31,481.81,228.78ZM308.09,127.44c9-3.62,56.09,29,101.33,115.82,47.05,86.86,47.05,143,39.82,148.38-9.05,3.62-56.1-28.95-101.34-115.81C300.85,189,300.85,132.87,308.09,127.44ZM143.41,281.26c7.24-7.24,63.34-3.62,148.39,45.24s115.81,95.91,112.2,105c-7.24,7.24-63.34,3.62-148.39-45.23C172.37,337.36,141.6,290.31,143.41,281.26ZM235.7,458.6h14.48c88.67,0,133.91,21.71,135.72,30.76-1.81,9.05-50.67,36.19-150.2,39.81-97.72,3.62-148.38-21.71-152-30.76C89.13,487.55,138,460.41,235.7,458.6Z"/><path class="cls-2" d="M437,411.55l30.11,15.58L470.8,458l-13.87,14.58-5.65,25.26L458,515.26l-16.13,24.68L412.09,554.5,386.5,518.71l-18.19,26-28.1,14.93L302,588.21l-28.47,16.62-15.06-67L248,505.41l7.91-35.36-25.46,3.15L202.06,458l2.3-41.92L228.54,395l9-8.6,1-28.07s15.75-23,18.74-20.56,21.89,4.9,21.89,4.9l11.59,11.43.73,12.54,27.89-6.14L351,353.41l33.68,7.53,11.95,16.16,20,38.72Z"/><path d="M479.22,459.31c8.73-21-.24-44.81-20-53-10.92-4.53-21.12-4.75-30.32-.67-1.12.5-2.09,1.13-3.11,1.71a75.67,75.67,0,0,0-121.56-50.06,33.26,33.26,0,0,0-1.07-3.73c-3.63-9.47-11.07-16.59-22.11-21.17-19.9-8.25-43.18,2.14-51.91,23.17a42.62,42.62,0,0,0-1.53,28.68C216,390,199.75,398.71,192.7,415.7c-8,19.35-4.71,53.52,22.28,64.72,9.76,4,19.23,2.85,27.55-.46l-.53,1.27a75.17,75.17,0,0,0,7.25,71l13.4,57a9.47,9.47,0,0,0,14.2,5.89l49.83-30.78a75.17,75.17,0,0,0,55.4-45l.32-.78c3.52,7.93,9.26,15.15,18.67,19,27.14,11.26,53-10.22,61.24-30.06,7-17,1.8-34.62-2.25-46.88A42.78,42.78,0,0,0,479.22,459.31ZM339.86,559.59l-82.37-34.17a55.77,55.77,0,0,1-.8-27.7L360,540.6A55.66,55.66,0,0,1,339.86,559.59ZM263.1,479.86l9.68-23.35L377.84,500.1l-9.69,23.34ZM372.48,364.6a56.93,56.93,0,0,1,30.74,74.32L385.1,482.59,280.05,439l18.11-43.66A56.93,56.93,0,0,1,372.48,364.6Zm-88.36,13.33-28.88,69.62c-3.67,4.1-19.79,20.84-33,15.36-16.25-6.75-16.47-29.25-12-39.94,4.68-11.3,17.38-17.57,27.59-22.61,2.42-1.19,4.67-2.31,6.66-3.4A9.49,9.49,0,0,0,248,383.67a23,23,0,0,1-1.32-20.84c4.72-11.38,16.9-17.18,27.13-12.93,6.09,2.53,9.91,5.91,11.64,10.35C288.53,368.17,284.34,377.44,284.12,377.93Zm-6,214.2-9.8-41.71,46.25,19.19ZM444.8,520.29c-4.44,10.7-20.43,26.48-36.47,19.82-13.1-5.44-12.49-28.54-12.14-34.06L425.26,436c0-.1,3.69-9.59,11.35-13,4.32-1.92,9.34-1.64,15.35.86,10.1,4.19,14.48,16.85,9.76,28.23a23.08,23.08,0,0,1-15.62,13.84,9.48,9.48,0,0,0-6.89,11.83c.62,2.17,1.41,4.56,2.26,7.12C445,495.6,449.49,509,444.8,520.29Z"/><circle cx="334.77" cy="400.8" r="10.42"/><circle cx="372.6" cy="416.5" r="10.32"/><path d="M353.32,435.52c1,3.28-.77,7.08-3.89,9.12a12,12,0,0,1-18.3-7.63c-.75-3.65.68-7.59,3.71-9.19l.18-.09a.26.26,0,0,1,.36.11.28.28,0,0,1,0,.22,9.88,9.88,0,0,0,.17,7.12,9.47,9.47,0,0,0,12,5,9.81,9.81,0,0,0,5.17-4.9.27.27,0,0,1,.36-.12.25.25,0,0,1,.14.16Z"/><circle class="cls-3" cx="485.72" cy="475.19" r="7.31"/><circle class="cls-3" cx="311.36" cy="518.7" r="7.48"/><circle class="cls-3" cx="482.36" cy="518.7" r="7.48"/><circle class="cls-3" cx="330.79" cy="542.49" r="5.79"/><circle class="cls-3" cx="493.02" cy="545.07" r="7.39"/><circle class="cls-3" cx="275.02" cy="538.86" r="8.84"/><circle class="cls-3" cx="541.61" cy="504.86" r="10.84"/><circle class="cls-3" cx="525.09" cy="528.18" r="6.95"/><circle class="cls-3" cx="527.09" cy="469.18" r="6.95"/><circle class="cls-3" cx="510.47" cy="497.3" r="7.86"/></svg>