<svg id="Calque_1" data-name="Calque 1" xmlns="http://www.w3.org/2000/svg" viewBox="0 0 357.16 342.7"><title>Plan de travail 1</title><path d="M112.45,322.06c19.44,17.54,48.65,17,65.13-1.28,9.11-10.09,13.27-21.06,12.38-32.59a35.09,35.09,0,0,0-.66-4,87,87,0,0,0,101-112.45,38.12,38.12,0,0,0,4.45.27c11.65-.29,22.23-5.61,31.45-15.82,16.59-18.38,14.29-47.6-5.15-65.15a49,49,0,0,0-30.48-12.69c-1.79-14.79-5-35.77-20.66-49.94-17.87-16.14-56.18-25.69-78.69-.75-8.14,9-10.49,19.74-10.1,30L180,56.59A86.4,86.4,0,0,0,100.2,37.11L33.27,29.7A10.89,10.89,0,0,0,21.42,42.83l14.19,65.83A86.39,86.39,0,0,0,63.1,186l.72.64c-10,.77-20,4.21-27.82,12.9-22.65,25.09-9.32,61.37,9,77.92,15.7,14.17,36.83,15.27,51.66,15.6A49.27,49.27,0,0,0,112.45,322.06Zm-55-189.59,68.7-76.1a64.15,64.15,0,0,1,30.33,9.78L70.22,161.64A64,64,0,0,1,57.41,132.47ZM173.33,80,194.9,99.45l-87.64,97.06L85.69,177Zm82.8,162.86a65.45,65.45,0,0,1-92.35,4.71l-40.34-36.42,87.63-97.07,40.35,36.43A65.45,65.45,0,0,1,256.13,242.83ZM275.69,142,211.35,83.88c-3-5.56-15-29.46-3.94-41.66,13.55-15,38-6.6,47.9,2.32,10.44,9.43,12.35,25.6,13.89,38.59.36,3.09.7,6,1.11,8.53a10.9,10.9,0,0,0,13.06,8.93,26.42,26.42,0,0,1,23.09,6.59c10.51,9.49,12.11,24.91,3.57,34.37-5.08,5.63-10.22,8.46-15.7,8.63C284.56,150.49,276.13,142.38,275.69,142ZM45.91,53l49,5.42L56.29,101.19ZM59.62,261.3c-9.89-8.93-20.83-32.32-7.45-47.14,10.93-12.11,35.73-2.56,41.58-.06l64.78,58.47c.09.07,9,7.69,9.7,17.3.42,5.41-1.81,10.74-6.83,16.3-8.43,9.33-23.83,9.2-34.34-.29a26.56,26.56,0,0,1-9-22.24,10.92,10.92,0,0,0-10.16-12c-2.6-.15-5.49-.22-8.59-.28C86.28,271.06,70.07,270.73,59.62,261.3Z"/><circle cx="231.41" cy="188.04" r="11.98"/><circle cx="199.86" cy="222.99" r="11.86"/><path d="M186.66,194.79c-3.95-.17-7.37-3.56-8.38-7.73a13.79,13.79,0,0,1,15.31-16.89c4.24.59,7.95,3.65,8.52,7.55l0,.24a.33.33,0,0,1-.27.35.36.36,0,0,1-.24-.07,11.25,11.25,0,0,0-7.78-2.55,10.87,10.87,0,0,0-10,11.09,11.34,11.34,0,0,0,3.31,7.49.31.31,0,0,1-.23.53Z"/></svg>