<svg id="Calque_1" data-name="Calque 1" xmlns="http://www.w3.org/2000/svg" viewBox="0 0 303.17 305.98"><defs><style>.cls-1{fill:none;stroke:#000;stroke-miterlimit:10;stroke-width:8px;}</style></defs><title>Plan de travail 1</title><path d="M96.12,99.66a8.76,8.76,0,0,1-8.64,6.72,8.87,8.87,0,1,1,0-17.74,8.74,8.74,0,0,1,8.69,6.81H91.55a4.44,4.44,0,0,0-4.14-3,4.74,4.74,0,0,0-4.58,5c0,2.59,1.76,5.09,4.6,5.09a4.57,4.57,0,0,0,4.12-2.89Z"/><path d="M98.21,89h3.84v5.45a3.73,3.73,0,0,1,3.35-1.62,4,4,0,0,1,3.81,1.83,8.11,8.11,0,0,1,.88,4.27v7.17h-3.83v-7a3.6,3.6,0,0,0-.4-1.87,1.82,1.82,0,0,0-1.66-.81,1.86,1.86,0,0,0-1.87,1,3.31,3.31,0,0,0-.28,1.5v7.12H98.21Z"/><path d="M112.21,99.61a6.91,6.91,0,1,1,6.91,6.84,6.69,6.69,0,0,1-6.91-6.84Zm3.83,0a3.08,3.08,0,1,0,3.08-3.26A3.12,3.12,0,0,0,116,99.66Z"/><path d="M128.19,89H132v2.91h-3.83Zm0,4.27H132v12.83h-3.83Z"/><path d="M140.25,96.84c0-.28-.07-1-1.2-1-.81,0-1.09.51-1.09.85,0,.58.95,1,2,1.27,2.18.6,4.49,1.25,4.49,4s-2.38,4.49-5.23,4.49c-1.94,0-4.87-.88-5.22-4.25h3.81a1.37,1.37,0,0,0,1.46,1.17c.65,0,1.34-.37,1.34-1,0-.88-.95-1-3.4-1.94-1.66-.53-3-1.62-3-3.35,0-2.66,2.31-4.35,5-4.35,1.69,0,4.6.67,4.92,4Z"/><path d="M146.32,89h3.83v2.91h-3.83Zm0,4.27h3.83v12.83h-3.83Z"/><path d="M158.37,96.84c0-.28-.06-1-1.2-1-.8,0-1.08.51-1.08.85,0,.58.95,1,2,1.27,2.17.6,4.48,1.25,4.48,4s-2.38,4.49-5.22,4.49c-1.94,0-4.87-.88-5.22-4.25h3.81a1.37,1.37,0,0,0,1.46,1.17c.65,0,1.34-.37,1.34-1,0-.88-.95-1-3.4-1.94-1.66-.53-3.05-1.62-3.05-3.35,0-2.66,2.31-4.35,5-4.35,1.69,0,4.6.67,4.92,4Z"/><path d="M169.9,96.84c0-.28-.07-1-1.2-1-.81,0-1.09.51-1.09.85,0,.58.95,1,2,1.27,2.17.6,4.48,1.25,4.48,4s-2.38,4.49-5.22,4.49c-1.94,0-4.88-.88-5.22-4.25h3.81a1.36,1.36,0,0,0,1.45,1.17c.65,0,1.34-.37,1.34-1,0-.88-.94-1-3.39-1.94-1.67-.53-3.05-1.62-3.05-3.35,0-2.66,2.31-4.35,5-4.35,1.68,0,4.59.67,4.92,4Z"/><path d="M175.37,99.61a6.91,6.91,0,1,1,6.91,6.84,6.69,6.69,0,0,1-6.91-6.84Zm3.84,0a3.07,3.07,0,1,0,3.07-3.26,3.11,3.11,0,0,0-3.07,3.26Z"/><path d="M191.35,93.23h3.58V94.6a3.81,3.81,0,0,1,3.54-1.81c4.32,0,4.76,3.52,4.76,5.25v8h-3.84v-7c0-1.41-.3-2.66-2-2.66-1.89,0-2.19,1.36-2.19,2.68v7h-3.84Z"/><path d="M211.4,96.84c0-.28-.07-1-1.2-1-.81,0-1.09.51-1.09.85,0,.58.95,1,2,1.27,2.17.6,4.48,1.25,4.48,4s-2.38,4.49-5.22,4.49c-1.94,0-4.88-.88-5.23-4.25h3.82a1.36,1.36,0,0,0,1.45,1.17c.65,0,1.34-.37,1.34-1,0-.88-.95-1-3.39-1.94-1.67-.53-3.06-1.62-3.06-3.35,0-2.66,2.32-4.35,5-4.35,1.69,0,4.6.67,4.93,4Z"/><path d="M92,128.89a6.88,6.88,0,0,1-13.58-1.57,6.86,6.86,0,0,1,13.56-1.43H88.06a2.88,2.88,0,0,0-2.78-1.8,2.72,2.72,0,0,0-2.21.9,3.49,3.49,0,0,0-.84,2.36,3,3,0,0,0,3,3.25,3,3,0,0,0,2.78-1.71Z"/><path d="M97.2,128.69a2.78,2.78,0,0,0,3,2.26,2.58,2.58,0,0,0,2.33-1.2h3.93a7.62,7.62,0,0,1-2.61,3.28,6.28,6.28,0,0,1-3.65,1.16,6.84,6.84,0,0,1-.07-13.68,6.56,6.56,0,0,1,4.85,2,7.16,7.16,0,0,1,1.8,6.15Zm5.78-2.91a3,3,0,0,0-5.73,0Z"/><path d="M109.74,123.86h-1.9V121h1.9v-4.28h3.83V121h1.85v2.91h-1.85v9.91h-3.83Z"/><path d="M117.84,123.86H116V121h1.89v-4.28h3.84V121h1.85v2.91h-1.85v9.91h-3.84Z"/><path d="M127.87,128.69a2.78,2.78,0,0,0,3,2.26,2.58,2.58,0,0,0,2.33-1.2h3.93a7.62,7.62,0,0,1-2.61,3.28,6.28,6.28,0,0,1-3.65,1.16,6.84,6.84,0,0,1-.07-13.68,6.56,6.56,0,0,1,4.85,2,7.16,7.16,0,0,1,1.8,6.15Zm5.77-2.91a3,3,0,0,0-5.73,0Z"/><path d="M150.76,123.86v9.91h-3.84v-9.91h-1.43V121h1.43v-.56c0-3.72,2.75-4,5.45-4v2.89c-.71,0-1.61,0-1.61,1.22V121h3.3v-4.26h3.83v17.08h-3.83v-9.91Z"/><path d="M163.8,128.69a2.79,2.79,0,0,0,3,2.26,2.57,2.57,0,0,0,2.33-1.2H173a7.48,7.48,0,0,1-2.61,3.28,6.24,6.24,0,0,1-3.65,1.16,6.84,6.84,0,0,1-.07-13.68,6.54,6.54,0,0,1,4.85,2,7.16,7.16,0,0,1,1.81,6.15Zm5.78-2.91a3,3,0,0,0-5.73,0Z"/><path d="M187.46,133.77h-3.58v-1.36a3.84,3.84,0,0,1-3.56,1.8c-4.35,0-4.79-3.51-4.79-5.25v-8h3.84v7c0,1.41.3,2.65,2,2.65,1.92,0,2.22-1.36,2.22-2.68v-7h3.84Z"/><path d="M190.2,121h3.6v1.43a3.22,3.22,0,0,1,3.26-1.87v3.86h-.14c-2,0-2.89.71-2.89,2.51v6.89H190.2Z"/><path d="M201,133.77h-4v-3.93h4Z"/><path d="M79.16,144.39h9.68v3.83H83.53v2.66h5.15v3.83H83.53v2.94h5.31v3.83H79.16Z"/><path d="M91.19,144.39H95v17.09H91.19Z"/><path d="M97.8,144.39h3.83v17.09H97.8Z"/><path d="M107.55,156.4a2.78,2.78,0,0,0,3,2.26,2.6,2.6,0,0,0,2.34-1.2h3.92a7.37,7.37,0,0,1-2.61,3.28,6.17,6.17,0,0,1-3.65,1.16,6.84,6.84,0,0,1-.07-13.68,6.58,6.58,0,0,1,4.86,2,7.2,7.2,0,0,1,1.8,6.15Zm5.77-2.91a3,3,0,0,0-5.73,0Z"/><path d="M126.46,148.66h3.6v1.41a5.12,5.12,0,0,1,4.07-1.85c4.55,0,6.26,4,6.26,7,0,3.7-2.59,6.72-6.24,6.72a4.93,4.93,0,0,1-3.86-1.59v5.43h-3.83Zm10.1,6.4a3.22,3.22,0,0,0-5.53-2.29,3.39,3.39,0,0,0-.9,2.34,3.22,3.22,0,1,0,6.43,0Z"/><path d="M142,155a6.91,6.91,0,1,1,6.91,6.84A6.7,6.7,0,0,1,142,155Zm3.84,0a3.07,3.07,0,1,0,3.07-3.25,3.13,3.13,0,0,0-3.07,3.25Z"/><path d="M163.39,152.26c0-.27-.07-1-1.2-1-.81,0-1.09.51-1.09.86,0,.58,1,1,2,1.27,2.17.6,4.48,1.25,4.48,4s-2.38,4.48-5.23,4.48c-1.94,0-4.87-.87-5.22-4.25h3.82a1.36,1.36,0,0,0,1.45,1.18c.65,0,1.34-.37,1.34-1,0-.88-1-1-3.4-2-1.66-.53-3.05-1.61-3.05-3.34,0-2.66,2.32-4.35,5-4.35,1.69,0,4.6.67,4.92,4Z"/><path d="M174.91,152.26c0-.27-.07-1-1.2-1-.81,0-1.09.51-1.09.86,0,.58.95,1,2,1.27,2.17.6,4.48,1.25,4.48,4s-2.38,4.48-5.22,4.48c-1.94,0-4.88-.87-5.22-4.25h3.81a1.36,1.36,0,0,0,1.45,1.18c.65,0,1.34-.37,1.34-1,0-.88-.94-1-3.39-2-1.66-.53-3.05-1.61-3.05-3.34,0-2.66,2.31-4.35,5-4.35,1.68,0,4.59.67,4.92,4Z"/><path d="M184.13,156.4a2.78,2.78,0,0,0,3,2.26,2.6,2.6,0,0,0,2.34-1.2h3.92a7.37,7.37,0,0,1-2.61,3.28,6.17,6.17,0,0,1-3.65,1.16,6.84,6.84,0,0,1-.07-13.68,6.58,6.58,0,0,1,4.86,2,7.2,7.2,0,0,1,1.8,6.15ZM190,145.06l-1.06,2.24-5.71-2.5,1.18-2.7Zm-.09,8.43a3,3,0,0,0-5.73,0Z"/><path d="M209.26,161.48h-3.65V160.1a4.23,4.23,0,0,1-3.89,1.8c-3.88,0-6.42-3-6.42-6.86,0-4.35,3.1-6.82,6.35-6.82a4.91,4.91,0,0,1,3.77,1.53v-5.36h3.84ZM199.14,155a3.14,3.14,0,0,0,3.21,3.28,3.38,3.38,0,0,0,2.38-1,3.13,3.13,0,0,0,.9-2.38,3.1,3.1,0,0,0-.95-2.27,3.22,3.22,0,0,0-2.29-.9,3.14,3.14,0,0,0-3.25,3.21Z"/><path d="M215.16,156.4a2.8,2.8,0,0,0,3,2.26,2.58,2.58,0,0,0,2.33-1.2h3.93a7.37,7.37,0,0,1-2.61,3.28,6.17,6.17,0,0,1-3.65,1.16,6.84,6.84,0,0,1-.07-13.68,6.56,6.56,0,0,1,4.85,2,7.17,7.17,0,0,1,1.81,6.15Zm5.78-2.91a3,3,0,0,0-5.73,0Z"/><path d="M79,172.1h3.83v5.29a5,5,0,0,1,3.72-1.46c2.69,0,6.31,1.92,6.31,6.77,0,4.62-3.21,6.94-6.47,6.94a4.3,4.3,0,0,1-3.72-1.81v1.37H79Zm10,10.65a3.17,3.17,0,1,0-6.33,0,3.13,3.13,0,0,0,3.12,3.31A3.21,3.21,0,0,0,89,182.77Z"/><path d="M98.15,184.11a2.78,2.78,0,0,0,2.95,2.27,2.59,2.59,0,0,0,2.34-1.2h3.93a7.57,7.57,0,0,1-2.62,3.28,6.23,6.23,0,0,1-3.65,1.15,6.84,6.84,0,0,1-.07-13.68,6.57,6.57,0,0,1,4.86,2,7.17,7.17,0,0,1,1.8,6.14Zm5.77-2.91a3,3,0,0,0-5.73,0Z"/><path d="M123.39,189.2h-3.83v-1.39a4.28,4.28,0,0,1-3.79,1.83c-4.07,0-6.45-3.19-6.45-6.87a6.48,6.48,0,0,1,6.45-6.84,4.33,4.33,0,0,1,3.79,1.81v-1.37h3.83Zm-10.23-6.36a3.2,3.2,0,0,0,3.19,3.22,3,3,0,0,0,2.68-1.44,3.61,3.61,0,0,0,.53-1.64,3.27,3.27,0,0,0-.33-1.68,3,3,0,0,0-2.91-1.78,3.16,3.16,0,0,0-3.16,3.3Z"/><path d="M138.06,189.2h-3.58v-1.37a3.82,3.82,0,0,1-3.56,1.81c-4.35,0-4.79-3.52-4.79-5.25v-8H130v7c0,1.41.3,2.66,2,2.66,1.92,0,2.22-1.36,2.22-2.68v-7h3.84Z"/><path d="M153.78,184.32a6.88,6.88,0,0,1-13.58-1.57,6.86,6.86,0,0,1,13.56-1.43h-3.88a2.87,2.87,0,0,0-2.77-1.8,2.74,2.74,0,0,0-2.22.9,3.52,3.52,0,0,0-.83,2.35,3,3,0,0,0,3.05,3.26,3,3,0,0,0,2.77-1.71Z"/><path d="M155.28,182.75a6.91,6.91,0,1,1,6.91,6.84,6.69,6.69,0,0,1-6.91-6.84Zm3.84.05a3.07,3.07,0,1,0,3.07-3.26,3.11,3.11,0,0,0-3.07,3.26Z"/><path d="M183.14,189.2h-3.59v-1.37a3.79,3.79,0,0,1-3.55,1.81c-4.35,0-4.79-3.52-4.79-5.25v-8h3.84v7c0,1.41.3,2.66,2,2.66,1.92,0,2.22-1.36,2.22-2.68v-7h3.84Z"/><path d="M185.9,176.37h3.61v1.41a5.11,5.11,0,0,1,4.06-1.85c4.56,0,6.26,4,6.26,7,0,3.7-2.58,6.73-6.23,6.73a4.89,4.89,0,0,1-3.86-1.6v5.43H185.9Zm10.1,6.4a3.2,3.2,0,0,0-3.21-3.25,3.15,3.15,0,0,0-2.31,1,3.33,3.33,0,0,0-.91,2.33,3.22,3.22,0,0,0,.93,2.29,3.26,3.26,0,0,0,2.29.95A3.2,3.2,0,0,0,196,182.8Z"/><path d="M92.36,216.91H88.7v-1.39a4.18,4.18,0,0,1-3.88,1.81c-3.88,0-6.42-3-6.42-6.87,0-4.34,3.1-6.81,6.35-6.81a5,5,0,0,1,3.77,1.52v-5.36h3.84Zm-10.13-6.45a3.14,3.14,0,0,0,3.22,3.29,3.35,3.35,0,0,0,2.38-1,3.37,3.37,0,0,0,0-4.64,3.19,3.19,0,0,0-2.29-.9,3.15,3.15,0,0,0-3.26,3.21Z"/><path d="M98.26,211.83a2.79,2.79,0,0,0,3,2.26,2.58,2.58,0,0,0,2.33-1.2h3.93a7.48,7.48,0,0,1-2.61,3.28,6.24,6.24,0,0,1-3.65,1.16,6.84,6.84,0,0,1-.07-13.68,6.56,6.56,0,0,1,4.85,2,7.13,7.13,0,0,1,1.8,6.15Zm5.78-2.91a3,3,0,0,0-5.73,0Z"/><path d="M117.17,204.09h3.59v1.36a3.79,3.79,0,0,1,3.53-1.8c4.32,0,4.76,3.51,4.76,5.24v8h-3.84v-7c0-1.41-.3-2.66-2-2.66-1.89,0-2.19,1.36-2.19,2.68v7h-3.84Z"/><path d="M134.91,211.83a2.79,2.79,0,0,0,3,2.26,2.58,2.58,0,0,0,2.33-1.2h3.93a7.48,7.48,0,0,1-2.61,3.28,6.24,6.24,0,0,1-3.65,1.16,6.84,6.84,0,0,1-.07-13.68,6.56,6.56,0,0,1,4.85,2,7.16,7.16,0,0,1,1.81,6.15Zm5.78-2.91a3,3,0,0,0-5.73,0Z"/><path d="M159.65,212a6.89,6.89,0,0,1-13.59-1.57A6.87,6.87,0,0,1,159.63,209h-3.88a2.88,2.88,0,0,0-2.78-1.8,2.76,2.76,0,0,0-2.22.9,3.53,3.53,0,0,0-.83,2.36,3,3,0,0,0,3.05,3.26,3,3,0,0,0,2.78-1.72Z"/><path d="M162.51,207h-1.9v-2.91h1.9v-4.28h3.83v4.28h1.85V207h-1.85v9.91h-3.83Z"/><path d="M182.86,216.91H179v-1.39a4.26,4.26,0,0,1-3.79,1.83c-4.06,0-6.44-3.19-6.44-6.86a6.47,6.47,0,0,1,6.44-6.84,4.3,4.3,0,0,1,3.79,1.8v-1.36h3.84Zm-10.24-6.35a3.19,3.19,0,0,0,3.19,3.21,3,3,0,0,0,2.68-1.43,3.42,3.42,0,0,0,.53-1.65,3.18,3.18,0,0,0-.32-1.68,3,3,0,0,0-2.91-1.78,3.17,3.17,0,0,0-3.17,3.3Z"/><path d="M185.62,204.09h3.61v1.43a3.22,3.22,0,0,1,3.26-1.87v3.86h-.14c-2,0-2.89.71-2.89,2.51v6.89h-3.84Z"/><path d="M205.6,211.27h-3.95V199.81h3.95Zm0,5.64h-3.95V213h3.95Z"/><circle class="cls-1" cx="151.58" cy="152.99" r="143.21"/></svg>