<svg id="Calque_1" data-name="Calque 1" xmlns="http://www.w3.org/2000/svg" viewBox="0 0 612 608.79"><title>Plan de travail 1</title><path d="M595.71,60.83c-13.27-12.12-35-14.14-49.51-3L442.37,129.46q-70.62,48.47-105,75.72c-.66.55-1.42,1.19-2.26,1.91-9.14-5.93-20.62-9.74-34.87-9.74a74.56,74.56,0,0,0-7.45.38c-22.12-12.65-50.22-28.82-83.4-50.09L58.43,49.72c-14.49-9.09-36.21-7.07-48.29,5S.48,85.05,15,96.15L58,124.1a22.09,22.09,0,0,0-1.1,6.89v88.48A23.89,23.89,0,0,0,57,222.4c2.94,21.94,20.54,63.44,66.18,63.44a64.6,64.6,0,0,0,22.12-3.71V308a22.43,22.43,0,0,0,.6,5.15c5.44,22.73,25.4,61.22,65.77,61.22.37,0,.73,0,1.1,0,26.24-1.31,65.26-20.06,65.26-66.34V267.19a47.38,47.38,0,0,1,1.57-7.13c6.38,3.26,12.27,6.11,17.85,8.7a110.91,110.91,0,0,0,26.13,8.18c1.87,10,6.4,23.52,17.29,34.68,8.21,8.42,23.18,18.47,47.78,18.47,45.17,0,57.05-30.44,61.12-46.64,26.67-4.14,42.65-19.08,47.73-44.57,25.1-6.92,46-27.34,46-63.65V135.8l48.56-33.59C606.57,91.1,609,72.94,595.71,60.83ZM169.11,197.52a22.3,22.3,0,0,0-23.55,18.85c-.4,2.58-4.33,25.23-22.34,25.23-16.39,0-21.13-18.75-22.12-23.94v-65.5l66,42.92,4.49,2.78A22.42,22.42,0,0,0,169.11,197.52Zm64.72,68.41v42c0,18-15.62,21.49-22.71,22.12-12.37-.58-19.5-19.13-21.53-25.28V219.47a21.85,21.85,0,0,0-4.54-13.36c20.69,12.59,39.27,23.48,55.46,32.63a86.63,86.63,0,0,0-6.57,25.09C233.87,264.53,233.83,265.23,233.83,265.93Zm265.47-90.7c0,6.62,0,22.12-22.12,22.12a22.12,22.12,0,0,0-22.13,22.12c0,19.44-4,19.76-15.91,20.71-5.74.46-12.27,1-18.48,5.13-9.27,6.18-11.34,16.06-12.85,23.28-2.63,12.55-3.61,17.25-19.12,17.25-13.7,0-21.09-6.43-22-18.88a80.2,80.2,0,0,0,10.52-9.29,23.28,23.28,0,0,1,4.82-5.05c1.21-1,1.21-2,2.42-2v-1c0-1,0-1,1.21-2q36.22-28.77,101.43-72.69l12.24-8.47Z"/></svg>