<svg id="Calque_1" data-name="Calque 1" xmlns="http://www.w3.org/2000/svg" viewBox="0 0 612 608.79"><title>Plan de travail 1</title><path d="M295.49,275.07,335.38,315a153.9,153.9,0,0,1,10-23l-26.9-26.89A154.86,154.86,0,0,1,295.49,275.07Z"/><path d="M365.78,221.22c-10-9-34.2-29.85-56.45-43.12C294,168.9,285,166.7,280.26,166.46c-.86,0-1.72-.06-2.57-.06a49.07,49.07,0,0,0-49.22,47.8,51.78,51.78,0,0,0,49,53C299,268.39,344.51,237.38,365.78,221.22Z"/><path d="M431.82,104.3a10.32,10.32,0,1,0-10.31,10.31A10.32,10.32,0,0,0,431.82,104.3Z"/><path d="M379.91,221.79a5.53,5.53,0,0,1-2.09,4.11c-.91.72-8.6,6.79-19.65,14.55L370,252.27c7.75-11.05,13.82-18.75,14.54-19.65a5.48,5.48,0,0,1,4.11-2.09,5.38,5.38,0,0,1,4.27,1.74c.86.91,14.75,15.78,29.17,34.54,2.83-22.51-3.37-43.38-17.65-58.35-14.89-15.63-37-22.77-60.78-20.08,18.75,14.42,33.61,28.29,34.52,29.14A5.57,5.57,0,0,1,379.91,221.79Z"/><path d="M363.62,261.56l-14.75-14.75c-6.29,4.2-13.19,8.57-20.3,12.69l22.37,22.37C355.05,274.76,359.43,267.85,363.62,261.56Z"/><path d="M270.27,338.84a66.15,66.15,0,0,0,42.45,19.7l-61.36-61.35C252.86,313.33,259.25,327.83,270.27,338.84Z"/><path d="M506.14,178.62a10.32,10.32,0,1,0,10.31,10.32A10.32,10.32,0,0,0,506.14,178.62Z"/><path d="M306,8.16C142.12,8.16,9.27,141,9.27,304.89A295.62,295.62,0,0,0,90.14,508.37a5.52,5.52,0,0,1,8.25,6.81c-.18.37-.34.77-.51,1.15A295.69,295.69,0,0,0,306,601.62c163.88,0,296.73-132.85,296.73-296.73S469.88,8.16,306,8.16ZM115.92,485.77c-3.08,4.09-6,8.46-8.78,13A5.54,5.54,0,0,1,97.67,493c2.94-4.84,6.1-9.52,9.4-13.9a5.54,5.54,0,0,1,8.85,6.66Zm23.35-24.34a132.06,132.06,0,0,0-11.5,10.5,5.54,5.54,0,0,1-7.94-7.72,142.08,142.08,0,0,1,12.47-11.39,5.54,5.54,0,1,1,7,8.61Zm12-9.59a5.53,5.53,0,0,1-2.84-10.29,130.71,130.71,0,0,1,15.1-7.69A5.53,5.53,0,0,1,167.94,444a119.62,119.62,0,0,0-13.81,7A5.57,5.57,0,0,1,151.31,451.84Zm30.25,50.1a5.53,5.53,0,0,1-7.66-1.61A42.68,42.68,0,0,1,167.43,483a5.54,5.54,0,1,1,11-1.58,31.73,31.73,0,0,0,4.79,12.86A5.54,5.54,0,0,1,181.56,501.94Zm2.56-51.76a82.74,82.74,0,0,0-4.76,14.42,5.54,5.54,0,1,1-10.82-2.4A93.49,93.49,0,0,1,174,445.82a5.53,5.53,0,1,1,10.17,4.36Zm-.45-11.78a5.54,5.54,0,0,1-1.35-10.91l1.37-.34c2.53-4.16,5.36-8.45,8.44-12.77a5.54,5.54,0,0,1,9,6.43c-.89,1.26-1.76,2.5-2.6,3.74.17,0,.34,0,.51-.06a5.54,5.54,0,1,1,1.16,11A109.11,109.11,0,0,0,185,438.23,5.76,5.76,0,0,1,183.67,438.4Zm27.84,80.93a5.54,5.54,0,0,1-5.32,4,5.61,5.61,0,0,1-1.51-.21l-1.75-.51a48.13,48.13,0,0,1-14.57-7.29,5.53,5.53,0,1,1,6.51-9A37.55,37.55,0,0,0,206.09,512l1.6.46A5.54,5.54,0,0,1,211.51,519.33Zm-3.32-111.22a5.54,5.54,0,0,1-4.27-9.05c3.37-4.1,7-8.31,10.81-12.49a5.53,5.53,0,1,1,8.19,7.44c-3.67,4.06-7.19,8.12-10.45,12.08A5.5,5.5,0,0,1,208.19,408.11ZM213,429.27a5.58,5.58,0,0,1,6-5.09A95.7,95.7,0,0,1,236,427a5.54,5.54,0,0,1-1.42,10.9,5.41,5.41,0,0,1-1.43-.19,84.48,84.48,0,0,0-15-2.52A5.53,5.53,0,0,1,213,429.27Zm15-56.58c3.81-3.76,6.16-5.89,6.16-5.89a5.54,5.54,0,0,1,7.43,8.21s-2.25,2-5.82,5.56a5.47,5.47,0,0,1-3.88,1.6,5.54,5.54,0,0,1-3.89-9.48Zm14,153a62.93,62.93,0,0,1-12.39,1.18c-1.78,0-3.52-.07-5.25-.19a5.54,5.54,0,1,1,.74-11.05,57.28,57.28,0,0,0,14.7-.8,5.54,5.54,0,0,1,2.2,10.86Zm5.2-89a5.55,5.55,0,0,1,7.58-2A57.63,57.63,0,0,1,268.76,446a5.54,5.54,0,1,1-8.26,7.38,46.28,46.28,0,0,0-11.26-9A5.54,5.54,0,0,1,247.26,436.73Zm25.9,66a45.38,45.38,0,0,1-11.66,14.16,5.54,5.54,0,0,1-6.89-8.68,34.25,34.25,0,0,0,8.8-10.73,5.54,5.54,0,0,1,9.75,5.25ZM279.79,483a5.55,5.55,0,0,1-5.47,4.74,4.59,4.59,0,0,1-.81-.07,5.53,5.53,0,0,1-4.67-6.28,39.41,39.41,0,0,0,.41-5.57,33.46,33.46,0,0,0-1-8.35,5.54,5.54,0,0,1,10.73-2.76,44.68,44.68,0,0,1,1.39,11.11A48.92,48.92,0,0,1,279.79,483ZM506.14,210.32a21.38,21.38,0,0,1-19.85-13.53H464.06a43.35,43.35,0,0,1-33.7,35.07c4.31,14.48,4.66,30.61.74,47.17,3.82,5.41,7.49,10.93,10.75,16.4,8.43,14.13,12.74,25.32,13.19,34.21a60.18,60.18,0,0,1-58.47,63.41c-.61,0-1.24,0-1.85,0a62.77,62.77,0,0,1-51.21-26.88A95.34,95.34,0,0,1,318,369.88a76.53,76.53,0,0,1-50.81-18.83L258,360.24a5.54,5.54,0,1,1-7.83-7.83l9.08-9.09c-17.32-19.57-23.47-46.95-16.82-75.93a5.66,5.66,0,0,1,.59-1.27,62.74,62.74,0,0,1-25.67-52.26A60.17,60.17,0,0,1,280.8,155.4c8.9.44,20.08,4.76,34.21,13.19,5.43,3.24,10.93,6.88,16.3,10.68,16.5-3.74,32.69-3.27,47.21,1A43.49,43.49,0,0,1,416,146V124.87a21.39,21.39,0,1,1,11.08,0v21.24a43.41,43.41,0,0,1,37.53,39.6h20.49a21.35,21.35,0,1,1,21.07,24.61Z"/><path d="M332.45,327.69,282.74,278a38.13,38.13,0,0,1-4.31.28c-.51,0-1,0-1.52,0a61.77,61.77,0,0,1-24-6.17,89.8,89.8,0,0,0-1.46,9.53L328,358.11a86.18,86.18,0,0,0,9.85-1.83,61.71,61.71,0,0,1-5.59-22.75A35.41,35.41,0,0,1,332.45,327.69Z"/><path d="M421.16,156.75a32.3,32.3,0,0,0-32,27.54,75,75,0,0,1,37.23,37,32.47,32.47,0,0,0-5.2-64.52Z"/><path d="M343.28,333a51.68,51.68,0,0,0,53,49A49.08,49.08,0,0,0,444,330.19c-.24-4.77-2.45-13.69-11.63-29.08-13.29-22.27-34.13-46.41-43.13-56.45C373.07,265.93,342.21,311.33,343.28,333Z"/></svg>