<?xml version="1.0" encoding="utf-8"?>
<!-- Generator: Adobe Illustrator 22.1.0, SVG Export Plug-In . SVG Version: 6.00 Build 0)  -->
<svg version="1.1" id="Calque_1" xmlns="http://www.w3.org/2000/svg" xmlns:xlink="http://www.w3.org/1999/xlink" x="0px" y="0px"
	 viewBox="0 0 1281 781" style="enable-background:new 0 0 1281 781;" xml:space="preserve">
<style type="text/css">
	.st0{fill:#010101;}
	.st1{fill:none;}
	.st2{fill:#23B4B1;}
	.st3{fill:#FBCB00;}
</style>
<title>Plan de travail 1</title>
<circle class="st0" cx="840.8" cy="403.9" r="6"/>
<path class="st0" d="M860.3,403.5c-2.5,2.2-2.8,6-0.6,8.5c2.2,2.5,6,2.8,8.5,0.6c2.5-2.2,2.8-6,0.6-8.5c0,0,0,0,0,0
	C866.5,401.5,862.7,401.3,860.3,403.5z"/>
<g>
	<path class="st1" d="M733.4,303.8c-20.6,1.7-41.1,4.9-61.3,9.6l65.9,23.2L733.4,303.8z"/>
	<path class="st1" d="M807,361l-15.2-56.5c-14.1-1.6-28.2-2.2-42.3-1.6l5.7,39.8L807,361z"/>
	<path class="st1" d="M808.9,468.5c0,1.1,0.1,2.1,0.2,3.2c0.6-1,1.3-1.9,2-2.8L808.9,468.5z"/>
	<path class="st1" d="M803.8,540.8l20.9-13.4l-12.3-25.5C808.5,512.3,805.4,525.1,803.8,540.8z"/>
	<path class="st1" d="M900,473.3c9.9,1.7,17-9.2,18.1-15.8c1.2-7-3-14-6.4-19.6c-0.8-1.3-1.5-2.6-2.2-3.7c0-0.1-0.1-0.1-0.1-0.2
		c-1.3-2.7-0.2-6,2.5-7.4c3.8-2,6.4-5.6,7.1-9.8c1.2-7-2.8-13.6-9.1-14.7c-3.7-0.7-6.6-0.2-8.8,1.5c-3.9,2.9-4.8,8.8-4.8,8.8
		l-7.6,43.3C889.4,458.8,891.9,471.9,900,473.3z"/>
	<path class="st1" d="M845.2,458.7l0.4,1c-0.1,0.1-2.2,0.9-5.4,3.1l9.2,1.6C847.9,462.6,846.5,460.7,845.2,458.7z"/>
	<polygon class="st1" points="833,519.2 850.8,501.9 822.2,496.9 	"/>
	<path class="st1" d="M817.3,444l-4.5-0.8l-0.1,0.8C814.3,444,815.8,444,817.3,444z"/>
	<path class="st1" d="M875.5,467.7l2.3-13.1l-18.1-3.2C864,457.8,869.4,463.3,875.5,467.7z"/>
	<path class="st1" d="M665.8,328.3c9.8,13.4,19.1,25.3,28.1,35.9l32.3-14.6L665.8,328.3z"/>
	<path class="st1" d="M957.2,485.7c4.8,7.6,23.9,32.7,72.1,42l-10.8-66l-28.3-11.2v0C982.9,465.2,971.4,477.5,957.2,485.7z"/>
	<path class="st1" d="M1030.9,300.7l-69.8,19l-7.2,19.3c14.3,7.4,26.2,18.8,34.1,32.7C1012,351.8,1024.9,326.7,1030.9,300.7z"/>
	<path class="st1" d="M995.4,388.8c4.6,15.1,4.8,31.3,0.6,46.6l27.9,11.1l50.8-47.3C1049.7,383.5,1022.4,376.6,995.4,388.8z"/>
	<path class="st1" d="M1088.3,408.6l-47.7,44.4l45.4,18l36-30.3C1111.7,429,1100.4,418.2,1088.3,408.6z"/>
	<path class="st1" d="M1168.7,503.8c-11-17.7-23.1-34.7-36.2-50.9l-29.5,24.8L1168.7,503.8z"/>
	<path class="st1" d="M1103,495.2l14.5,31.7c13.2-2.1,27.3-5.1,42.5-9.2L1103,495.2z"/>
	<path class="st1" d="M968,301l65.9-17.8l0-0.1c1.8-16.8,1.6-33.7-0.5-50.4l-48,21.7L968,301z"/>
	<path class="st1" d="M969.7,249.9l-30.5-37.7c-10.9,10.9-20.6,22.9-28.9,36l40.8,52L969.7,249.9z"/>
	<path class="st1" d="M890.6,333.2c15.7-4.9,32.6-5,48.3-0.3l5.5-15l-42.7-54.4C884.3,299.4,888.9,326.1,890.6,333.2z"/>
	<path class="st1" d="M976.2,232.3l25.7-69.3c-18.1,11.2-35.1,23.9-51,38L976.2,232.3z"/>
	<path class="st1" d="M1103.1,399.7c36-35.5,62.7-85.9,71.8-104.5l0-0.1c-57.4-24.9-115.4-17.7-124.5-16.3
		c-2.5,30.6-12.1,61.8-34.4,88C1047.2,363.7,1077.1,378.4,1103.1,399.7z"/>
	<path class="st1" d="M872.7,317.1c-0.2-20.2,5-52,31.3-88.4c-36.5-39.5-82.2-60.6-99.7-67.7c-23.9,66.4-15.7,115.6-13.2,126.9
		C820.3,291.2,849.1,299.7,872.7,317.1z"/>
	<path class="st1" d="M1030.8,216.1c-3.1-16.7-7.5-33.2-13.1-49.2l-24.5,66.2L1030.8,216.1z"/>
	<path class="st1" d="M856.6,591.8l-26.7,77.1c15.9-10.7,31.2-22.3,45.8-34.8L856.6,591.8z"/>
	<path class="st1" d="M798.6,461.1l0.1-0.8c-4.3,2.9-9.5,4.8-15.5,3.7c-10.5-1.8-16.8-9.9-19.6-18.7c-9.4-5-19.5-11.6-30.4-20.1
		c-10.6,8.6-51,44.2-80,106c21.6,5.8,79.8,18.7,134.2,8.2c2.2-23,7.5-40.6,13.9-54.1C798.1,477.8,797.1,469.4,798.6,461.1z"/>
	<path class="st1" d="M963.5,517c0.6,28.5-12.2,56-30.4,80.4c2.1,1.8,3.5,4.1,4.2,6.7c13.2,15.9,45.3,48.3,94.4,59.5v0
		c8.9-12.3,34.1-54.4,18.2-115.4C1007.1,544.8,979.9,530.6,963.5,517z"/>
	<path class="st1" d="M943.2,494.3l0.2-0.1c-0.4-0.7-0.8-1.4-1.1-1.9c-16.7,5.7-34.7,5.9-51.6,0.7l-2.9,8.4l45.4,66
		C946.2,544,951.9,519,943.2,494.3z"/>
	<path class="st1" d="M864.3,569.5l24,53.1l0,0c13-12.2,25.5-25.9,35.7-40.4l-42.7-61.9L864.3,569.5z"/>
	<path class="st1" d="M863.8,521.5l-61,39l-0.1-0.2c-0.2,13,0.5,26,2,38.9L845,576L863.8,521.5z"/>
	<path class="st1" d="M893.2,396c0.5-0.5,1-0.9,1.5-1.4c4.7-3.5,10.5-4.6,17.2-3.5c12.2,2.1,20.3,14.5,18,27.5
		c-1,5.6-3.8,10.7-8.1,14.5c3.8,6.4,9,15.7,7.2,26.2c-1.3,7.6-6.4,16.4-14,21.3c9.4,0.1,19-1.9,28.1-6c34-15.4,49.1-55.4,33.8-89.4
		c0,0,0,0,0,0c-15.4-34-55.4-49.1-89.4-33.8c-9.2,4.2-17.1,10.2-23.3,17.4C877.2,372.7,888.2,382.4,893.2,396z"/>
	<path class="st1" d="M807,616.6c2.1,13.4,4.9,28,8.8,43.8l21.1-61L807,616.6z"/>
	<path class="st1" d="M791.5,372.6l-43.3-15.3l-43.2,19.5h0c8.7,9.6,18,18.8,27.8,27.4l45.3-20.5C781.1,378.4,786,374.4,791.5,372.6
		z"/>
	<path class="st1" d="M778.2,408c-1-1.8-1.7-3.6-2.3-5.5l-29.1,13.1c5.7,4.3,11.2,8,16.4,11.2C766,418.2,773,412.2,778.2,408z"/>
	<path class="st1" d="M1081.5,486.6l-45.5-18l10,61.5c18.3,1.7,36.6,1.4,54.8-0.9L1081.5,486.6z"/>
	<path class="st1" d="M845.2,367.7c7.4-11.4,17.5-20.9,29.4-27.6c-17.6-17.5-40.6-27.5-65.2-32.7l16.1,60.1l9.1,3.2
		c0.8-0.3,1.6-0.7,2.4-0.9C839.7,368.8,842.4,368.1,845.2,367.7z"/>
	<path class="st2" d="M1189.7,527.5l9.3-2.9l-5.2-10c-2.3-4.3-33.4-62.1-78.5-104.3c46.4-46,76.4-112.8,77.8-115.8l3.2-7.2l-7.1-3.4
		c-59.7-28.8-120.7-23.8-138.1-21.5c0.3-63.5-25.9-120.6-26.3-121.6l-3.7-7.9l-7.6,4.3c-46.8,26.5-78.3,53.5-99.5,78.7
		c-48.4-51.3-109.2-72-111.9-72.9l-7.3-2.4l-2.8,7.2c-26.4,67.7-21.2,119.6-17.7,139c-65.4-3.1-128,16.5-132.3,17.9l-10.3,3.3l6,8.9
		c30.5,45,58.2,76.3,82.7,97.9c-15.2,12.7-56.9,51.8-86,118.5l-3.6,8.2l8.5,2.8c3.2,1,76,24.2,147,11.9
		c-0.9,33.9,4.3,77.6,20.5,134.3l2.8,9.9l9-5.1c3.8-2.2,52.6-30.6,92.6-72.2v462.2c-0.2,7.3,5.6,13.4,12.9,13.6
		c7.3,0.2,13.4-5.6,13.6-12.9c0-0.2,0-0.5,0-0.7V628.6c19.1,18.9,51,43.2,95.6,51.8l4.6,0.9l3.1-3.5c1.9-2.1,43.5-51.5,25.6-128.9
		C1099.3,549.1,1139.7,543.3,1189.7,527.5z M1117.5,526.9L1117.5,526.9C1117.5,526.9,1117.5,526.9,1117.5,526.9l-14.5-31.7l57,22.6
		C1144.8,521.8,1130.6,524.8,1117.5,526.9L1117.5,526.9z M1168.7,503.8l-65.7-26l29.5-24.8C1145.7,469.1,1157.8,486,1168.7,503.8z
		 M1122,440.6L1122,440.6L1122,440.6C1122,440.6,1122,440.6,1122,440.6l-36,30.3l-45.4-18l47.7-44.4
		C1100.4,418.2,1111.7,429,1122,440.6z M990.2,450.5L990.2,450.5l28.3,11.2l10.8,66c-48.2-9.3-67.2-34.4-72.1-42
		C971.4,477.5,982.9,465.2,990.2,450.5z M988.1,371.7c-8-14-19.8-25.4-34.1-32.7l7.2-19.3l69.8-19
		C1024.9,326.7,1012,351.8,988.1,371.7z M1023.9,446.5L996,435.4c4.2-15.3,4-31.4-0.6-46.6c27.1-12.2,54.3-5.3,79.3,10.4
		L1023.9,446.5z M1174.8,295.1L1174.8,295.1c-9.1,18.7-35.7,69.2-71.8,104.6c-26-21.3-55.9-36.1-87.2-32.9
		c22.3-26.2,31.9-57.4,34.4-88C1059.4,277.4,1117.4,270.3,1174.8,295.1z M1033.8,283.1l0,0.1L968,301l17.3-46.7l48-21.7
		C1035.4,249.4,1035.6,266.3,1033.8,283.1z M1017.7,166.9c5.6,16,10,32.5,13.1,49.2l-37.6,17L1017.7,166.9z M1001.9,163L1001.9,163
		C1001.9,163,1001.9,163,1001.9,163l-25.7,69.3l-25.3-31.2C966.8,186.9,983.8,174.2,1001.9,163L1001.9,163z M939.2,212.2l30.5,37.7
		l-18.6,50.3l-40.8-52C918.6,235.1,928.2,223.1,939.2,212.2z M944.5,317.9l-5.5,15c-15.8-4.7-32.6-4.6-48.3,0.3
		c-1.7-7.1-6.3-33.8,11.2-69.7L944.5,317.9z M804.3,161c17.5,7.1,63.2,28.2,99.7,67.7c-26.3,36.5-31.6,68.3-31.3,88.4
		c-23.5-17.4-52.3-25.9-81.5-29.2C788.7,276.6,780.4,227.4,804.3,161z M791.9,304.5L807,361l-51.8-18.3l-5.7-39.8
		C763.7,302.3,777.8,302.9,791.9,304.5z M733.4,303.8l4.6,32.8l-65.9-23.2C692.2,308.7,712.7,305.5,733.4,303.8z M693.9,364.2
		c-9-10.6-18.4-22.5-28.1-35.9l60.4,21.3L693.9,364.2z M653.2,531.2c29-61.8,69.4-97.4,80-106c10.9,8.5,21,15.1,30.4,20.1
		c-1.6-5.2-2-10.6-1.2-15.1c0.2-1.2,0.5-2.3,0.8-3.4c-5.2-3.2-10.7-6.9-16.4-11.2l29.1-13.1c-1-3.5-1.2-7.2-0.5-10.9
		c0.5-2.8,1.5-5.5,2.8-7.9l-45.3,20.5c-9.8-8.6-19-17.7-27.8-27.4h0l43.2-19.5l43.3,15.3c3.2-1,6.7-1.3,10.3-0.7
		c6.8,1.2,11.9,4.3,15.2,9.2c0.4,0.6,0.8,1.3,1.1,2c4.5-5.4,10.1-9.7,16.6-12.4l-9.1-3.2l-16.1-60.1c24.6,5.2,47.5,15.2,65.2,32.7
		c-11.9,6.7-22,16.2-29.4,27.6c6.5-1,13-0.5,19.1,1.2c6.2-7.2,14-13.2,23.3-17.4c34-15.4,74-0.2,89.4,33.8c0,0,0,0,0,0
		c15.3,34,0.2,74-33.8,89.4c-9.1,4.1-18.7,6-28.1,6c-4.7,3-10.4,4.6-16.8,3.4c-5.3-1-9.9-4-13-8.4l-0.1,0.5
		c-2.5,14.5-12.2,26.7-25.6,32.5l-24.3,23.7c-0.4,0.4-0.9,0.8-1.4,1c-2.7,1.3-6,0.2-7.3-2.6l-1.7-3.5l-20.9,13.4
		c1.6-15.7,4.7-28.5,8.6-38.9l-0.8-1.6c-4.5-4.3-8-9.4-10.4-14.9c-6.4,13.4-11.7,31.1-13.9,54.1C733,549.9,674.8,537,653.2,531.2z
		 M804.7,599.2c-1.5-12.9-2.2-25.9-2-38.9l0.1,0.2l61-39L845,576L804.7,599.2z M815.8,660.3c-3.8-15.8-6.7-30.3-8.8-43.8l29.9-17.2
		L815.8,660.3z M829.9,668.9L829.9,668.9C829.9,668.8,829.9,668.8,829.9,668.9l26.7-77.1l19.1,42.2
		C861.2,646.5,845.9,658.1,829.9,668.9L829.9,668.9z M888.3,622.7L888.3,622.7l-24-53.1l17-49.2l42.7,61.9
		C913.8,596.8,901.3,610.4,888.3,622.7z M887.9,501.3l2.9-8.4c16.8,5.2,34.9,5,51.6-0.7c0.3,0.6,0.7,1.2,1.1,1.9l-0.2,0.1
		c8.6,24.8,2.9,49.7-10,73.1L887.9,501.3z M1031.7,663.5L1031.7,663.5c-49-11.1-81.2-43.6-94.4-59.5c-0.7-2.6-2.2-5-4.2-6.7
		c18.2-24.5,31-51.9,30.4-80.4c16.4,13.6,43.6,27.9,86.4,31.1C1065.8,609.2,1040.6,651.3,1031.7,663.5z M1046,530.1l-10-61.5
		l45.5,18l19.4,42.7C1082.6,531.5,1064.3,531.8,1046,530.1z"/>
	<polygon class="st2" points="1117.5,526.9 1117.5,526.9 1117.5,526.9 	"/>
	<path class="st2" d="M1001.9,163L1001.9,163C1001.9,163,1001.9,163,1001.9,163L1001.9,163z"/>
	<path class="st2" d="M1122,440.6L1122,440.6C1122,440.6,1122,440.6,1122,440.6L1122,440.6z"/>
	<polygon class="st2" points="829.9,668.9 829.9,668.8 829.9,668.8 	"/>
	<path class="st3" d="M853.1,424.5c1.2-0.8,2-2,2.3-3.4c0,0,0,0,0,0c0-0.1,0.1-0.1,0.2-0.1c0,0,0,0,0,0c0,0,0,0,0,0
		c-0.1,0-0.2,0-0.2,0.1C855,422.4,854.2,423.6,853.1,424.5c-1.3,0.8-2.8,1-4.2,0.7c0,0,0,0,0,0C850.2,425.5,851.8,425.3,853.1,424.5
		z"/>
	<path class="st0" d="M868.2,412.4L868.2,412.4C868.2,412.4,868.2,412.4,868.2,412.4c2.5-2.2,2.7-6,0.5-8.4c0,0,0,0,0,0
		c-2.2-2.5-6-2.7-8.5-0.5c-2.5,2.2-2.7,6-0.5,8.5C861.9,414.4,865.7,414.6,868.2,412.4z"/>
	<path class="st3" d="M846.1,427.8c-0.2-0.1-0.3-0.2-0.5-0.3C845.7,427.6,845.9,427.7,846.1,427.8z"/>
	<path class="st3" d="M848.8,425.2c-0.6-0.1-1.1-0.3-1.7-0.6C847.7,424.9,848.3,425.1,848.8,425.2
		C848.8,425.2,848.8,425.2,848.8,425.2z"/>
	<path class="st3" d="M847.7,428.6C847.7,428.6,847.7,428.5,847.7,428.6C847.7,428.5,847.7,428.6,847.7,428.6z"/>
	<path class="st3" d="M844.2,426.2c-0.2-0.2-0.3-0.5-0.5-0.7C843.9,425.7,844,425.9,844.2,426.2z"/>
	<path class="st3" d="M847.2,428.4c-0.1,0-0.2-0.1-0.3-0.1C847,428.3,847.1,428.3,847.2,428.4z"/>
	<path class="st3" d="M846.6,428.1c-0.1-0.1-0.3-0.1-0.4-0.2C846.3,428,846.5,428,846.6,428.1z"/>
	<path class="st3" d="M844.3,419.1L844.3,419.1c0.1-0.1,0.2-0.1,0.3-0.1c0,0,0,0,0,0C844.5,419,844.4,419,844.3,419.1L844.3,419.1
		c-1.5,1.5-1.9,3.8-1,5.7c0.1,0.2,0.2,0.4,0.3,0.6c-0.1-0.2-0.2-0.4-0.3-0.6C842.4,422.9,842.8,420.6,844.3,419.1z"/>
	<path class="st0" d="M845.2,399.8c-2.3-2.4-6.1-2.5-8.5-0.2c-2.4,2.3-2.5,6.1-0.2,8.5c0,0,0,0,0,0c2.3,2.4,6.1,2.5,8.5,0.2
		C847.4,405.9,847.4,402.2,845.2,399.8z"/>
	<path class="st3" d="M844.6,426.6c0.1,0.1,0.1,0.1,0.2,0.2c0.2,0.2,0.5,0.5,0.8,0.7C845.2,427.2,844.9,426.9,844.6,426.6z"/>
	<path class="st0" d="M789,378c0.3,0.1,0.7,0.2,1.2,0.3l7.6-3.4l-6.3-2.2c-5.6,1.8-10.4,5.8-13.4,11.1l8.7-3.9
		C787.7,378.5,788.5,377.7,789,378z"/>
	<path class="st0" d="M845.2,367.7c-2.7,0.4-5.5,1.1-8.2,2.1c-0.8,0.3-1.6,0.6-2.4,0.9l7.2,2.5C842.9,371.3,844,369.5,845.2,367.7z"
		/>
	<path class="st0" d="M781,392c0,0,3.3-8.4,5.9-12.2l-8.7,3.9c-1.3,2.4-2.3,5-2.8,7.9c-0.6,3.6-0.5,7.4,0.5,10.9l6.5-2.9L781,392z"
		/>
	<path class="st0" d="M793.4,457.2c4.1,1,8,1.8,11.6,2.2V453L793.4,457.2z"/>
	<path class="st0" d="M816,493.2c1.3-2.8,2.7-5.4,4.1-7.8l-7.3-1.3c-2.1-3.8-3.4-8.1-3.8-12.4c-0.9,1.4-1.9,2.9-2.8,4.4L815,491
		L816,493.2z"/>
	<path class="st0" d="M904,481l1.3-1.1c-1.1-0.2-2.1-0.3-3.1-0.5L904,481z"/>
	<path class="st0" d="M929.9,418.7c2.3-13-5.8-25.3-18-27.5c-6.8-1.2-12.5,0-17.2,3.5c-0.5,0.4-1.1,0.9-1.5,1.4
		c-5-13.7-16-23.3-28.9-27.1c-6.1-1.8-12.6-2.3-19.1-1.2c-1.2,1.8-2.3,3.7-3.3,5.6l-7.2-2.5c-6.4,2.8-12.1,7-16.6,12.4
		c-0.3-0.7-0.7-1.4-1.1-2c-3.2-4.9-8.4-8-15.2-9.2c-3.5-0.6-7-0.3-10.3,0.7l6.3,2.2l-7.6,3.4c-0.5-0.1-1-0.2-1.2-0.3
		c-0.5-0.3-1.3,0.5-2.1,1.8c-2.5,3.8-5.9,12.2-5.9,12.2l1.4,7.6l-6.5,2.9c0.5,1.9,1.3,3.8,2.3,5.5c-5.2,4.2-12.1,10.2-14.9,18.8
		c-0.3,1.1-0.6,2.2-0.8,3.4c-0.8,4.5-0.4,9.9,1.2,15.1c2.8,8.7,9.1,16.8,19.6,18.7c6,1.1,11.2-0.8,15.5-3.7l-0.1,0.8
		c-1.5,8.3-0.4,16.7,2.7,24.3c2.3,5.6,5.8,10.7,10.4,14.9l0.8,1.6l12.3,25.5l1.7,3.5c1.3,2.7,4.6,3.9,7.3,2.6c0.5-0.3,1-0.6,1.4-1
		l24.3-23.7c13.5-5.8,23.1-18,25.6-32.5l0.1-0.5c3.1,4.4,7.7,7.4,13,8.4c6.4,1.1,12.1-0.4,16.8-3.4c7.7-4.9,12.7-13.7,14-21.3
		c1.8-10.5-3.4-19.8-7.2-26.2C926.1,429.4,929,424.3,929.9,418.7z M785,453.2c-9.9-1.7-12.9-14.1-11.9-20.8c0-0.1,0-0.2,0-0.3
		c1.2-7,7.6-12.1,12.7-16.3c1.2-1,2.3-1.9,3.3-2.8c2.3-2,2.5-5.5,0.5-7.8c-0.1-0.1-0.1-0.2-0.2-0.2c-1.9-2-3.1-4.6-3.5-7.2
		c-0.2-1.4-0.2-2.9,0.1-4.4c1.2-7,7.4-11.9,13.7-10.8c3.8,0.7,6.3,2.1,7.9,4.4c0.2,0.2,0.3,0.5,0.5,0.7c2.2,4,1.1,9.1,1,9.4
		l-7.5,43.1c-0.3,0.5-0.7,1.2-1.2,2.1C797.8,446.7,791.8,454.4,785,453.2z M805,459.4c-3.6-0.5-7.5-1.2-11.6-2.2L805,453V459.4z
		 M833,519.2l-10.8-22.3l28.6,5L833,519.2z M870.9,483.9c-1.8,3.4-4.2,6.5-7.1,9.1l-43.6-7.6c-1.4,2.4-2.8,5-4.1,7.8l-1-2.2
		l-8.8-14.9c0.9-1.5,1.9-3,2.8-4.4c-0.1-1-0.2-2.1-0.2-3.2l2.1,0.4l18.7,3.3l32.7,5.7l10.3,1.8C872.2,481.2,871.6,482.6,870.9,483.9
		z M875.5,467.7l-0.2,1.3l-25.9-4.5l-9.2-1.6l-29.9-5.2l2.4-13.7l0.1-0.8l4.5,0.8l42.4,7.4l18.1,3.2L875.5,467.7z M884.9,413.5
		c-0.1,1.1-0.3,2.2-0.6,3.3v0l-4.7,27l-26.7-4.7l-18.2-3.2l-20.1-3.5l4.7-27c1-7.7,4.5-14.5,9.7-19.5c6.9-6.8,16.8-10.5,27.1-9.2
		c0.7,0.1,1.3,0.2,2,0.3C875.2,380.2,887.1,396.1,884.9,413.5z M904,481l-1.8-1.6c1,0.2,2.1,0.4,3.1,0.5L904,481z M919.1,416.8
		c-0.7,4.2-3.3,7.8-7.1,9.8c-2.7,1.3-3.9,4.6-2.5,7.4c0,0.1,0.1,0.1,0.1,0.2c0.6,1.1,1.4,2.4,2.2,3.7c3.4,5.6,7.6,12.6,6.4,19.6
		c-1.2,6.6-8.2,17.5-18.1,15.8c-8.1-1.4-10.7-14.6-11.2-17.7l7.6-43.3c0,0,0.9-5.9,4.8-8.8c2.2-1.6,5.1-2.1,8.8-1.5
		C916.2,403.1,920.3,409.8,919.1,416.8z"/>
	<path class="st0" d="M852.7,428.2c0.8-0.3,1.4-0.8,2-1.4c1.5-1.5,2-3.7,1-5.7l-0.1-0.1c0,0-0.1-0.1-0.1-0.1c0,0,0,0,0,0
		c0,0,0.1,0,0.1,0l0.1,0.1c1,1.9,0.5,4.2-1,5.7l0,0c-1.4,1.4-3.2,2.1-5.1,2.1c0,0,0,0,0,0C850.6,428.9,851.7,428.7,852.7,428.2z"/>
	<path class="st0" d="M845.6,427.5C845.6,427.5,845.5,427.5,845.6,427.5C845.5,427.5,845.6,427.5,845.6,427.5z"/>
	<path class="st0" d="M846.9,428.3c-0.1,0-0.2-0.1-0.3-0.1C846.7,428.2,846.8,428.2,846.9,428.3z"/>
	<path class="st0" d="M847.7,428.5c-0.2-0.1-0.4-0.1-0.5-0.2C847.3,428.4,847.5,428.5,847.7,428.5z"/>
	<path class="st0" d="M847.7,428.6c0.6,0.2,1.2,0.3,1.9,0.3c0,0,0,0,0,0C849,428.8,848.3,428.7,847.7,428.6z"/>
	<path class="st0" d="M843.7,425.5c0,0,0-0.1-0.1-0.1C843.7,425.4,843.7,425.4,843.7,425.5z"/>
	<path class="st0" d="M846.2,427.9c-0.1,0-0.1-0.1-0.2-0.1C846.1,427.8,846.2,427.9,846.2,427.9z"/>
	<path class="st0" d="M844.6,426.6c-0.1-0.1-0.3-0.3-0.4-0.4C844.3,426.3,844.5,426.5,844.6,426.6z"/>
	<path class="st0" d="M845.6,423.1c0.4,0.6,1,1.1,1.6,1.4C846.6,424.2,846.1,423.7,845.6,423.1c-0.8-1.1-1.1-2.6-1-4
		c0,0,0-0.1,0-0.1c0,0,0,0,0,0c0,0,0,0.1,0,0.1C844.4,420.6,844.8,422,845.6,423.1z"/>
	<path class="st0" d="M855.4,421C855.4,421,855.4,421,855.4,421c-0.3,1.4-1.1,2.6-2.3,3.4c-1.3,0.8-2.8,1.1-4.2,0.8
		c0.2,1.2,0.5,2.4,0.8,3.6c1.8,0,3.7-0.7,5.1-2.1l0,0c1.6-1.5,2-3.8,1-5.7l-0.1-0.1c0,0,0,0-0.1,0C855.5,420.9,855.4,421,855.4,421z
		"/>
	<path class="st0" d="M848.8,425.2c-0.6-0.1-1.1-0.3-1.7-0.7c-0.6-0.4-1.1-0.8-1.6-1.4c-0.8-1.2-1.2-2.6-1-4c0,0,0-0.1,0-0.1
		c-0.1,0-0.1,0-0.2,0l-0.1,0.1c-1.5,1.5-1.9,3.8-0.9,5.7c0.1,0.2,0.2,0.4,0.3,0.6c0,0,0,0.1,0.1,0.1c0.1,0.2,0.3,0.5,0.5,0.7
		c0.1,0.2,0.2,0.3,0.4,0.4c0.3,0.3,0.6,0.6,0.9,0.8c0,0,0,0,0,0c0.2,0.1,0.3,0.2,0.5,0.3c0.1,0,0.1,0.1,0.2,0.1
		c0.1,0.1,0.3,0.1,0.4,0.2c0.1,0.1,0.2,0.1,0.3,0.1c0.1,0,0.2,0.1,0.3,0.1c0.2,0.1,0.3,0.1,0.5,0.2c0,0,0,0,0,0
		c0.6,0.2,1.2,0.3,1.9,0.3C849.3,427.6,849.1,426.4,848.8,425.2z"/>
</g>
<circle class="st2" cx="842.5" cy="473.5" r="4.3"/>
<circle class="st2" cx="856.5" cy="484.5" r="3.4"/>
<circle class="st2" cx="868.5" cy="468.5" r="4.3"/>
<circle class="st2" cx="824.5" cy="489.5" r="5.1"/>
<circle class="st2" cx="940.5" cy="458.5" r="5.1"/>
</svg>
