<?xml version="1.0" encoding="utf-8"?>
<!-- Generator: Adobe Illustrator 22.1.0, SVG Export Plug-In . SVG Version: 6.00 Build 0)  -->
<svg version="1.1" id="Calque_1" xmlns="http://www.w3.org/2000/svg" xmlns:xlink="http://www.w3.org/1999/xlink" x="0px" y="0px"
	 viewBox="0 0 1297.4 794.3" style="enable-background:new 0 0 1297.4 794.3;" xml:space="preserve">
<style type="text/css">
	.st0{fill:#010101;}
	.st1{fill:#23B4B1;}
</style>
<title>Plan de travail 1</title>
<path class="st0" d="M-25.1,542.7c2.4,1,5,1.5,7.6,1.5c2.6,0,5.2-0.5,7.6-1.5c4.9-2,8.8-5.9,10.8-10.7c4.2-10.1-0.6-21.8-10.7-26
	c-10.1-4.2-21.8,0.6-26,10.7c-2,4.9-2,10.4,0,15.2C-33.8,536.8-29.9,540.6-25.1,542.7z M-30.3,518.9c2.2-5.2,7.3-8.6,12.9-8.6
	c1.8,0,3.6,0.4,5.3,1.1c7.1,3,10.5,11.1,7.5,18.2c-1.4,3.4-4.1,6.1-7.6,7.5c-3.4,1.4-7.3,1.4-10.7,0c-3.4-1.4-6.1-4.1-7.5-7.6
	C-31.8,526.2-31.8,522.3-30.3,518.9z"/>
<path class="st0" d="M99.9,560.1c-14.2,0-25.7,11.5-25.7,25.7s11.5,25.7,25.7,25.7c14.2,0,25.7-11.5,25.7-25.7c0,0,0,0,0,0
	C125.6,571.6,114.1,560.1,99.9,560.1z M99.9,605.5c-10.9,0-19.7-8.8-19.7-19.7c0-10.9,8.8-19.7,19.7-19.7c10.9,0,19.7,8.8,19.7,19.7
	c0,0,0,0,0,0C119.6,596.6,110.8,605.5,99.9,605.5L99.9,605.5z"/>
<path class="st0" d="M155.7,585.8c0-7.9-4.6-15-11.7-18.3c3.8-10.4-1.5-22-11.9-25.8c-4.5-1.7-9.4-1.7-13.9,0
	c-4.6-10.1-16.6-14.5-26.7-9.9c-4.4,2-7.9,5.5-9.9,9.9c-10.4-3.8-22,1.5-25.8,11.9c-1.7,4.5-1.7,9.4,0,13.9
	c-10.1,4.7-14.5,16.6-9.8,26.7c2,4.3,5.5,7.8,9.8,9.8c-3.8,10.4,1.5,22,11.9,25.8c4.5,1.7,9.4,1.7,13.9,0
	c2.8,6.2,8.6,10.5,15.3,11.5v40.9c-2.4-1.5-4.5-3.3-6.2-5.5c0.7-3.3,1.7-11.8-3.2-18.4c-3.9-5.2-10.5-7.8-19.7-7.8
	c-1.4,0-2.5,0.9-2.9,2.2c-0.1,0.5-3.1,12.2,3.4,20.3c3.7,4.7,9.6,7.1,17.6,7.2c1.5,2,4.7,5.4,11.1,8.9v13.4H-14.5V656
	c7.8-4.2,11.6-8.3,13.2-10.6c9.3-0.1,16.1-2.8,20.4-8.2c7.4-9.3,4-22.8,3.8-23.4c-0.4-1.3-1.5-2.2-2.9-2.2c-10.5,0-18.1,3-22.6,9
	c-5.8,7.7-4.4,17.7-3.6,21.3c-0.9,1.3-3.3,4.1-8.4,7.2v-49.2c8-1,14.9-6.2,18.1-13.6c11.9,4.7,25.2-1.2,29.9-13
	c2.1-5.4,2.1-11.4,0-16.8c11.7-5.1,17-18.7,11.9-30.4c-2.3-5.3-6.6-9.6-11.9-11.9c4.7-11.9-1.2-25.2-13-29.9
	c-5.4-2.1-11.4-2.1-16.8,0c-3.7-8.4-12-13.8-21.1-13.8c-9.2,0-17.5,5.4-21.1,13.8c-8.5-3.3-18.2-1.3-24.7,5.2
	c-6.5,6.5-8.5,16.2-5.2,24.7c-8.4,3.7-13.8,12-13.8,21.1c0,9.2,5.4,17.5,13.8,21.1c-3.3,8.5-1.3,18.2,5.2,24.7
	c6.5,6.5,16.2,8.5,24.7,5.2c3.2,7.4,10.1,12.6,18.2,13.6v49.2c-5-3.2-7.5-6-8.4-7.2c0.8-3.6,2.2-13.6-3.6-21.3c-4.5-6-12.1-9-22.6-9
	c-1.4,0-2.5,0.9-2.9,2.2c-0.1,0.6-3.5,14.1,3.8,23.4c4.3,5.4,11.2,8.2,20.4,8.2c1.6,2.3,5.4,6.4,13.2,10.6v46.5h-58.9
	c-1.7,0-3,1.3-3,3s1.3,3,3,3h232.1c1.7,0,3-1.3,3-3s-1.3-3-3-3h-49.9v-13.4c6.4-3.5,9.6-6.9,11.1-8.9c7.9-0.1,13.9-2.5,17.6-7.2
	c6.5-8.1,3.5-19.8,3.4-20.3c-0.4-1.3-1.5-2.2-2.9-2.2c-9.1,0-15.7,2.6-19.7,7.8c-4.9,6.6-3.9,15.1-3.2,18.3
	c-1.8,2.2-3.9,4.1-6.3,5.5v-40.9c6.7-1,12.5-5.3,15.3-11.5c10.4,3.8,22-1.5,25.8-12c1.7-4.5,1.6-9.4,0-13.9
	C151.1,600.7,155.7,593.6,155.7,585.8z M85.1,674.3c-5.6-0.2-9.7-1.8-12.1-4.9c-3.2-4-3.1-9.7-2.7-12.8c5.8,0.4,10,2.2,12.4,5.4
	C85.7,665.9,85.5,671.3,85.1,674.3z M2.3,624.2c3-3.9,8.1-6.1,15.4-6.5c0.5,3.6,0.9,10.8-3.2,15.9c-3,3.8-8,5.8-15,5.9
	C-1,636-1.5,629.2,2.3,624.2z M-34.4,639.4c-7-0.2-12-2.2-15-5.9c-4-5-3.7-12.2-3.2-15.9c7.2,0.4,12.4,2.6,15.4,6.5
	C-33.4,629.2-33.8,636-34.4,639.4z M-39.4,557.2c-0.7-0.7-1.6-1-2.5-0.8c-4.7,0.6-9.3-2-11.1-6.4c-1.8-4.4-0.4-9.5,3.4-12.3
	c0.7-0.6,1.2-1.4,1.2-2.4c0-0.9-0.4-1.8-1.2-2.4c-3.8-2.9-5.1-7.9-3.3-12.3c1.8-4.4,6.4-7,11.1-6.4c0.9,0.1,1.9-0.2,2.5-0.8
	c0.7-0.7,1-1.6,0.8-2.5c-0.6-4.7,2-9.3,6.4-11.1c4.4-1.8,9.5-0.4,12.3,3.4c0.6,0.7,1.4,1.2,2.4,1.2l0,0c0.9,0,1.8-0.4,2.4-1.2
	c2.9-3.8,7.9-5.1,12.3-3.3c4.4,1.8,7,6.4,6.3,11.1c-0.2,1.6,0.9,3.1,2.6,3.4c0.2,0,0.5,0,0.7,0c5.7-0.8,11,3.2,11.8,8.9
	c0.5,3.8-1,7.6-4.1,9.8c-1.3,1-1.5,2.9-0.5,4.2c0.2,0.2,0.3,0.4,0.5,0.5c4.6,3.5,5.5,10.1,2,14.7c-2.3,3-6,4.6-9.8,4
	c-0.9-0.1-1.9,0.2-2.5,0.8c-0.7,0.7-1,1.6-0.8,2.5c0.6,4.7-2,9.2-6.4,11c-4.4,1.8-9.5,0.4-12.3-3.4c-0.6-0.7-1.4-1.2-2.4-1.2l0,0
	c-0.9,0-1.8,0.4-2.4,1.2c-2.9,3.8-7.9,5.1-12.3,3.3c-4.4-1.8-7-6.4-6.3-11.1C-38.4,558.7-38.7,557.8-39.4,557.2L-39.4,557.2z
	 M3.5,579.6c-0.8-0.5-1.8-0.5-2.6-0.2c-0.9,0.4-1.5,1.1-1.7,2c-1.7,6.5-7,11.3-13.6,12.5v-18.4c2.4,1.3,5,2,7.7,2
	c2.1,0,4.3-0.4,6.2-1.3c4.6-1.9,8-5.7,9.4-10.5l13,13C16.4,582.7,9.2,583,3.5,579.6z M28.7,551.8c-1.6,0.4-2.5,2.1-2.1,3.7
	c0.1,0.2,0.2,0.5,0.3,0.7c3.4,5.8,3.1,13-0.8,18.4l-13-13C21.7,559,26.6,550,24,541.3c-0.3-1.1-0.8-2.1-1.3-3.1h18.4
	C40,544.8,35.1,550.1,28.7,551.8z M26.7,517c0.4,0.9,1.1,1.5,2,1.7c6.5,1.7,11.3,7,12.5,13.6H22.9c4.3-7.9,1.3-17.8-6.6-22.1
	c-1-0.5-2-1-3.1-1.3l13-13c3.8,5.5,4.1,12.7,0.8,18.4C26.4,515.2,26.4,516.1,26.7,517L26.7,517z M-0.9,489.1
	c0.4,1.6,2.1,2.6,3.7,2.1c0.2-0.1,0.5-0.2,0.7-0.3c5.8-3.4,13-3.1,18.4,0.8l-13,13c-1.4-4.7-4.8-8.5-9.3-10.4
	c-4.6-1.9-9.7-1.6-14.1,0.7v-18.4C-7.9,477.8-2.6,482.7-0.9,489.1z M-38.4,491c0.8,0.5,1.8,0.5,2.6,0.2c0.9-0.4,1.5-1.1,1.7-2
	c1.7-6.5,7-11.3,13.6-12.5V495c-4.3-2.3-9.4-2.6-13.9-0.7c-4.6,1.9-8,5.7-9.4,10.5l-13-13C-51.3,487.9-44.1,487.6-38.4,491z
	 M-63.6,518.8c0.9-0.2,1.6-0.9,2-1.7c0.4-0.9,0.3-1.8-0.2-2.6c-3.4-5.8-3.1-13,0.8-18.5l13,13c-4.7,1.4-8.5,4.8-10.4,9.3
	c-1.9,4.6-1.6,9.7,0.7,14.1H-76C-74.9,525.8-70,520.5-63.6,518.8L-63.6,518.8z M-61.6,553.6c-0.4-0.9-1.1-1.5-2-1.7
	c-6.5-1.7-11.3-7-12.5-13.6h18.3c-2.3,4.3-2.6,9.4-0.7,13.9c1.9,4.5,5.7,8,10.5,9.4l-13,13c-3.8-5.5-4.1-12.7-0.8-18.4
	C-61.3,555.4-61.2,554.4-61.6,553.6L-61.6,553.6z M-34,581.4c-0.2-0.9-0.9-1.6-1.7-2c-0.4-0.1-0.7-0.2-1.1-0.2c-0.5,0-1,0.1-1.5,0.4
	c-5.8,3.4-13,3.1-18.4-0.8l13-13c1.4,4.7,4.8,8.5,9.4,10.4c4.6,1.9,9.7,1.6,14.1-0.7v18.4C-27,592.7-32.3,587.9-34,581.4z
	 M117.1,661.9c2.4-3.2,6.6-5,12.4-5.4c0.4,3.1,0.5,8.8-2.7,12.8c-2.4,3-6.5,4.7-12.1,4.9C114.3,671.3,114.1,665.9,117.1,661.9
	L117.1,661.9z M139.2,599.5c-1.6,0.4-2.5,2.1-2.1,3.7c0.1,0.2,0.2,0.5,0.3,0.7c3.9,6.8,1.6,15.4-5.1,19.4c-4.4,2.6-9.8,2.6-14.3,0
	c-1.4-0.8-3.3-0.3-4.1,1.1c-0.1,0.2-0.2,0.5-0.3,0.7c-2,7.6-9.7,12.1-17.3,10.1c-4.9-1.3-8.8-5.2-10.1-10.1c-0.2-0.9-0.9-1.6-1.7-2
	c-0.4-0.1-0.7-0.2-1.1-0.2c-0.5,0-1,0.1-1.5,0.4c-6.8,4-15.4,1.7-19.4-5.1c-2.6-4.4-2.6-9.9,0-14.3c0.8-1.4,0.3-3.3-1.1-4.1
	c-0.2-0.1-0.5-0.2-0.7-0.3c-7.6-2-12.1-9.7-10.1-17.3c1.3-4.9,5.2-8.8,10.1-10.1c1.6-0.4,2.5-2.1,2.1-3.7c-0.1-0.2-0.2-0.5-0.3-0.7
	c-4-6.8-1.7-15.4,5.1-19.4c4.4-2.6,9.9-2.6,14.3,0c0.8,0.5,1.8,0.5,2.6,0.2c0.9-0.4,1.5-1.1,1.7-2c2-7.6,9.7-12.1,17.3-10.1
	c4.9,1.3,8.8,5.2,10.1,10.1c0.4,1.6,2.1,2.5,3.7,2.1c0.2-0.1,0.5-0.2,0.7-0.3c6.8-3.9,15.4-1.7,19.4,5.1c2.6,4.4,2.6,9.9,0,14.3
	c-0.8,1.4-0.3,3.3,1.2,4.1c0.2,0.1,0.4,0.2,0.7,0.3c7.6,2,12.1,9.7,10.1,17.3C148,594.3,144.1,598.1,139.2,599.5L139.2,599.5z"/>
<path class="st0" d="M533.1,600c2.6-6.3-0.4-13.5-6.7-16s-13.5,0.4-16,6.7s0.4,13.5,6.7,16c1.5,0.6,3.1,0.9,4.7,0.9
	c1.6,0,3.2-0.4,4.7-1C529.5,605.4,531.9,603,533.1,600z M529.7,598.6c-1.8,4.4-6.9,6.5-11.3,4.7s-6.5-6.9-4.7-11.3
	c1.8-4.4,6.9-6.5,11.3-4.7c2.1,0.9,3.8,2.6,4.7,4.7C530.6,594.1,530.6,596.5,529.7,598.6L529.7,598.6z"/>
<path class="st0" d="M433.4,626.5c0,8.8,7.1,15.9,15.9,15.9s15.9-7.1,15.9-15.9s-7.1-15.9-15.9-15.9c0,0,0,0,0,0
	C440.5,610.6,433.4,617.7,433.4,626.5z M437.1,626.5c0-6.7,5.5-12.2,12.2-12.2s12.2,5.5,12.2,12.2s-5.5,12.2-12.2,12.2c0,0,0,0,0,0
	C442.5,638.7,437.1,633.2,437.1,626.5z"/>
<path class="st0" d="M422,637.8c-2.4,6.4,0.9,13.6,7.3,16c2.8,1.1,5.9,1.1,8.7,0c1.8,3.8,5.3,6.5,9.5,7.1v25.2
	c-1.5-0.9-2.8-2.1-3.9-3.4c0.4-2,1.1-7.3-2-11.3c-2.4-3.2-6.5-4.8-12.1-4.8c-0.8,0-1.6,0.6-1.8,1.4c-0.1,0.3-1.9,7.5,2.1,12.6
	c2.3,2.9,6,4.4,10.9,4.4c1.9,2.3,4.2,4.2,6.8,5.5v8.3h-30.8c-1,0-1.8,0.8-1.8,1.8c0,1,0.8,1.8,1.8,1.8H560c1,0,1.8-0.8,1.8-1.8
	c0-1-0.8-1.8-1.8-1.8h-36.4v-28.8c4.8-2.6,7.2-5.2,8.2-6.5c5.7,0,10-1.7,12.6-5.1c4.6-5.8,2.5-14.1,2.4-14.4
	c-0.2-0.8-0.9-1.4-1.8-1.4c-6.5,0-11.2,1.9-14,5.5c-3.6,4.7-2.7,10.9-2.2,13.2c-1.4,1.8-3.2,3.3-5.2,4.5v-30.4
	c5-0.6,9.2-3.8,11.2-8.4c7.3,2.9,15.6-0.7,18.5-8.1c1.3-3.3,1.3-7.1,0-10.4c7.2-3.2,10.5-11.6,7.3-18.8c-1.4-3.3-4.1-5.9-7.3-7.3
	c2.9-7.3-0.7-15.6-8.1-18.5c-3.3-1.3-7.1-1.3-10.4,0c-3.1-7.2-11.5-10.5-18.7-7.4c-3.3,1.4-5.9,4.1-7.4,7.4
	c-7.3-2.9-15.6,0.7-18.5,8.1c-1.3,3.3-1.3,7.1,0,10.4c-7.2,3.1-10.5,11.5-7.4,18.8c1.4,3.3,4.1,5.9,7.4,7.4
	c-2.9,7.3,0.7,15.6,8.1,18.5c3.3,1.3,7.1,1.3,10.4,0c2,4.6,6.3,7.8,11.2,8.4v30.4c-2-1.2-3.7-2.7-5.2-4.5c0.5-2.2,1.3-8.4-2.2-13.2
	c-2.8-3.7-7.5-5.5-14-5.5c-0.8,0-1.6,0.6-1.8,1.4c-0.1,0.3-2.2,8.7,2.4,14.4c2.6,3.3,6.9,5,12.6,5.1c1,1.4,3.3,3.9,8.1,6.5v28.7
	h-68.8v-8.3c2.6-1.3,5-3.2,6.8-5.5c4.9,0,8.6-1.5,10.9-4.4c4-5,2.2-12.3,2.1-12.6c-0.2-0.8-0.9-1.4-1.8-1.4c-5.6,0-9.7,1.6-12.1,4.8
	c-3.1,4-2.4,9.3-2,11.3c-1.1,1.3-2.4,2.5-3.9,3.4v-25.2c4.1-0.6,7.7-3.3,9.5-7.1c6.4,2.4,13.6-0.9,16-7.3c1.1-2.8,1.1-5.9,0-8.7
	c6.2-2.9,9-10.3,6.1-16.5c-1.2-2.7-3.4-4.9-6.1-6.1c2.4-6.4-0.9-13.6-7.3-16c-2.8-1-5.9-1-8.7,0c-2.9-6.2-10.3-9-16.5-6.1
	c-2.7,1.2-4.9,3.4-6.1,6.1c-6.4-2.4-13.6,0.9-16,7.3c-1,2.8-1,5.9,0,8.7c-6.2,2.9-9,10.3-6.1,16.5
	C417.1,634.3,419.2,636.5,422,637.8L422,637.8z M459.9,673.5c1.5-2,4.1-3.1,7.7-3.3c0.2,2,0.3,5.5-1.7,7.9c-1.5,1.9-4,2.9-7.5,3
	C458.1,679.3,458,676,459.9,673.5L459.9,673.5z M511.3,659.7c-4.3-0.1-7.4-1.3-9.3-3.7c-2.5-3.1-2.3-7.6-2-9.8
	c4.5,0.2,7.7,1.6,9.5,4C511.9,653.3,511.6,657.5,511.3,659.7L511.3,659.7z M534,650.2c1.8-2.4,5-3.8,9.5-4c0.3,2.2,0.5,6.7-2,9.8
	c-1.8,2.3-5,3.5-9.2,3.7C531.9,657.5,531.6,653.3,534,650.2L534,650.2z M534.8,610.4c0.5,3.5-2,6.8-5.5,7.3c-2.3,0.3-4.6-0.6-6-2.5
	c-0.4-0.5-0.9-0.7-1.5-0.7l0,0c-0.6,0-1.1,0.3-1.5,0.7c-2.2,2.8-6.2,3.4-9.1,1.2c-1.8-1.4-2.8-3.7-2.5-6c0.1-0.6-0.1-1.1-0.5-1.5
	c-0.4-0.4-1-0.6-1.5-0.5c-3.5,0.5-6.8-2-7.3-5.5c-0.3-2.3,0.6-4.6,2.5-6c0.5-0.4,0.7-0.9,0.7-1.5c0-0.6-0.3-1.1-0.7-1.5
	c-2.8-2.2-3.4-6.2-1.2-9.1c1.4-1.8,3.7-2.8,6-2.5c1,0.1,1.9-0.6,2.1-1.6c0-0.2,0-0.3,0-0.5c-0.5-3.5,2-6.8,5.5-7.3
	c2.3-0.3,4.6,0.6,6,2.5c0.3,0.5,0.9,0.7,1.5,0.7l0,0c0.6,0,1.1-0.3,1.5-0.7c2.2-2.8,6.2-3.4,9.1-1.2c1.9,1.4,2.8,3.7,2.5,6
	c-0.1,0.6,0.1,1.1,0.5,1.5c0.4,0.4,1,0.6,1.5,0.5c3.5-0.5,6.8,2,7.3,5.5c0.3,2.3-0.6,4.6-2.5,6c-0.5,0.3-0.7,0.9-0.7,1.5
	c0,0.6,0.3,1.1,0.7,1.5c2.8,2.1,3.4,6.2,1.3,9c-1.4,1.9-3.7,2.8-6,2.5c-0.6-0.1-1.1,0.1-1.5,0.5
	C534.9,609.2,534.7,609.8,534.8,610.4L534.8,610.4z M497.5,622.2l8-8c1.5,5.3,7.1,8.4,12.4,6.9c0.7-0.2,1.4-0.5,2.1-0.9v11.3
	c-4.1-0.7-7.3-3.7-8.4-7.7c-0.3-1-1.3-1.6-2.2-1.3c-0.2,0-0.3,0.1-0.5,0.2C505.2,624.7,500.8,624.6,497.5,622.2L497.5,622.2z
	 M485.5,597.1h11.4c-2.7,4.9-0.9,11,4,13.7c0.6,0.3,1.3,0.6,1.9,0.8l-8,8c-2.4-3.4-2.5-7.8-0.5-11.4c0.3-0.5,0.3-1.1,0.1-1.6
	c-0.2-0.5-0.7-0.9-1.2-1.1C489.3,604.5,486.2,601.2,485.5,597.1L485.5,597.1z M494.4,582.4c-2.1-3.6-1.9-8,0.5-11.4l8,8
	c-5.3,1.6-8.4,7.2-6.8,12.5c0.2,0.7,0.5,1.3,0.8,1.9h-11.3c0.7-4.1,3.7-7.3,7.7-8.4c1-0.3,1.6-1.3,1.3-2.2
	C494.5,582.6,494.4,582.5,494.4,582.4L494.4,582.4z M519.9,559.1v11.4c-4.9-2.7-11-0.9-13.7,4c-0.3,0.6-0.6,1.2-0.8,1.9l-8-8
	c3.4-2.4,7.8-2.5,11.4-0.5c0.9,0.5,2,0.2,2.5-0.6c0.1-0.1,0.2-0.3,0.2-0.5C512.6,562.8,515.8,559.8,519.9,559.1L519.9,559.1z
	 M546.1,568.4l-8,8c-1.6-5.3-7.2-8.4-12.5-6.8c-0.7,0.2-1.3,0.5-1.9,0.8v-11.3c4.1,0.7,7.3,3.7,8.4,7.7c0.1,0.5,0.5,1,1,1.2
	c0.5,0.2,1.1,0.2,1.6-0.1C538.2,565.8,542.7,566,546.1,568.4L546.1,568.4z M558,593.5h-11.4c2.7-4.9,0.8-11-4.1-13.7
	c-0.6-0.3-1.3-0.6-1.9-0.8l8-8c2.4,3.4,2.5,7.8,0.5,11.4c-0.5,0.9-0.2,2,0.6,2.5c0.1,0.1,0.3,0.2,0.5,0.2
	C554.2,586.1,557.3,589.4,558,593.5z M549.2,608.2c2.1,3.6,1.9,8-0.5,11.4l-8-8c5.3-1.6,8.4-7.2,6.8-12.5c-0.2-0.7-0.5-1.3-0.8-1.9
	H558c-0.7,4.1-3.7,7.3-7.7,8.4c-0.6,0.1-1,0.5-1.3,1C548.8,607.1,548.8,607.7,549.2,608.2L549.2,608.2z M523.6,631.5v-11.4
	c4.9,2.7,11,0.9,13.7-4c0.3-0.6,0.6-1.3,0.8-1.9l8,8c-3.4,2.4-7.8,2.6-11.4,0.5c-0.5-0.3-1.1-0.3-1.6-0.1c-0.5,0.2-0.9,0.7-1.1,1.2
	C530.9,627.8,527.6,630.8,523.6,631.5L523.6,631.5z M440.1,681.2c-3.5-0.1-6-1.1-7.5-3c-2-2.5-1.9-6-1.6-7.9
	c3.6,0.2,6.2,1.4,7.7,3.3C440.5,676,440.3,679.3,440.1,681.2L440.1,681.2z M418.5,626.5c0-4,2.7-7.5,6.5-8.5c0.6-0.1,1-0.5,1.2-1.1
	c0.2-0.5,0.2-1.1-0.1-1.6c-2.5-4.2-1.1-9.5,3.1-12c2.8-1.6,6.2-1.6,8.9,0c0.5,0.3,1.1,0.3,1.6,0.1c0.5-0.2,0.9-0.7,1.1-1.2
	c1.2-4.7,6-7.5,10.7-6.2c3,0.8,5.4,3.2,6.2,6.2c0.1,0.6,0.5,1,1.1,1.2c0.5,0.2,1.1,0.2,1.6-0.1c4.2-2.5,9.5-1.1,12,3.1
	c1.6,2.8,1.6,6.2,0,8.9c-0.5,0.9-0.2,2,0.6,2.5c0.1,0.1,0.3,0.2,0.5,0.2c4.7,1.2,7.6,5.9,6.4,10.6c-0.8,3.1-3.2,5.6-6.4,6.4
	c-0.6,0.1-1,0.5-1.2,1.1c-0.2,0.5-0.2,1.1,0.1,1.6c2.5,4.2,1.1,9.5-3.1,12c-2.8,1.6-6.2,1.6-8.9,0c-0.3-0.2-0.6-0.3-0.9-0.2
	c-0.8,0-1.6,0.6-1.8,1.4c-1.2,4.7-6,7.5-10.7,6.2c-3-0.8-5.4-3.2-6.2-6.2c-0.1-0.6-0.5-1-1.1-1.2c-0.5-0.2-1.1-0.2-1.6,0.1
	c-4.2,2.5-9.5,1.1-12-3.1c-1.6-2.8-1.6-6.2,0-8.9c0.3-0.5,0.3-1.1,0.1-1.6c-0.2-0.5-0.7-0.9-1.2-1.1
	C421.1,634,418.4,630.5,418.5,626.5L418.5,626.5z"/>
<path class="st0" d="M276.8,604.6c0-7.1-5.8-12.9-12.9-12.9s-12.9,5.8-12.9,12.9c0,7.1,5.8,12.9,12.9,12.9l0,0
	C271,617.4,276.8,611.7,276.8,604.6z M254.4,604.6c0-5.3,4.3-9.6,9.6-9.6c5.3,0,9.6,4.3,9.6,9.6c0,5.3-4.3,9.6-9.6,9.6c0,0,0,0,0,0
	C258.6,614.1,254.3,609.8,254.4,604.6z"/>
<path class="st0" d="M333.8,591.7c-7.1,0-12.9,5.8-12.9,12.9s5.8,12.9,12.9,12.9s12.9-5.8,12.9-12.9c0,0,0,0,0,0
	C346.6,597.5,340.9,591.7,333.8,591.7z M333.8,614.1c-5.3,0-9.6-4.3-9.6-9.6s4.3-9.6,9.6-9.6c5.3,0,9.6,4.3,9.6,9.6c0,0,0,0,0,0
	C343.3,609.8,339,614.1,333.8,614.1z"/>
<path class="st0" d="M364.6,604.6c0-4.3-2.5-8.3-6.5-10.1c2.1-5.8-0.8-12.2-6.6-14.3c-2.5-0.9-5.2-0.9-7.7,0
	c-2.6-5.6-9.2-8-14.8-5.4c-2.4,1.1-4.3,3-5.4,5.4c-5.8-2.1-12.2,0.8-14.3,6.6c-0.9,2.5-0.9,5.2,0,7.7c-5.6,2.6-8,9.2-5.4,14.8
	c1.1,2.4,3,4.3,5.4,5.4c-2.2,5.7,0.7,12.2,6.5,14.3c2.5,0.9,5.3,0.9,7.8,0c1.6,3.4,4.7,5.8,8.5,6.3v30.6c-2.5-1.4-4.6-3.2-6.4-5.4
	c0.5-2.2,1.5-9-2.3-14.2c-3-3.9-8-5.9-14.9-5.9c-0.7,0-1.4,0.5-1.6,1.2c-0.1,0.4-2.4,9.3,2.5,15.4c2.9,3.6,7.4,5.4,13.6,5.4l0,0
	c1,1.5,3.5,4.3,9,7.3V702h-66.5v-15.9c5.5-3,8-5.8,9-7.3l0,0c6.2,0,10.8-1.8,13.6-5.4c4.9-6.1,2.6-15,2.5-15.4
	c-0.2-0.7-0.8-1.2-1.6-1.2c-7,0-12,2-14.9,5.9c-3.9,5.2-2.8,12-2.3,14.2c-1.7,2.2-3.9,4.1-6.4,5.4v-47c3.7-0.6,6.9-2.9,8.4-6.3
	c5.8,2.1,12.2-0.8,14.3-6.6c0.9-2.5,0.9-5.2,0-7.7c5.6-2.6,8-9.2,5.4-14.8c-1.1-2.4-3-4.3-5.4-5.4c2.2-5.8-0.8-12.2-6.5-14.3
	c-2.5-0.9-5.3-0.9-7.8,0c-2.6-5.6-9.2-8-14.8-5.4c-2.4,1.1-4.3,3-5.4,5.4c-5.8-2.1-12.2,0.8-14.3,6.6c-0.9,2.5-0.9,5.2,0,7.7
	c-5.6,2.6-8,9.2-5.4,14.8c1.1,2.4,3,4.3,5.4,5.4c-2.2,5.7,0.7,12.2,6.5,14.3c2.5,1,5.3,1,7.8,0c1.6,3.4,4.8,5.8,8.5,6.3v30.6
	c-2.5-1.4-4.7-3.2-6.4-5.4c0.5-2.2,1.5-9-2.3-14.2c-2.9-3.9-8-5.9-14.9-5.9c-0.7,0-1.4,0.5-1.6,1.2c-0.1,0.4-2.4,9.3,2.5,15.4
	c2.9,3.6,7.4,5.4,13.7,5.4l0,0c1,1.5,3.5,4.3,9.1,7.3V702h-27.6c-0.9,0.1-1.6,0.9-1.5,1.8c0.1,0.8,0.7,1.5,1.5,1.5H363
	c0.9-0.1,1.6-0.9,1.5-1.8c-0.1-0.8-0.7-1.5-1.5-1.5h-27.6v-15.9c5.5-3,8-5.8,9.1-7.3l0,0c6.2,0,10.8-1.8,13.7-5.4
	c4.9-6.1,2.6-15,2.5-15.4c-0.2-0.7-0.8-1.2-1.6-1.2c-7,0-12,2-14.9,5.9c-3.9,5.2-2.8,12-2.3,14.2c-1.7,2.2-3.9,4.1-6.4,5.4v-47
	c3.7-0.6,6.9-2.9,8.5-6.3c5.8,2.1,12.2-0.8,14.3-6.6c0.9-2.5,0.9-5.2,0-7.7C362.1,612.9,364.6,608.9,364.6,604.6z M322.6,659.1
	c-5-0.1-8.5-1.5-10.7-4.1c-2.9-3.6-2.5-8.9-2.2-11.3c5.1,0.2,8.8,1.8,10.9,4.5C323.5,651.8,323,656.8,322.6,659.1L322.6,659.1z
	 M276.9,664.7c2.1-2.8,5.8-4.3,11-4.6c0.4,2.4,0.8,7.7-2.2,11.3c-2.1,2.7-5.7,4.1-10.7,4.1C274.6,673.3,274.2,668.3,276.9,664.7
	L276.9,664.7z M252.8,659.1c-4.9-0.1-8.5-1.5-10.7-4.1c-2.9-3.6-2.5-8.9-2.2-11.3c5.1,0.2,8.8,1.8,10.9,4.5
	C253.7,651.8,253.2,656.8,252.8,659.1L252.8,659.1z M256.3,626.3c-0.1-0.5-0.5-0.9-1-1.1c-0.2-0.1-0.4-0.1-0.6-0.1
	c-0.3,0-0.6,0.1-0.8,0.2c-3.7,2.2-8.5,0.9-10.7-2.8c-1.4-2.4-1.4-5.5,0-7.9c0.5-0.8,0.2-1.8-0.6-2.2c-0.1-0.1-0.3-0.1-0.4-0.2
	c-4.2-1.1-6.7-5.4-5.6-9.6c0.7-2.7,2.9-4.9,5.6-5.6c0.9-0.2,1.4-1.1,1.2-2c0-0.1-0.1-0.3-0.2-0.4c-2.2-3.7-0.9-8.5,2.8-10.7
	c2.4-1.4,5.5-1.4,7.9,0c0.8,0.5,1.8,0.2,2.2-0.6c0.1-0.1,0.1-0.3,0.2-0.4c1.1-4.2,5.4-6.7,9.6-5.6c2.7,0.7,4.9,2.9,5.6,5.6
	c0.1,0.5,0.5,0.9,1,1.1c0.5,0.2,1,0.2,1.5-0.1c3.7-2.2,8.5-0.9,10.7,2.8c1.4,2.4,1.4,5.5,0,7.9c-0.3,0.4-0.3,1-0.1,1.5
	c0.2,0.5,0.6,0.9,1.1,1c4.2,1.1,6.7,5.4,5.6,9.6c-0.7,2.7-2.9,4.9-5.6,5.6c-0.5,0.1-0.9,0.5-1.1,1c-0.2,0.5-0.2,1,0.1,1.5
	c2.2,3.7,0.9,8.5-2.8,10.7c-2.4,1.4-5.5,1.4-7.9,0c-0.8-0.5-1.8-0.2-2.2,0.6c-0.1,0.1-0.1,0.3-0.2,0.4c-1.1,4.2-5.4,6.7-9.6,5.6
	C259.1,631.2,257,629.1,256.3,626.3L256.3,626.3z M346.7,664.7c2.1-2.8,5.8-4.3,10.9-4.6c0.4,2.4,0.8,7.6-2.2,11.3
	c-2.1,2.7-5.7,4.1-10.7,4.1C344.5,673.3,344,668.3,346.7,664.7L346.7,664.7z M355.4,612.1c-0.9,0.2-1.4,1.1-1.2,2
	c0,0.1,0.1,0.3,0.2,0.4c2.2,3.7,0.9,8.5-2.8,10.7c-2.4,1.4-5.5,1.4-7.9,0c-0.8-0.5-1.8-0.2-2.2,0.6c-0.1,0.1-0.1,0.3-0.2,0.4
	c-1.1,4.2-5.4,6.7-9.6,5.6c-2.7-0.7-4.9-2.9-5.6-5.6c-0.1-0.5-0.5-0.9-1-1.1c-0.2-0.1-0.4-0.1-0.6-0.1c-0.3,0-0.6,0.1-0.8,0.2
	c-3.7,2.2-8.5,0.9-10.7-2.8c-1.4-2.4-1.4-5.5,0-7.9c0.3-0.4,0.3-1,0.1-1.5c-0.2-0.5-0.6-0.9-1.1-1c-4.2-1.2-6.6-5.5-5.4-9.6
	c0.7-2.7,2.8-4.7,5.5-5.5c0.5-0.1,0.9-0.5,1.1-1c0.2-0.5,0.2-1-0.1-1.5c-2.2-3.7-0.9-8.5,2.8-10.7c2.4-1.4,5.5-1.4,7.9,0
	c0.4,0.3,1,0.3,1.5,0.1c0.5-0.2,0.9-0.6,1-1.1c1.1-4.2,5.4-6.7,9.6-5.6c2.7,0.7,4.9,2.9,5.6,5.6c0.2,0.9,1.1,1.4,2,1.2
	c0.1,0,0.3-0.1,0.4-0.2c3.7-2.2,8.5-0.9,10.7,2.8c1.4,2.4,1.4,5.5,0,7.9c-0.5,0.8-0.2,1.8,0.6,2.2c0.1,0.1,0.3,0.1,0.4,0.2
	c4.2,1.1,6.7,5.4,5.6,9.6C360.3,609.3,358.2,611.4,355.4,612.1L355.4,612.1z"/>
<path class="st1" d="M1103,531.1l-1.6-3.1c-0.7-1.3-10.5-19.5-24.7-32.8c14.6-14.5,24-35.5,24.4-36.4l1-2.2l-2.2-1.1
	c-18.8-9.1-37.9-7.5-43.4-6.8c0.1-20-8.1-37.9-8.3-38.2l-1.3-2.5l-2.4,1.4c-14.7,8.4-24.6,16.8-31.2,24.7
	c-9.9-10.2-21.9-18-35.2-22.9l-2.3-0.8l-0.9,2.2c-8.3,21.3-6.7,37.6-5.6,43.7c-20.6-1-40.2,5.2-41.6,5.6l-3.2,1l1.9,2.8
	c9.6,14.1,18.3,24,26,30.8c-4.8,4-17.9,16.3-27,37.2l-1.1,2.6l2.7,0.9c1,0.3,23.9,7.6,46.2,3.7c-0.3,10.7,1.4,24.4,6.4,42.2l0.9,3.1
	l2.8-1.6c1.2-0.7,17.5-10.2,30.3-24v145c0,1.7,1.3,3,3,3s3-1.3,3-3v-143c5.8,6.1,16.2,14.6,31.2,17.5l1.4,0.3l1-1.1
	c0.6-0.7,13.7-16.2,8.1-40.5c10.2,0.1,22.9-1.8,38.7-6.7L1103,531.1z M1078.8,504.7l-11.3,9.5l-14.3-5.6l15-13.9
	C1072,497.7,1075.5,501.1,1078.8,504.7L1078.8,504.7z M1005.2,523.8l0.9-2.6c5.3,1.6,11,1.6,16.2-0.2c0.1,0.2,0.2,0.4,0.3,0.6h-0.1
	c2.7,7.8,0.9,15.6-3.1,22.9L1005.2,523.8z M1022.6,515.4c-10.7,4.8-23.3,0.1-28.1-10.6c-4.8-10.7-0.1-23.3,10.6-28.1
	c10.7-4.8,23.3-0.1,28.1,10.6c0,0,0,0,0,0C1038,498,1033.2,510.6,1022.6,515.4L1022.6,515.4z M983.8,486.5l4.9,1.7
	c-1.7,5.3-1.6,10.9,0.1,16.2c-1.2,0.7-11,5.3-28-7.5L983.8,486.5z M980.5,462.9c7.7,1.6,15,4.8,20.5,10.3c-4.3,2.4-7.9,6-10.3,10.4
	l-5.1-1.8L980.5,462.9z M991.9,510.7l-0.1-0.3c2.4,3.7,5.7,6.7,9.6,8.8l-1.1,3.2l-21.5,13.8C980.9,515.2,991.7,510.8,991.9,510.7z
	 M1025.9,472.7l2.2-6.1l21.9-6c-1.8,8.7-6.6,16.6-13.5,22.3C1034.1,478.6,1030.4,475.1,1025.9,472.7L1025.9,472.7z M1037.3,507.8
	l8.9,3.5l3.4,20.7c-15.1-2.9-21.1-10.8-22.7-13.2C1031.4,516.3,1035,512.4,1037.3,507.8L1037.3,507.8z M1047.9,506.5l-8.8-3.5
	c1.3-4.8,1.3-9.9-0.2-14.6l0,0c8.5-3.8,17.1-1.7,24.9,3.3L1047.9,506.5z M1095.4,459c-2.9,5.8-11.2,21.7-22.6,32.9
	c-8.2-6.7-17.6-11.3-27.4-10.3c7-8.2,10-18,10.8-27.6C1059.1,453.4,1077.3,451.2,1095.4,459z M1051.1,455.2l-20.7,5.6l5.4-14.7
	l15.1-6.8C1051.6,444.6,1051.6,449.9,1051.1,455.2z M1046,418.7c1.8,5,3.2,10.2,4.1,15.5l-11.8,5.3L1046,418.7z M1041,417.5l-8,21.8
	l-8-9.8C1030,425,1035.3,421,1041,417.5z M1021.3,432.9l9.6,11.8l-5.9,15.8l-12.8-16.3C1014.8,440.1,1017.9,436.4,1021.3,432.9
	L1021.3,432.9z M1023,466.2l-1.7,4.7c-5-1.5-10.3-1.4-15.2,0.1c-0.5-2.2-2-10.6,3.5-21.9L1023,466.2z M978.9,416.9
	c5.5,2.2,19.8,8.9,31.3,21.3c-8.3,11.5-9.9,21.5-9.8,27.8c-7.4-5.5-16.4-8.2-25.6-9.2C974,453.2,971.4,437.7,978.9,416.9
	L978.9,416.9z M975,461.9l4.8,17.8l-16.3-5.7l-1.8-12.5C966.1,461.3,970.6,461.4,975,461.9z M956.6,461.7l1.5,10.3l-20.7-7.3
	C943.7,463.2,950.1,462.3,956.6,461.7L956.6,461.7z M935.4,469.4l19,6.7l-10.2,4.6C941.4,477.4,938.4,473.6,935.4,469.4L935.4,469.4
	z M947.7,484.7l13.6-6.1l15.6,5.5l-20.4,9.2C953.4,490.6,950.5,487.7,947.7,484.7L947.7,484.7z M931.4,533.2
	c5.9-12.8,14.5-24.1,25.2-33.3c11.7,9.2,20.8,11.2,26.8,10.9c-4,4.2-8.5,11.8-9.7,25C956.5,539.1,938.2,535,931.4,533.2L931.4,533.2
	z M979,554.6c-0.5-4.1-0.7-8.1-0.6-12.2l0,0l19.2-12.3l-5.9,17.1L979,554.6z M982.5,573.8c-1.2-5-2.1-9.5-2.8-13.8l9.4-5.4
	L982.5,573.8z M986.9,576.5l8.4-24.2l6,13.3C996.8,569.4,992,573.1,986.9,576.5L986.9,576.5z M1005.3,561.9l-7.5-16.7l5.3-15.5
	l13.4,19.5C1013.2,553.8,1009.5,558.1,1005.3,561.9L1005.3,561.9z M1050.3,574.8c-17.2-3.9-27.8-16.2-30.8-20.2
	c-0.1-0.2-0.1-0.3-0.2-0.5c5.8-7.7,9.8-16.4,9.6-25.4c5.2,4.3,13.7,8.8,27.2,9.8C1061.1,557.7,1053.2,570.9,1050.3,574.8
	L1050.3,574.8z M1054.8,532.8l-3.2-19.3l14.3,5.7l6.1,13.4C1066.4,533.3,1060.6,533.4,1054.8,532.8L1054.8,532.8z M1077.3,531.8
	l-4.5-10l17.9,7.1C1085.9,530.2,1081.5,531.2,1077.3,531.8L1077.3,531.8z M1072.7,516.4l9.3-7.8c4.1,5.1,7.9,10.4,11.4,16
	L1072.7,516.4z"/>
</svg>
