<svg id="Calque_1" data-name="Calque 1" xmlns="http://www.w3.org/2000/svg" viewBox="0 0 570.52 342.7"><defs><style>.cls-1{fill:#202020;}</style></defs><title>Plan de travail 1</title><path d="M516.2,40.15c-6.28-18.34-25.4-28.46-42.62-22.57-9.53,3.26-16.16,8.86-19.73,16.65a29.51,29.51,0,0,0-1,2.85A64.41,64.41,0,0,0,347,73.6a27.06,27.06,0,0,0-2.79-1.78c-7.64-4-16.41-4.35-26-1.06-17.34,5.94-26.35,25.69-20.07,44A36.27,36.27,0,0,0,313.31,134c-4.15,10.22-9.64,24.94-4.57,39.75,5.78,16.87,27.15,36.82,50.68,28.76,8.51-2.91,13.88-9,17.33-15.81l.38,1.11A64,64,0,0,0,421.76,229l40.68,28.84a8.07,8.07,0,0,0,12.38-4.24l14.47-47.72a64,64,0,0,0,10-59.95l-.24-.68c6.72,3.08,14.44,4.45,22.65,1.65,23.67-8.11,28.08-36.39,22.15-53.69C538.77,78.43,525.49,70.13,516,64.58A36.49,36.49,0,0,0,516.2,40.15ZM483.73,182.66l-71.82,24.59A47.51,47.51,0,0,1,395.79,190l90.12-30.85A47.47,47.47,0,0,1,483.73,182.66ZM389.82,175l-7-20.36,91.61-31.36,7,20.36Zm4.9-135.19A48.47,48.47,0,0,1,456.2,70l13,38.07-91.61,31.36-13-38.07A48.48,48.48,0,0,1,394.72,39.82ZM345.82,98.1l20.78,60.72c0,4.68-.89,24.44-12.41,28.38-14.17,4.85-27-9.38-30.18-18.71-3.37-9.85,1.2-21,4.88-30,.87-2.13,1.68-4.11,2.34-5.92A8.08,8.08,0,0,0,326,122.13a19.63,19.63,0,0,1-12.58-12.56c-3.39-9.92,1.11-20.48,10-23.54,5.31-1.82,9.65-1.8,13.26,0C343.14,89.39,345.68,97.67,345.82,98.1ZM462.63,238.22l-29.75-21.1,40.33-13.8Zm66-139.75c3.19,9.33,1.87,28.4-12.12,33.19-11.42,3.91-24.05-11.18-26.94-14.9L468.59,55.63c0-.07-3-8.19-.07-14.68,1.68-3.65,5-6.31,10.28-8.1,8.81-3,18.74,2.61,22.13,12.53A19.65,19.65,0,0,1,498.77,63,8.06,8.06,0,0,0,501,74.44c1.62,1,3.47,2.12,5.45,3.27C514.82,82.56,525.2,88.6,528.58,98.47Z"/><circle cx="391.04" cy="84.17" r="8.87"/><circle cx="424.02" cy="72.88" r="8.78"/><path d="M422.43,95.88c2.5,1.53,3.5,5,2.65,8a10.21,10.21,0,0,1-16,5.44c-2.54-1.91-3.84-5.23-2.81-8l.06-.16a.23.23,0,0,1,.3-.13.21.21,0,0,1,.13.13,8.37,8.37,0,0,0,4.12,4.44,7.81,7.81,0,0,0,6,.31,7.89,7.89,0,0,0,4.53-3.88,8.34,8.34,0,0,0,.54-6,.23.23,0,0,1,.16-.28.22.22,0,0,1,.18,0Z"/><path class="cls-1" d="M31,331.58c.24.17.73,0,.59-.52l-.87-.35Z"/><path class="cls-1" d="M32.38,327.79c-.44-.62-1.19-1.34-2-.91.84.62.51.79,1.51,1.44.11.54-.25,1-.56.88.23.19-.14.87.41,1.13a2.07,2.07,0,0,0,0-2.56C32,327.57,32.22,327.75,32.38,327.79Z"/><path class="cls-1" d="M38.56,275.28l-.16.31A.91.91,0,0,0,38.56,275.28Z"/><path class="cls-1" d="M48.09,244.05c-.07.24,0,.37,0,.4C48.16,244.22,48.18,244,48.09,244.05Z"/><path class="cls-1" d="M50.93,239.19l-.17.28C50.87,239.39,51,239.29,50.93,239.19Z"/><path class="cls-1" d="M38.56,275.28l.46-.8C38.76,274.37,38.72,274.88,38.56,275.28Z"/><path class="cls-1" d="M30.24,320.45a1.25,1.25,0,0,0,.22.48l-.08-.45Z"/><path class="cls-1" d="M36.76,289.59l0,.26a2.86,2.86,0,0,0,.31.27Z"/><path class="cls-1" d="M35.54,300.56c.06-.24-.66-.4-1-.53a.82.82,0,0,1,.44.59A1.28,1.28,0,0,0,35.54,300.56Z"/><path class="cls-1" d="M33.2,318l.1.31Z"/><path class="cls-1" d="M38.19,281.82a.65.65,0,0,0,.27-.05A.38.38,0,0,0,38.19,281.82Z"/><path class="cls-1" d="M220.24,116.36s0-.08.06-.12S220.17,116.31,220.24,116.36Z"/><path class="cls-1" d="M210.58,107.08l.18,0,.23-.33Z"/><path class="cls-1" d="M55.83,230.29l0,0C55.77,230.61,55.81,230.46,55.83,230.29Z"/><path class="cls-1" d="M115.16,160.87c-1.22.06,1-1.67-.74-1.38C114.69,159.65,113.85,161.26,115.16,160.87Z"/><path class="cls-1" d="M30.34,320.16c0-.15,0-.31,0-.46A1.38,1.38,0,0,0,30.34,320.16Z"/><path class="cls-1" d="M114.42,159.49h0l-.17,0Z"/><path class="cls-1" d="M66.67,209.74a.91.91,0,0,0-.4,0A.64.64,0,0,0,66.67,209.74Z"/><path class="cls-1" d="M57.18,224.34l.29-.35A1.67,1.67,0,0,0,57.18,224.34Z"/><path class="cls-1" d="M70.88,201.7c.18-.17.31-.17.41-.5l-.13,0C71.18,201.39,71.13,201.54,70.88,201.7Z"/><path class="cls-1" d="M76.63,194.24a1.7,1.7,0,0,0-.22,0l-.15.26Z"/><path class="cls-1" d="M230.77,122.61l2.25.59C231.35,122.73,231.38,122.55,230.77,122.61Z"/><path class="cls-1" d="M30.65,320.45a.4.4,0,0,1-.31-.29l0,.32C30.49,320.51,30.59,320.52,30.65,320.45Z"/><path class="cls-1" d="M66.47,198c.3-.41.66-.79,1-1.18A7.11,7.11,0,0,0,66.47,198Z"/><path class="cls-1" d="M171.68,130.62l.32-.17A.46.46,0,0,0,171.68,130.62Z"/><path class="cls-1" d="M70.22,193.17a2.23,2.23,0,0,0,.93-.38.73.73,0,0,0,0-.25Z"/><path class="cls-1" d="M233.05,123.21h0Z"/><path class="cls-1" d="M228.43,121.58l3.83.38c1.29.39-1.67-.1-3-.25a37.37,37.37,0,0,1,4,.89l-1.41-.29c1.31.32,2.14.58,1.5.56-.33,0-.55.11.57.55l-.85-.21,4.29,1.18c-.44,0,.82.58-1.23,0,.38,0-.35-.22-.8-.4.11.09.21.17.3.26-3.05-.8-.24-.3-2.29-.9.19.28,1,1-.46.79-2.21-.81.81-.32-2-1l1.81.29c-4.53-1.26.72.07-4-1.27-1.35-.22.26.44-1.17.22.77.47,1.55.68,2.28,1.14-.09.44-1.51-.07-2.5-.55s-1.74-.94-1.45-.37c.51.57,1.41,1.65-.11,1.11a7.18,7.18,0,0,0-.54-1c-.89-.08.34,1.41-1.21.79.1-.39.71-.35.5-.46-1-.76-.23.57-.91.58-.09-.28-.17-.57-.24-.86l-1.41.29-1.69.43c-1.14.3-2.3.6-3.48.79.11-.28.5-.59-.08-.8a30.37,30.37,0,0,1-9.32.2l-1,.85c-.26,0-.52-.29-.25-.46-1.16-.19,0,.48-.51.82-.63.11-.9-.36-.52-.62-1.92.77-5.43,2.19-7.61,1.67l.37-.29c-1.66,0-1.59,1.82-3.19,1.35l.26-.17c-3.54.24-7.29,1.44-10.16.85-.29,1.18-3.52.29-3.44,1.83-2.12-.29-1.62-.68-4.52-.55-.76.1-.89,1.18-1.77,1.54l-.21-.77-1,1.09-.89-.77-.82.39c.36,0,.82.19.82.42-1.25.65-3.41.2-3.55-.18-1,.43-2,1-3,1.55,0-.33.48-.6.84-.92-1.46,1.29-.53-.71-1.87.47.26.11,0,.49,0,.65a7.32,7.32,0,0,0-3.87.88l.09-.6c-2.37.57-4.83,1.74-7.45,2.52,1,0,1.1.92.37,1.24l-.57-.7c-.33.64.9.06.09,1-1,.21-1-.7-.49-1.13a10.23,10.23,0,0,0-1.07.69c-.15-.21.07-.44,0-.77-.3.67-2.29,0-2.67,1.09l-.15-.2c-2.56,1-3.61,1.69-5.67,2.54.22.69-.65.85-1,1.63-1.59.41-3.55.43-5.3,1.35-1.1.92-.12.73-.5,1.39-.36-.56-2.11.35-1.38-.52A32.7,32.7,0,0,0,130.6,146c.41.1.79.05.71.34-.43.33-1.22.28-1.3,0l.1-.12c-1.28,1.18-3.25,1.54-5.1,2s-3.53,1.1-4.35,2.37l.1-.13-2,2c-1.16.54.41-.82-.61-.69-2,2.48-4.24,2.15-5.87,4.18-2.65-.54-5.5,4-8.34,4.4l.4.29c-.29.74-.82.25-1.29.44.27.25.84-.08.65.36a80.41,80.41,0,0,1-6.94,5.2c-2.42,1.67-5.11,3.08-7.3,5-1.63,1.38.74,2.57-1.94,3.61l0-1.14a26.74,26.74,0,0,1-4.38,4.82,25.82,25.82,0,0,0-4.09,5c0-.32-.16-.49.11-.8-1,.24-2.22,2.41-1.84,2.76-.48.44-.45-.19-.91-.06-.88.42-.9,2.16-1.68,2.11-.13,0,0-.31.08-.46-.19.59-1.77,2-.88,2-1.23,1-1.6,2.56-2.7,3.28.13,1.14-2,1.89-1.22,2.77-.86-.79-2.47,1.6-2.6,2.72-.1-.48-.78.5-1-.1-.63.95-1,1.93-.43,2.11-2.32.94-1.42,4.09-3.56,4.07-1.44,3.09-2.57,6-3.87,8.75-.94-.68,1.59-2.92.48-3.45-1.05,2.74-1,4.65-2.69,7-.51.56-.23-.6-.28-.91-1.07,2.67-2.65,4.85-3.28,7.38-.1-.05-.08-.35,0-.62-.19.46-.68,1-.18,1.15l.09-.5c1-.36.54,2.48.86,2.73-1-1.42-1.47,2.06-2.58,0-.06.34,0,.81.33.9-.31.39-.57.44-.71-.17-.52,1.73.29,1.41-.39,2.88-.23-.11-.19-.45-.39-.73a4.1,4.1,0,0,1-.5,3.08c-.11-.14-.36-.07-.19-.45-.87,2.2-.4,4.19-1.85,6.36-.76-1.12-.65.68-1.59.46l-.22,1.4.63-.35c-.45,1.13-.17,2.38-.83,3.25l0-1-.64,2.19.8-1.07c0,1.32,1.19.3.37,1.71,0-.34-.44,1.12-1.19,1.52h0a2.86,2.86,0,0,1-.34,2.1c-.36.12-.95-.52-1.19-.44.58.82-.66,2.77-.08,3.75a.82.82,0,0,0-.71-.43l.47.68c-.37.47-.49.51-.85.3-.63,1.57,1.33-.13.21,1.61,0-.17-.11-.12-.11-.46-.87,1.83-.83,3.8-1.59,5.49-1.07.26.2-1.62-.75-1.25-.54,2.64-.34,5.64-1.24,8.06l.23-.43c1.22.67-1.14,1.69-.79,3.12,0-.34-.64-.59-.52-.47-.6,1.67-.48,3.6-.65,6.29l-.27-.4a22.27,22.27,0,0,0-1.11,3.72c.28.4.11,1,.68.73-2.62,3-.18,6.66-2.24,9.42,0-.36-.17-.91-.22-.63l-.07,2.64c.62-.12.4-.29,1-.76a2.66,2.66,0,0,1,.36,1.78c-.22-1.21-1-.13-1.36.33.2-.06.37.14.56.13-1.25,1.2,1.14.38.21,2.13l-.3-.14a6.15,6.15,0,0,1,.23,2.13c-.72.23-.23-.77-.79-.89-.08,1.06,1,2.22.26,3.09-.14-.47-.07-1.11-.2-1.57a2.64,2.64,0,0,0-1,1.83l0-.07L31.73,299l.27-.43c1.64,1.5.08,2.72,1.09,4.59-1-1.81-.61-.34-1.38-.54-.25.44-.56,1.11-.76.89.56.9-.62,1.37.2,2.63-.25,0-.08.9-.7.66.13,1.12.45-.22.76-.11.77,1.74-1.3,3.91-.23,6.4.42,2.12,1.25,2.53,1.61,4.47-.43.65-.9-.55-.9-.55a4,4,0,0,0-.06,2.84c-.22-.2-.41,0-.69.3,0,.81.91.55.53,1.6a3.42,3.42,0,0,1-1-.81c.22.95.68,1.88.93,2.86-.43.26-.67-.59-1-.93.21,1.1.43,2.85,1.13,3.17l.24-.7c0,.39-.6.21-.73-.08a.88.88,0,0,1,.48-1.42l.17.7c1.45-.73-.27-2.78-.16-4.19l1.07.59-.87-1.44c.28-.3.88-.5,1,.19.54-1-.37-.89.23-1.73.09-.09.14-.05.18,0l-.28-1c.21.2.76-.14.58.45.68-1.72-.71-2.83.13-3.46l.06.15c-.28-2.43-.79-.27-1.63-2.13l2-1.12-.77-.28c0-.25.13-.74.44-.63-.48-1-.35.14-.83-.43.79-1.15-.14-3.34,1.14-3.52-.56-.47-.55,1.12-.86-.19,1.37-.27-.1-1.5.61-2.55.67.4.21,1.4.92.36-1.11-.76.45-2.1.3-3-.94-.13-.2-2-.31-3.61.3.13.85-2.84,1.36-4.23l.15.07c-.92-.4-.53-1.86-.55-3,.55.12.74.34.91,1l.14-1a1.72,1.72,0,0,1-.38-1.28l.66.35c.17-1.33-.41-2.82.32-4.46-.64-.21-2,1.07-2.18-.83.37,0,1,0,1,.52,0-.16-.21-.6,0-.89l.47.83c.39-.74-.42-.5-.25-1.11.49.09.44-.41.82-.25,0,.17-.31.51-.16.79a3.19,3.19,0,0,1,1.12-1.7.57.57,0,0,1-.65-.65c.22-1.34.69-.34,1.1-1.07-.29-.39.23-1.16-.51-1.33.07-.39.44-.39.67-.5-.2-.76.51-3.23-.43-2.62l-.09.16v-.12h0c-.25-2.4,1.49-4.56,1.67-6.86l.25.07c0-1.4.51-3,.26-4.07.11-.39.7-.8.95-.55A3.86,3.86,0,0,1,42,261.7c.16,1.12.48-.25,0,1.12.57-1.25,1-1.43.76-3,.5.66,1.05-.75,1-1.42l-.7.78a7.75,7.75,0,0,1,.55-1.91l.72.57c1.83-2.3-.17-5.26,2.14-6.71-.35-.89-.86,1.29-1.33.45.5-1.18,2.07-2,2.19-2.41,1-1.48-.62-1.93.31-3.53-.37.11-1.21,0-1-1.34.56-1.15,1.75-1,1.7-.17-.08.29-.23.39-.32.34,0,.43-.11,1,.38.62l-.23-.26c.52-.48,1.1-2.12,1.43-1.56.06-1-.33-.56-.73.05,1-1.36.91-2.37,1.78-3.83-.25.19-.67.29-.58,0,1.26-2.14-.12-1.22.41-2.8.81-.69.89.74,1.2-1,.7-.81.83.12.9.59.07-1.62,1.5-2.44,1.94-3.18l-.1.83a4.07,4.07,0,0,1,.38-1.22l-.74.17c.29-.39.45-.75.68-.64-.17-.61-1.08-.08-1.19-1.19.54-.44.47-1.89,1.29-1.75-1,1.69.83.15.28,1.73a2.4,2.4,0,0,1,.48-1.08c.11,0,.13.14.12.27,1.46-1.38-.45-1.16.44-2.9.3.42,1,0,1-.35-.36.69-.86,0-.84-.8.88-1,.38-1.34.71-1.9l-.49.59c-.29-.43.05-1,.32-1.82.35.1-.14.83.14.62-.27-1.24,1.73-1.58,1.87-3,.55-.41.78.35,1.21,0,.19-1.61,1.36-1.11,1.73-2.72-.77.09-.68.24-.63-1l-.95,2.47.07-1.88c-.41.68-.51,1.63-.84,2,0-.93.06-.79-.58-.7,1.35-.49.62-2.13,1.8-2.91l1.3.79c1.54-1.27,1-3.27,2.58-5.18l-.62.53c-.34-.59.68-1.35.9-2.15.39.33.82,0,1.28-.08-.34-.17,1-1.46.3-2.2l1.17-.53c1.33-1.48.07-2.68,1.28-4.17.13.8.91.29.52,1.57.36-.52.76-.94.47-1.15.47-.12.43-1.86,1.15-2.06,0-.35-.42-.74.06-1.27.13,0,.2.15.2.15-.2-.15.41-1.09-.42-.93,2.48-.59,3.29-4.4,5.41-4.9a25.47,25.47,0,0,1,2.43-3.58c.06.16.19.17,0,.31,1.52-1-.39-1.74,1.34-2.87,1.3-.2-.37,1.07.29.81,1.44.91,1.43-1.92,3-2.24l-.14.3c1.09-.36,1.19-2.26,2.39-3.41,0,0,0,.16.18.18.11-1.46,1.54-3.08,2.52-4.38.09.82-.29.75.4,1,.45-.56-.91-.62,0-1.74.59-.07,1.55-.55,2.14-.13l-1,.95c1.13.19,1.24-1.22,1.86-1.59l.21.36c1.4-1.51.74-2.28,2.4-3.76l-.37-.07c.21-1.6,1.14-.25,1.58-1.59l1,.54a27.13,27.13,0,0,1,2.54-3.58c-.16,1.1-1.22,2.46-1.73,3.45.62-.49,2-1.75,2-2.4-.19.28-.34.72-.68.8a5.71,5.71,0,0,1,2.23-3.33c1,1.75,3.46-2.29,5.37-1.64,1.86-2.17,4.72-2.88,7.3-4.81-1.79-.62.76-.57-.27-1.78.57-.51.82-.66.94-.61a23.21,23.21,0,0,1,2.43-.45c.71.12-.44.66-.19.92,1.49-.72,1,.22,2.12,0-.49-.37.07-1,1-1.26l-1.52.05c1.56-1.88,2.4.13,4-1.74l-.38.79c.88-.85,3.79-2.18,4.19-3.88.27.05.72.29.32.66a11.72,11.72,0,0,0,1.87-1.22l1.89-1.33a8.5,8.5,0,0,1,3.62-1.81l0,.44c.43-.33.52-1.05,1.29-1,0,.16,0,.44.2.36.2-.24,1-1.23,1.72-1.33l-.36.66c2.73-.69,3.36-2.92,5.49-3.95.44,1,2.62.59,3.7.37l0,.16c3.06-1,4.78-2.85,7.45-4.36,2.11.38,6.2-1.41,9.26-1.68-.5-.06-.19-.86.29-1.13.74,0,1.65-1.32,1.83-.29l-.24.06c.79.82,2.1.14,3.18-.16l-.18-1.36c3.3.91,7.37-2.55,9.35-1.25.62-.48,1.49-.68,2.1-1.16l.13.72a26.67,26.67,0,0,0,5.29-1.09l-.38.62c1.35-.26,1.28-2.45,2.53-2.77l.58,1c2.38-.39,5,.18,7.14-1.16a.56.56,0,0,1-.41.59c1.13-.15,4.44.06,3.81-1.36.17,1,2.47-.29,3.71-.91l-.11.74c1-1.08,1-1.33,2.47-1.82.37,0,.38.52-.12.41,1.25.18.86-.79,2.37-.56l-.49.51c1.25-.06,1.13-.3,1.75-.89.76-.36,2.4,0,2.65.6a1.44,1.44,0,0,1,1.51-.88c.12.24-.13.41-.26.5,2.13.3,3-1.11,4.53-.54a.51.51,0,0,0,.28.41,22.4,22.4,0,0,1-2.88.15c.06.66,1.41.65.43,1.66,1-.59,2.76-1.84,4.09-1.64a.56.56,0,0,1,.19.21l-.13.08a1.28,1.28,0,0,0,.82-.18,4.12,4.12,0,0,0,1.09.11c.19.53,1.55.15,2.22.12-.11-.72.77-.68-.08-1.2.11,0-.12.1-.56.16a1.26,1.26,0,0,0-.28.11l0-.07-1.66.19a1.59,1.59,0,0,1,1.8-.43,13.28,13.28,0,0,1,.86-1.25,6.55,6.55,0,0,0,1.82,1.08,7,7,0,0,1,1.94.89c2.9-.49,7.35-.48,7.11-1.83.46-.19,1.41.35,2.05.54-.25.15-.83.14-.81.34,1.1-.38,4.64-.27,3-1.17,2.76.35.75.85,3.09.63l.28.28c4.58.63,5.72,0,6.06-.57a1.37,1.37,0,0,1,1.2-.65c.18,0,.54,0,.71,0a3.62,3.62,0,0,1-.55-.39c-.28-.24-.34-.45-.23-.66,0,.13,0,.19-.48.12-1.56-1.33-5.6-3.27-8.82-4.85-1.66-.82-3.2-1.59-4.65-2.42-.72-.42-1.42-.85-2.14-1.34a11.36,11.36,0,0,1-1.57-1.27c-1.11-.91-1.53-.45-2.51-.46l.1-.83-1.73.1c-2.15-.42-2.28-3.4-5.2-3.56l0,.62c-.79-.54-2.8-1.16-2.38-1.61-.13,0-.53.33-.73-.09l.17-.37-2.39-.49c-1.45-1.12,1-1.29-1.27-2.62-.94-.32-3-.28-2.83.14.34.2.77.7.6,1.07l-.89-.24c-.71,1-1.9,1.74-.36,3.52l1.7.08.16.75-1.15-.58c.38.83,1,.62,1.64.58a1.1,1.1,0,0,0,.26.87l1.88-.3c-.07.5-1,.5-.27,1.21.87-.13-.1-1.25,1.09-1,.39.83,0,1.12,1,1.12,0,.33-.29.41-.65.37.85,0,1.86.83,2.51.45.36,1,2.37,1.08,1.76,2a4.42,4.42,0,0,1,2.26.15c-1.78.59,2.29,1.33,1.3,2.45,1.42-.63,3.29,1.16,5.1,1.36-.13,0-.39.13-.49,0,.49.32.44.42.41.56a1.68,1.68,0,0,1-.14.38c.74-.75,1.45-.63,2.66-.69a2.24,2.24,0,0,1-1.33.51,5.34,5.34,0,0,0-1.38.44c.9-.44,1.45-.14,2.42-.4-.66.34-.18.24-1.56.45,2.35-.17.53,0,2.34.13-.94.21-2.58,0-1.37.17C229.61,121.71,228.38,121.55,228.43,121.58Zm-11.68,3v0l.69-.1Zm-2.84.26a11.63,11.63,0,0,0,1.23-.08c.13.24,0,.51-.25.52C215,125.05,214.35,125,213.91,124.79Zm6.35,4.47c-.43.15-.59,0-.66-.13a7.23,7.23,0,0,0,.77-.15l0-.09A.88.88,0,0,1,220.26,129.26Z"/><path class="cls-1" d="M221,128.24a.67.67,0,0,1,.17-.06,1.16,1.16,0,0,0-.27-.14l-.14.24Z"/><path class="cls-1" d="M38.37,275.65l0-.06a.31.31,0,0,1-.13.1Z"/><polygon class="cls-1" points="174.72 129.56 174.76 129.74 174.97 129.53 174.72 129.56"/><path class="cls-1" d="M33.27,290.61a.41.41,0,0,0-.21.18S33.19,290.71,33.27,290.61Z"/><path class="cls-1" d="M32.28,297.32l-.37.93A5.31,5.31,0,0,0,32.28,297.32Z"/><path class="cls-1" d="M31.41,302.48a.82.82,0,0,0,.3.13h0Z"/><path class="cls-1" d="M52.7,222.46a.76.76,0,0,0,.06-.2C52.85,221.77,52.76,222.09,52.7,222.46Z"/><path class="cls-1" d="M44.46,245.86a5,5,0,0,1,0-.86C44.22,245.39,44.08,245.71,44.46,245.86Z"/><polygon class="cls-1" points="66.36 198.17 66.37 198.18 66.47 198.03 66.36 198.17"/><path class="cls-1" d="M44.84,243.93a1.86,1.86,0,0,0-.42,1.07A2.76,2.76,0,0,0,44.84,243.93Z"/><path class="cls-1" d="M30.19,325.13l0,.25a.21.21,0,0,1,.12,0Z"/><path class="cls-1" d="M30.28,325.41l.09.28C30.37,325.56,30.36,325.45,30.28,325.41Z"/><path class="cls-1" d="M30.56,326.27l-.19-.58C30.37,325.89,30.35,326.15,30.56,326.27Z"/><path class="cls-1" d="M30.53,318.19l-.26-.08A.53.53,0,0,0,30.53,318.19Z"/><path class="cls-1" d="M30.52,316.09c-.07.5-.61,1.24-.46,2l.21.07C29.88,317.77,31,316.57,30.52,316.09Z"/><path class="cls-1" d="M34.19,307.54l-.31,1.72c.29-.29.69-.66.71.13C35.56,307.26,33.94,309.8,34.19,307.54Z"/><path class="cls-1" d="M35,302.2c0,.94.41,0,.56.09C35.39,301.68,35.34,301.53,35,302.2Z"/><path class="cls-1" d="M41.75,264l.61.26C42.46,263.51,42.12,264.15,41.75,264Z"/><path class="cls-1" d="M40.48,255.83l-.61.56.48.49C40.38,256.53,40.43,256.18,40.48,255.83Z"/><polygon class="cls-1" points="46.31 253.03 46.31 253.36 46.44 252.15 46.31 253.03"/><path class="cls-1" d="M76.1,196l-.77-.34C75.15,196.09,75.8,196.74,76.1,196Z"/><path class="cls-1" d="M94.64,175a1.25,1.25,0,0,0,1.36-.84C95.47,174.53,94.8,174.72,94.64,175Z"/><polygon class="cls-1" points="168.99 137.63 168.53 138.05 169.48 137.53 168.99 137.63"/><path class="cls-1" d="M216.94,149.77s0,0,0,0l0,0Z"/><path class="cls-1" d="M217.22,149.54s.09-.09.05-.07l-.09.1-.07.05-.09.07.2-.15Z"/><path class="cls-1" d="M221.38,146.43h0Z"/><path class="cls-1" d="M224,144.59s0,0,0,0S224,144.6,224,144.59Z"/><path class="cls-1" d="M224.62,144.45h0S224.62,144.46,224.62,144.45Z"/><path class="cls-1" d="M221.38,146.43h.1S221.42,146.42,221.38,146.43Z"/><path class="cls-1" d="M217.74,149.05l0,0,0,0Z"/><path class="cls-1" d="M220.3,147.35h0v0Z"/><path class="cls-1" d="M219.42,148s0-.06,0-.09a.08.08,0,0,1,0,.07Z"/><path class="cls-1" d="M218,149l0,0Z"/><path class="cls-1" d="M220.94,146.91l0,0Z"/><path class="cls-1" d="M242.18,125l.08.09Z"/><polygon class="cls-1" points="245.42 126.71 245.43 126.75 245.71 127.04 245.42 126.71"/><path class="cls-1" d="M225.61,144.08h0S225.61,144.1,225.61,144.08Z"/><path class="cls-1" d="M233.18,138.74c-.31-.21-.15-.44-.52-.65C232.77,138.2,232.93,138.64,233.18,138.74Z"/><path class="cls-1" d="M217.76,149l0,0Z"/><polygon class="cls-1" points="232.66 138.09 232.66 138.09 232.63 138.07 232.66 138.09"/><path class="cls-1" d="M227.46,142.68l-.09-.07Z"/><path class="cls-1" d="M225.83,143.41h0Z"/><path class="cls-1" d="M228,141.88s.06,0,.07,0l0,0S228,141.9,228,141.88Z"/><polygon class="cls-1" points="228.73 141.33 228.68 141.3 228.66 141.33 228.73 141.33"/><path class="cls-1" d="M240.45,127.19l.4.41C240.55,127.26,240.54,127,240.45,127.19Z"/><path class="cls-1" d="M217.74,149.05l0,0,0,0Z"/><path class="cls-1" d="M226.67,140.21l.13-.07A.28.28,0,0,0,226.67,140.21Z"/><path class="cls-1" d="M235.72,131.92v-.07S235.69,131.87,235.72,131.92Z"/><path class="cls-1" d="M227.09,139.8a.73.73,0,0,0,.18.09l0-.07Z"/><path class="cls-1" d="M240.86,127.61h0Z"/><path class="cls-1" d="M240.54,125.73c-.11.09.5.7.8,1.1,0,.31-.46-.43-.79-.73.08.25.53.91.45.94a1.81,1.81,0,0,1-.24-.28c.36.6-.21.26.25,1l-.15-.15c.29.31.57.64.76.87,0,.06.26.49-.12.08,0,0-.1-.18-.2-.33l.11.23c-.55-.56-.11-.27-.49-.72.08.29.38.89.17.78-.51-.57,0-.35-.54-.79l.3.12c-.86-.85.12,0-.79-.92-.28,0,.09.46-.19.43.24.36.41.47.65.83.28.77-1.38-1.31-.88-.39.28.43.87,1.17.44.88l-.5-.68c-.2.07.69,1,.18.71-.18-.27-.07-.32-.15-.37-.52-.42.24.43.16.5l-.49-.56c-.07.24.1.81,0,1.06a2.59,2.59,0,0,0-.43-.51c0,.48-.5.37-1,.25l.31.54a.85.85,0,0,1-.26-.29c-.22-.1.24.3.35.52,0,.07-.28-.21-.36-.38.18.53.29,1.22-.26.87l-.08-.16c-.27-.07.63,1,.18.72l0-.09c-.41,0-.36.69-1.09.22.48.66-.47,0,.22.84-.49-.3-.57-.49-1-.58-.09,0,.35.61.35.76l-.36-.44.29.54-.47-.47,0,.17a.92.92,0,0,1,.31.27c.06.29-.49-.07-.67-.29l.07.58a1.33,1.33,0,0,1-.21-.41c.24.55-.38-.43-.17.08a2.19,2.19,0,0,1,.27.35c-.27-.2-.39-.08-.4.11l-.22-.3c-.22.09-.24.49-.43.67a1.43,1.43,0,0,1,.54.66l-.38-.41c.18.3.2.11.38.5-.11,0-.44-.44-.51-.62l0,.23c-.11-.12-.14-.2-.27-.37.18.3-.49-.28-.17.23l-.11-.12c-.18.18-.15.41-.29.58.29.36.16.34.35.66-.21,0-.56-.15-.67,0,0,.26.21.32.33.56-.26-.31-.38-.15-.49-.44a1.1,1.1,0,0,0-.16.71c.12.1.19.13.26.25s-.19-.05-.3-.2l0,0c.12.66-1.24-.34-.93.45v0l.06.49c-.13,0-.12-.26-.33-.37.17.67-.38.25-.31.72-.78-.67-.42.51-1,.18l.16.17c.1.22-.14,0-.21-.06.12.14.19.12.24.24-.22.59-1,.52-1.53.78-.18.1.6.92.1.71l-.19-.35c0,.65-.61.58-.66,1.15,0-.08-.1-.16-.08-.19-.22-.14-.23.21-.1.37-.06,0-.13-.13-.22-.19s.05.4-.14.24a.17.17,0,0,1,0-.11c0,.14-.2.16,0,.35-.2,0-.14.29-.33.25.14.29-.28.06,0,.42-.28-.36-.42-.1-.36.13-.06-.13-.14-.05-.23-.22a.26.26,0,0,0,.05.37c-.46-.25,0,.59-.52.17a3.18,3.18,0,0,1-.38,1c-.23-.3.21-.25-.06-.56-.09.32,0,.68-.27.8-.08,0-.07-.16-.09-.22-.11.3-.41.34-.47.66a.2.2,0,0,1,0-.11s-.11,0,0,.15v-.06c.2.13.15.49.22.59-.22-.4-.26.07-.5-.44a.25.25,0,0,0,.08.2c-.06,0-.1,0-.14-.15-.08.18.07.26-.05.37,0-.06,0-.1-.08-.18,0,.16,0,.32-.08.37s-.07-.07,0-.1c-.15.17-.07.53-.33.6-.13-.27-.13,0-.29-.2l-.05.15.11,0c-.09.08-.06.28-.18.29v-.13l-.13.18.14,0c0,.17.2.22,0,.27,0,0-.1.07-.23,0h0c0,.09,0,.19-.1.2s-.13-.2-.17-.22c.07.18-.18.22-.12.41,0-.05-.07-.13-.09-.15l.05.15c-.07,0-.09,0-.14-.09-.14.09.21.17,0,.21,0,0,0,0,0-.07-.18.09-.23.32-.4.38-.16-.11.08-.14-.06-.22-.17.2-.26.52-.48.65h0c.12.21-.22,0-.25.2,0,0,0-.13,0-.1-.15.08-.22.28-.38.5V146c-.1,0-.21.16-.31.21s0,.1,0,.13c-.43,0-.4.52-.76.55,0,0,0-.08,0-.06l-.17.19c.06,0,.05,0,.12,0a.23.23,0,0,1-.08.16c.06-.1-.07-.08-.13-.08s0,0,0,.06c-.18,0,.06.11-.13.17v0c0,.06-.06.13-.13.17s0-.07,0-.12-.08.23-.19.24l.09-.12c-.13,0-.12,0-.19.07h0l-.15.09h0c0,.2-.18.19-.26.37.08-.17,0-.05,0-.11s-.1.05-.1,0-.12.06-.17.19-.06.05-.08,0,0,0,.05,0-.33.21-.47.42a3,3,0,0,1-.28.33c-.06,0,0-.06,0-.06a1.24,1.24,0,0,0-.21.18s0,0,0,0,0,.06-.11.11l.05-.07-.2.2s0-.05.06-.07l-.23.21.06,0s0,0,0,0a.23.23,0,0,1,.11-.08l0,0a1.57,1.57,0,0,0,.31-.26l0,.06.1-.11s0,0,0,0,.06-.07.14-.1h0l.07-.06s0,0,0,0c.15-.08.2-.19.27-.2h0c.18-.16,0-.05.11-.19h.16v-.05s.06,0,.06,0,0,0,0-.06.24-.22.32-.17-.11.05,0,0,.1-.11.22-.14-.1.1,0,.07.18-.11.24-.17.14-.15.24-.26.26-.14.4-.19h0c0-.09.09-.16.16-.25a.12.12,0,0,1,0,.14l.08-.06a.19.19,0,0,1,.06-.12l0,.08c.11-.08.16-.24.33-.29,0-.07-.25-.1-.15-.26,0,0,.09.09.07.14s0-.07,0-.07v.1c.09,0,0-.07,0-.11s.07,0,.09.06-.06,0-.06.05a.23.23,0,0,1,.21,0s-.06-.07,0-.11.09,0,.18,0,.09-.07,0-.15.07,0,.1,0,.25-.2.11-.25h0c.1-.23.41-.23.56-.41l0,0c.07-.12.22-.21.23-.34a.14.14,0,0,1,.15.06c.06-.09,0-.14.2-.16,0,.12.08,0,0,.11.13-.05.2,0,.24-.19,0,.12.18.06.21,0l-.14,0a.33.33,0,0,1,.16-.11l.08.15c.37,0,.17-.58.57-.4,0-.15-.17,0-.22-.15.12-.05.4.09.43.07.21,0,0-.32.14-.37-.06,0-.2-.17-.13-.31s.31.15.29.24a0,0,0,0,1-.07,0c0,.05,0,.1,0,.13l0-.06c.1,0,.24-.09.28,0,0-.11,0-.12-.13-.11.2,0,.21-.14.39-.18,0,0-.12-.07-.1-.08.26-.07,0-.18.11-.31.15,0,.15.25.22.07.14,0,.15.16.16.23,0-.21.3-.08.39-.1l0,.1a.14.14,0,0,1,.08-.1l-.14-.11c.05,0,.09,0,.13,0,0-.11-.21-.2-.22-.37.1,0,.09-.18.25,0-.21.05.16.17.05.29,0,0,0-.06.1-.06a0,0,0,0,1,0,.06c.29,0-.09-.25.07-.36.07.12.2.17.21.13s-.17-.15-.18-.27c.17,0,.06-.14.12-.17h-.09c-.06-.12,0-.14,0-.22.07.07,0,.1,0,.12-.08-.25.33.07.34-.14.11,0,.17.2.26.22,0-.23.26.07.29-.14-.16-.13-.13-.09-.16-.3l-.13.26,0-.32c-.07,0-.06.19-.12.19,0-.17,0-.12-.14-.23.27.17.06-.26.29-.18l.3.39c.3.06.11-.39.39-.43l-.12,0c-.1-.18.1-.11.12-.22a.89.89,0,0,0,.27.23c-.08-.1.16-.09-.05-.38l.24.12c.22,0-.14-.54,0-.6.09.19.24.24.22.42.06,0,.12,0,0-.14.11.07,0-.29.15-.19,0-.08-.15-.24-.08-.27a.31.31,0,0,1,0,.07c0-.07,0-.16-.17-.29.53.35.4-.36.87,0a1.71,1.71,0,0,1,.25-.37s.06.08,0,.08c.26.05-.29-.53,0-.48.3.21,0,.21.16.27.46.52.14-.21.5,0v0c.23.13,0-.35.19-.41l.07.08a.94.94,0,0,1,0-.75c.14.25,0,.16.25.37,0-.07-.32-.36-.26-.51a2,2,0,0,1,.52.39l-.09.09c.31.28.13-.11.23-.1l.11.15c.13-.16-.16-.53,0-.63l-.1-.1c-.2-.44.24.15.12-.2l.33.35a2.62,2.62,0,0,1,0-.69,2.55,2.55,0,0,1,.2.81.29.29,0,0,0,.08-.4c0,.06,0,.17,0,.13-.16-.35-.18-.58-.06-.67.59.77.48,0,1.06.48,0-.45.55-.19.78-.42-.6-.56.07-.07-.48-.71,0-.08.06-.09.1,0l.5.26c.21.16.06.18.19.33.18-.05.28.24.52.35-.21-.22-.23-.37-.08-.33l-.36-.23c-.1-.49.63.45.53,0l.11.26c0-.19.38-.24,0-.86.08.07.26.24.26.32.31-.07,0-1,.5-.74l.12.19c0-.08-.19-.38,0-.24s.12.19.15.18-.14-.39,0-.33l.11.24c.42.08-.05-.74,0-1a1.43,1.43,0,0,0,.93.62l.06.08c.33-.1.09-.76.14-1.16.66.51.73-.1,1.27.09a1.44,1.44,0,0,1-.37-.56c.15.08-.18-.53.26,0h0c.48.51.48.29.59.24l-.58-.74c1.11.9.3-.84,1.23,0-.1-.23,0-.28-.12-.51l.33.41c.25,0,.37,0,.49-.25l.21.33c.14,0-.84-1.3-.76-1.4l.54.6c.19-.15.85.28.57-.44.07.1.22.29.21.34s.72.19-.05-.68c.48.58.25-.08.14-.42l.34.45c-.36-.62-.49-.78-.49-1,.07,0,.31.33.18.24.29.16-.27-.47,0-.32l.19.31c.13,0,0-.18-.22-.55s.28,0,.63.36c-.19-.25-.41-.63-.26-.55a1.19,1.19,0,0,1,.22.31c.42.18-.19-.71.29-.35a1.35,1.35,0,0,0,.25.25c-.14.09-.27.15-.29.11a5.51,5.51,0,0,1,.9,1c-.17-.37-.59-1.16-.32-1l.14.13,0,.06c.05,0,0,0,0-.12s.15.08.19.07c.3.34.28.1.35.08-.39-.46-.26-.44-.64-.78,0,0,0,.06,0,.11s0,0,0,.07l0-.05a.58.58,0,0,1-.11.13c-.15-.27-.27-.5,0-.28l-.55-.81c.61.59,1.05.84,1.4,1.24-.05-.39.25-.45-.4-1.43-.05-.15.27.22.4.34s0,.12.1.27c-.1-.3.2-.3-.31-1,.36.2.43.63.5.41l.14.21c1.19.8-.88-2,.59-1a1.41,1.41,0,0,1-.24-.2c.91.3.32-1.2,1.54-.55.28.11-.09-.33-.31-.72l.51.54-.45-.73c-.26-.61,1.5,1.15.91.09l-.36-.36c.14,0,0-.43.42,0-.06-.08-.34-.42-.13-.25l.27.3-.28-.67c.35.09,1.07,1.18,1.36,1a4,4,0,0,0-.82-1.2c-.05,0-.26-.11-.55-.4l-.08-.21a16.82,16.82,0,0,0-2.38-2.23l.43.61-.43-.38,0-.11c-.42-.34-.1,0,.09.3a3.19,3.19,0,0,0-.47-.42l.69.91a6.47,6.47,0,0,0-.81-.83c.31.42.74.71.9,1-.4-.35-.68-.69-.42-.3a2.88,2.88,0,0,1-.4-.48c.2.31,0,.23.38.72-.49-.44-.07.3-.79-.53a3.25,3.25,0,0,1,.46.82c-.77-1.07-.23.12-1.12-1,.71.94.12.63.42,1.23-.05-.08-.16-.23-.11-.2-.13,0-.37-.25-.55-.37a8.79,8.79,0,0,1,1,1.48,16.11,16.11,0,0,1-1.26-1.52c.5.57.36.71.79,1.17a7.11,7.11,0,0,1-.76-.71c.75.89.07.2.49.8-.46-.35-.73-.81-.6-.44A2.08,2.08,0,0,1,240.54,125.73Zm-1.11,3.77h0l0-.07Zm-.2.19a.15.15,0,0,0,.1-.06c.14.15.27.32.24.33S239.37,129.8,239.23,129.69Zm3.1,2.83c0,.09-.06,0-.15-.09a.22.22,0,0,0,0-.1l0-.06Z"/><path class="cls-1" d="M241.89,131.86a.23.23,0,0,0,0,0l-.11-.09.11.15Z"/><polygon class="cls-1" points="221.34 146.44 221.35 146.44 221.33 146.44 221.34 146.44"/><polygon class="cls-1" points="235.78 131.51 235.86 131.61 235.81 131.5 235.78 131.51"/><path class="cls-1" d="M220,147.15h0Z"/><path class="cls-1" d="M219.44,147.58l-.08,0Z"/><polygon class="cls-1" points="219.04 147.89 219.05 147.91 219.05 147.91 219.04 147.89"/><path class="cls-1" d="M224.9,142.31v0C224.92,142.22,224.91,142.26,224.9,142.31Z"/><path class="cls-1" d="M223.39,144.26a.37.37,0,0,1,0-.11S223.34,144.19,223.39,144.26Z"/><polygon class="cls-1" points="226.66 140.22 226.66 140.22 226.67 140.21 226.66 140.22"/><path class="cls-1" d="M223.49,144.08a.09.09,0,0,0-.09.07S223.48,144.12,223.49,144.08Z"/><polygon class="cls-1" points="217.4 149.35 217.38 149.37 217.38 149.37 217.4 149.35"/><path class="cls-1" d="M217.38,149.37l0,0Z"/><path class="cls-1" d="M217.32,149.43l0,0Z"/><path class="cls-1" d="M217.9,148.91v0Z"/><path class="cls-1" d="M218.06,148.77a1.16,1.16,0,0,0-.16.11h0S218,148.81,218.06,148.77Z"/><path class="cls-1" d="M218.82,148.36l-.14.09s.08,0,0,0C218.9,148.41,218.64,148.49,218.82,148.36Z"/><path class="cls-1" d="M219.27,148.07c-.07.06,0,0,0,0S219.33,148,219.27,148.07Z"/><path class="cls-1" d="M222.36,145.81l.07.09C222.48,145.85,222.4,145.87,222.36,145.81Z"/><polygon class="cls-1" points="222.52 144.83 222.41 144.81 222.47 144.93 222.52 144.83"/><polygon class="cls-1" points="223.47 145.33 223.46 145.37 223.53 145.26 223.47 145.33"/><path class="cls-1" d="M228.75,141.63l-.22-.24C228.53,141.46,228.75,141.74,228.75,141.63Z"/><path class="cls-1" d="M230.8,139.74c.14.13.28.18.2,0C230.94,139.76,230.79,139.68,230.8,139.74Z"/><polygon class="cls-1" points="238.11 135.52 238.19 135.7 238.18 135.52 238.11 135.52"/></svg>