<?xml version="1.0" encoding="utf-8"?>
<!-- Generator: Adobe Illustrator 22.1.0, SVG Export Plug-In . SVG Version: 6.00 Build 0)  -->
<svg version="1.1" id="Calque_1" xmlns="http://www.w3.org/2000/svg" xmlns:xlink="http://www.w3.org/1999/xlink" x="0px" y="0px"
	 viewBox="0 0 1280 659" style="enable-background:new 0 0 1280 659;" xml:space="preserve">
<title>Plan de travail 1</title>
<path d="M1094.7,499.8c1.9,3.4,6.1,4.8,9.7,3.3c0.6,4.2,4.5,7.2,8.7,6.6c3.5-0.5,6.2-3.2,6.6-6.6c3.9,1.7,8.5-0.2,10.1-4.1
	c1.4-3.2,0.4-7-2.4-9.1c3.4-2.6,4.1-7.4,1.5-10.8c-2.1-2.8-5.9-3.8-9.1-2.4c-0.6-4.2-4.5-7.2-8.7-6.6c-3.5,0.5-6.2,3.2-6.6,6.6
	c-3.9-1.7-8.5,0.2-10.1,4.1c-1.4,3.2-0.4,7,2.4,9.1C1093.6,492.1,1092.7,496.4,1094.7,499.8z M1112,480.6c5,0,9.1,4.1,9.1,9.1
	s-4.1,9.1-9.1,9.1c-5,0-9.1-4.1-9.1-9.1C1102.9,484.7,1107,480.6,1112,480.6L1112,480.6z"/>
<path d="M189.8,209.8c3.5,6,10.9,8.6,17.4,5.9c1,7.6,8,13,15.6,12c6.2-0.8,11.2-5.7,12-12c7.1,2.9,15.2-0.5,18.2-7.6
	c2.4-5.8,0.6-12.5-4.4-16.3c6.1-4.7,7.2-13.4,2.5-19.5c-3.8-5-10.5-6.8-16.3-4.4c-1-7.6-8-13-15.6-12c-6.2,0.8-11.2,5.7-12,12
	c-7.1-2.9-15.2,0.4-18.2,7.6c-2.4,5.8-0.6,12.5,4.4,16.3C187.9,196,186.3,203.7,189.8,209.8z M221,175.3c9.1,0,16.5,7.4,16.5,16.5
	s-7.4,16.4-16.5,16.4s-16.4-7.4-16.4-16.4S211.9,175.3,221,175.3L221,175.3z"/>
<path d="M897,177.6c1.1,1.9,3.5,2.8,5.6,1.9c0.3,2.5,2.6,4.2,5,3.8c2-0.3,3.6-1.8,3.8-3.8c2.3,0.9,4.9-0.2,5.8-2.4
	c0.8-1.9,0.2-4-1.4-5.2c2-1.5,2.3-4.3,0.8-6.3c-1.2-1.6-3.4-2.2-5.2-1.4c-0.3-2.5-2.6-4.2-5-3.8c-2,0.3-3.6,1.8-3.8,3.8
	c-2.3-0.9-4.9,0.2-5.8,2.4c-0.8,1.9-0.2,4,1.4,5.2C896.4,173.1,895.9,175.6,897,177.6z M907,166.5c2.9,0,5.3,2.4,5.3,5.3
	s-2.4,5.3-5.3,5.3c-2.9,0-5.3-2.4-5.3-5.3l0,0C901.7,168.8,904.1,166.5,907,166.5L907,166.5L907,166.5z"/>
<path d="M649.5,86.3c1.8,3.2,5.8,4.5,9.2,3.1c0.5,4,4.2,6.9,8.2,6.3c3.3-0.4,5.9-3,6.3-6.3c3.7,1.6,8-0.2,9.6-3.9
	c1.3-3.1,0.3-6.6-2.3-8.7c3.2-2.5,3.8-7.1,1.4-10.3c-2-2.7-5.6-3.6-8.7-2.3c-0.5-4-4.2-6.9-8.2-6.3c-3.3,0.4-5.9,3-6.3,6.3
	c-3.7-1.6-8,0.2-9.6,3.9c-1.3,3.1-0.3,6.6,2.3,8.7C648.5,79,647.7,83.1,649.5,86.3z M666,68.1c4.8,0,8.7,3.9,8.7,8.7
	s-3.9,8.7-8.7,8.7s-8.7-3.9-8.7-8.7v0C657.3,72,661.2,68.1,666,68.1z"/>
<path d="M392.1,306.6c1.3,2.3,4.2,3.3,6.6,2.2c0.4,2.9,3,5,5.9,4.6c2.4-0.3,4.3-2.2,4.6-4.6c2.7,1.1,5.8-0.2,6.9-2.9
	c0.9-2.2,0.2-4.8-1.7-6.2c2.3-1.8,2.8-5.1,1-7.4c-1.5-1.9-4-2.6-6.2-1.7c-0.4-2.9-3-5-5.9-4.6c-2.4,0.3-4.3,2.2-4.6,4.6
	c-2.7-1.1-5.8,0.2-6.9,2.9c-0.9,2.2-0.2,4.8,1.7,6.2C391.4,301.4,390.8,304.3,392.1,306.6z M404,293.5c3.5,0,6.3,2.8,6.3,6.3
	c0,3.5-2.8,6.3-6.3,6.3c-3.5,0-6.3-2.8-6.3-6.3S400.5,293.5,404,293.5C404,293.5,404,293.5,404,293.5z"/>
<path d="M21.7,525.8c7,12.1,21.8,17.1,34.7,11.8c2,15.2,15.9,26,31.1,24c12.5-1.6,22.4-11.5,24-24c14.1,5.9,30.4-0.7,36.4-14.8
	c4.9-11.7,1.3-25.3-8.8-32.9c12.2-9.3,14.5-26.8,5.1-39c-7.7-10-21.1-13.6-32.7-8.8c-2-15.2-15.9-26-31.1-24
	c-12.5,1.6-22.4,11.5-24,24c-14.2-5.9-30.4,0.9-36.3,15.1c-4.8,11.6-1.2,25,8.8,32.7C17.8,498.2,14.7,513.7,21.7,525.8z M84,456.9
	c18.1,0,32.8,14.7,32.8,32.8c0,18.1-14.7,32.8-32.8,32.8s-32.8-14.7-32.8-32.8S65.9,456.9,84,456.9C84,456.9,84,456.9,84,456.9z"/>
<path d="M1281,37.9c-19.8,0-36.5,14.7-39.1,34.3c-20.1-8.4-43.1,1.1-51.5,21.2c-6.9,16.5-1.8,35.6,12.4,46.4
	c-17.3,13.2-20.6,37.9-7.4,55.2c10.9,14.2,29.9,19.3,46.4,12.4c2.6,19.6,19.3,34.3,39.1,34.3 M1281,186.4
	c-25.7-0.4-46.3-21.5-45.9-47.2c0.4-25.2,20.7-45.5,45.9-45.9"/>
</svg>
