<svg id="Calque_1" data-name="Calque 1" xmlns="http://www.w3.org/2000/svg" viewBox="0 0 841.89 595.28"><title>Plan de travail 1</title><path d="M685.87,115.73a28.26,28.26,0,0,0-27.88,24H630.86A57.45,57.45,0,0,0,581.2,87.36V59.25a28.31,28.31,0,1,0-14.66,0v28A57.57,57.57,0,0,0,517,132.64c-19.21-5.71-40.65-6.34-62.47-1.4-7.11-5-14.39-9.84-21.58-14.13-18.7-11.15-33.49-16.87-45.26-17.45A79.62,79.62,0,0,0,303.74,177a83,83,0,0,0,34,69.15,7,7,0,0,0-.77,1.69c-8.8,38.34-.67,74.58,22.26,100.48l-12,12a7.33,7.33,0,1,0,10.37,10.36l12.15-12.16a101.26,101.26,0,0,0,67.24,24.92,125.85,125.85,0,0,0,33.72-4.87,83.11,83.11,0,0,0,67.78,35.57l2.45,0a79.63,79.63,0,0,0,77.36-83.92c-.58-11.77-6.29-26.58-17.45-45.28-4.31-7.23-9.17-14.54-14.22-21.7,5.19-21.91,4.72-43.26-1-62.42a57.93,57.93,0,0,0,28.63-15.56,57.31,57.31,0,0,0,16-30.86h29.41a28.28,28.28,0,1,0,26.28-38.7ZM560.22,32a13.65,13.65,0,1,1,13.64,13.65A13.66,13.66,0,0,1,560.22,32ZM318.39,177.47a65,65,0,0,1,65.15-63.26c1.12,0,2.26,0,3.39.09,6.31.31,18.12,3.23,38.48,15.4,29.45,17.57,61.4,45.16,74.71,57.07-28.16,21.38-88.45,62.42-116.89,60.8C346.37,245.73,317.29,214.29,318.39,177.47Zm141.5,133.35L407.09,258a204.84,204.84,0,0,0,30.42-13.22l35.6,35.59A202,202,0,0,0,459.89,310.82ZM480.47,267l-29.6-29.61c9.41-5.44,18.54-11.23,26.87-16.79l19.52,19.52C491.71,248.47,485.92,257.61,480.47,267Zm-106.76,75.4c-14.58-14.58-23-33.77-25-55.13l81.2,81.19A87.58,87.58,0,0,1,373.71,342.43Zm76.35,25.5L348.78,266.65A118,118,0,0,1,350.72,254a81.74,81.74,0,0,0,31.78,8.17c.66,0,1.34.05,2,.05a51.36,51.36,0,0,0,5.69-.37L456,327.67a47.68,47.68,0,0,0-.32,7.73,81.89,81.89,0,0,0,7.41,30.11A117.53,117.53,0,0,1,450.06,367.93ZM603.6,331a65,65,0,0,1-63.17,68.54c-37,1.16-68.25-28-70.09-64.84-1.42-28.65,39.42-88.74,60.79-116.89,11.91,13.3,39.5,45.24,57.08,74.71C600.36,312.86,603.28,324.66,603.6,331ZM536,201.38a7.14,7.14,0,0,0-5.65-2.3,7.33,7.33,0,0,0-5.44,2.77c-.95,1.2-9,11.39-19.25,26L490,212.22c14.62-10.27,24.8-18.3,26-19.26a7.35,7.35,0,0,0,.46-11.09c-1.2-1.12-20.87-19.48-45.68-38.57,31.41-3.56,60.72,5.89,80.44,26.58,18.89,19.81,27.09,47.42,23.35,77.22C555.53,222.27,537.15,202.59,536,201.38Zm67.83-26.45a43.13,43.13,0,0,1-23.57,11.91,99.21,99.21,0,0,0-49.27-49,42.3,42.3,0,0,1,12-23.83,43,43,0,0,1,60.87,60.87Zm82-17.24A13.65,13.65,0,1,1,699.51,144,13.66,13.66,0,0,1,685.87,157.69Z"/><path d="M326,379.43s-3.12,2.81-8.16,7.79a7.33,7.33,0,0,0,10.29,10.43c4.72-4.66,7.64-7.3,7.7-7.36A7.32,7.32,0,0,0,326,379.43Z"/><path d="M216.28,492a7.33,7.33,0,0,0,3.73-1,159.6,159.6,0,0,1,18.28-9.32,7.32,7.32,0,1,0-5.78-13.46,171.56,171.56,0,0,0-20,10.18A7.32,7.32,0,0,0,216.28,492Z"/><path d="M179.88,520.78a7.35,7.35,0,0,0,5.26-2.22,172.69,172.69,0,0,1,15.2-13.9,7.33,7.33,0,1,0-9.22-11.39,188.43,188.43,0,0,0-16.49,15.07,7.33,7.33,0,0,0,5.25,12.44Z"/><path d="M147.76,556.52a7.34,7.34,0,0,0,10.07-2.46c3.63-6,7.54-11.77,11.61-17.19a7.32,7.32,0,1,0-11.7-8.81,220.88,220.88,0,0,0-12.44,18.4A7.32,7.32,0,0,0,147.76,556.52Z"/><path d="M353.29,469.34a7.33,7.33,0,1,0-7.4,12.65,61.3,61.3,0,0,1,14.9,12,7.27,7.27,0,0,0,5.46,2.45,7.32,7.32,0,0,0,5.47-12.21A76.11,76.11,0,0,0,353.29,469.34Z"/><path d="M374.57,549.38a7.32,7.32,0,0,0-9.93,3A45.56,45.56,0,0,1,353,566.55,7.33,7.33,0,0,0,362.11,578a60.1,60.1,0,0,0,15.42-18.74A7.3,7.3,0,0,0,374.57,549.38Z"/><path d="M288.78,571.63a49.48,49.48,0,0,1-14.85-7.46A7.32,7.32,0,0,0,265.32,576a64,64,0,0,0,19.27,9.65l2.32.67a7.33,7.33,0,0,0,4-14.1Z"/><path d="M314,576.4A7.33,7.33,0,1,0,313,591c2.28.15,4.59.23,6.95.24a82.67,82.67,0,0,0,16.39-1.56,7.33,7.33,0,1,0-2.91-14.37A75.83,75.83,0,0,1,314,576.4Z"/><path d="M291.56,434.1a7.32,7.32,0,0,0,5.66-2.67c4.32-5.25,9-10.62,13.84-16a7.33,7.33,0,1,0-10.85-9.85c-5,5.53-9.84,11.1-14.31,16.53a7.32,7.32,0,0,0,1,10.31A7.18,7.18,0,0,0,291.56,434.1Z"/><path d="M386.31,533.26a65.73,65.73,0,0,0,.72-9.51,58.9,58.9,0,0,0-1.84-14.69,7.33,7.33,0,1,0-14.2,3.65,44.35,44.35,0,0,1,1.38,11,52,52,0,0,1-.55,7.38,7.31,7.31,0,0,0,6.18,8.31,6.72,6.72,0,0,0,1.07.09A7.34,7.34,0,0,0,386.31,533.26Z"/><path d="M259.11,474.18a8,8,0,0,0,1.8-.22,144.3,144.3,0,0,1,20.1-3.61,7.33,7.33,0,0,0-1.53-14.58l-.68.08q1.68-2.46,3.44-4.94a7.33,7.33,0,1,0-11.94-8.51c-4.07,5.71-7.81,11.39-11.17,16.89l-1.81.45a7.33,7.33,0,0,0,1.79,14.44Z"/><path d="M243.82,524.91a7.33,7.33,0,0,0-6.21,8.3,56.35,56.35,0,0,0,8.56,22.92,7.33,7.33,0,0,0,12.29-8,41.9,41.9,0,0,1-6.34-17A7.25,7.25,0,0,0,243.82,524.91Z"/><path d="M244.65,514.42a7.25,7.25,0,0,0,1.6.17,7.35,7.35,0,0,0,7.15-5.74,110.33,110.33,0,0,1,6.31-19.08A7.32,7.32,0,1,0,246.25,484a123.47,123.47,0,0,0-7.16,21.67A7.33,7.33,0,0,0,244.65,514.42Z"/><path d="M298,462.1a7.32,7.32,0,0,0,6.73,7.88,110.68,110.68,0,0,1,19.86,3.33,7.67,7.67,0,0,0,1.89.25,7.33,7.33,0,0,0,1.87-14.42,126,126,0,0,0-22.47-3.78A7.37,7.37,0,0,0,298,462.1Z"/><path d="M132.34,589.51a7.25,7.25,0,0,0,2.82.57,7.33,7.33,0,0,0,6.77-4.51c1.39-3.34,2.84-6.6,4.32-9.78a7.33,7.33,0,1,0-13.28-6.2c-1.57,3.35-3.1,6.81-4.56,10.33A7.31,7.31,0,0,0,132.34,589.51Z"/></svg>