<?xml version="1.0" encoding="utf-8"?>
<!-- Generator: Adobe Illustrator 22.1.0, SVG Export Plug-In . SVG Version: 6.00 Build 0)  -->
<svg version="1.1" id="Calque_1" xmlns="http://www.w3.org/2000/svg" xmlns:xlink="http://www.w3.org/1999/xlink" x="0px" y="0px"
	 viewBox="0 0 171.3 186.9" style="enable-background:new 0 0 171.3 186.9;" xml:space="preserve">
<title>Plan de travail 1</title>
<path d="M112.9,24.3c-8.9-7.2-21.6-6.3-28.4,2c-3.7,4.6-5.3,9.5-4.7,14.5c0.1,0.6,0.2,1.2,0.4,1.7C59.6,39.1,40,53.2,36.6,73.9
	c-1.1,6.7-0.4,13.6,2.1,20c-0.6,0-1.3,0-1.9,0c-5.1,0.4-9.6,3-13.4,7.6c-6.8,8.4-5.2,21.1,3.7,28.3c3.8,3.1,8.6,4.8,13.6,4.8
	c1.1,6.4,3,15.5,10.1,21.3c8.2,6.6,25.1,9.9,34.3-1.4c3-3.8,4.3-8.6,3.7-13.3l0.5,0.4c9.9,8,23.1,10.5,35.2,6.7l29.4,1.7
	c2.6,0.2,4.9-1.9,5-4.5c0-0.5,0-1-0.2-1.5l-7.7-28.4c1.3-12.6-3.9-25.1-13.7-33.1l-0.3-0.3c4.6-0.4,8.9-2.7,11.8-6.2
	c9.3-11.4,2.7-27-5.7-33.8c-7.2-5.8-16.4-5.8-22.9-5.6C119.4,31.7,116.8,27.4,112.9,24.3z M141.2,105.7L113,140.4
	c-4.7,0-9.3-1.3-13.4-3.6L135,93.3C138.1,96.8,140.2,101.1,141.2,105.7z M91.8,131.2l-9.8-8l36-44.3l9.8,8L91.8,131.2z M52.1,62.1
	C62,49.8,80,48,92.2,57.9l18.4,15l-36,44.3l-18.4-15C44,92.3,42.1,74.3,52.1,62.1z M45.8,106.5l29.4,23.9c1.4,2.4,7.2,12.5,2.7,18.1
	c-5.6,6.9-16.4,3.7-20.9,0.1c-4.8-3.9-6-10.9-6.9-16.5c-0.2-1.3-0.4-2.6-0.7-3.7c-0.5-2.6-3.1-4.2-5.6-3.7c-0.1,0-0.2,0-0.3,0.1
	c-3.6,0.9-7.4,0-10.2-2.4c-4.8-3.9-5.9-10.6-2.3-14.9c2.1-2.6,4.3-3.9,6.7-4.1C41.8,103,45.6,106.3,45.8,106.5z M148,140.1
	l-21.5-1.3l15.9-19.5L148,140.1z M137.3,49.6c4.5,3.7,9.8,13.6,4.3,20.4c-4.5,5.5-15.5,1.9-18.1,1L94,46.9c0,0-4.1-3.2-4.6-7.3
	c-0.3-2.4,0.6-4.7,2.6-7.3c3.5-4.3,10.2-4.5,15-0.6c2.9,2.3,4.5,5.8,4.4,9.5c-0.1,2.6,1.9,4.9,4.5,5c0.1,0,0.1,0,0.2,0
	c1.1,0,2.4,0,3.8-0.1C125.5,45.9,132.6,45.7,137.3,49.6L137.3,49.6z"/>
<circle cx="64.1" cy="85.4" r="5.2"/>
<circle cx="77" cy="69.4" r="5.2"/>
<path d="M83.4,81.4c1.8,0.1,3.4,1.4,3.8,3.2c1,3.2-0.8,6.5-4,7.5c-0.7,0.2-1.5,0.3-2.2,0.2c-1.8-0.1-3.4-1.3-3.9-3.1v-0.1
	c0-0.1,0-0.1,0.1-0.2c0,0,0.1,0,0.1,0c1,0.7,2.2,1.1,3.4,0.9c2.5-0.3,4.3-2.5,4.1-5.1c-0.1-1.2-0.7-2.4-1.6-3.2c0-0.1,0-0.1,0-0.2
	C83.3,81.5,83.4,81.5,83.4,81.4L83.4,81.4z"/>
</svg>
