<svg id="Calque_1" data-name="Calque 1" xmlns="http://www.w3.org/2000/svg" viewBox="0 0 193.49 202.59"><defs><style>.cls-1{fill:#fccb00;}.cls-2{fill:#1fb4b1;}</style></defs><title>Plan de travail 1</title><path class="cls-1" d="M160,116.89l10.75,16.44L163.83,150l-11.16,3.41-10,11.13L141,175.21l-15.17,7.86-19.18-1.14L104,156.58l-16.59,7.93L69,164l-27.43,3.53-19.11.27,11.51-38.11,4-19.32L52,94.81,38.22,89.14l-10-15.77,13.11-20.5,18.22-3.76,7-1.78L75,33.45s14.51-7.12,15.32-5S100,37.12,100,37.12l2.59,9.08-3.21,6.53,15.83,4.86,18,5.45L148,76.44,149.45,88l-1,25.23Z"/><path d="M167.7,153c10.4-8.13,12.65-22.68,5-32.45-4.22-5.4-9.3-8.41-15.11-9-.7-.06-1.37,0-2.06,0a43.85,43.85,0,0,0-47.07-59.91,18.91,18.91,0,0,0,.52-2.19c.87-5.81-.86-11.52-5.12-17-7.69-9.84-22.4-11.23-32.8-3.1a24.71,24.71,0,0,0-8.95,14c-7.5-.39-18.19-.64-26.59,5.93C26,56.83,17.91,75,28.34,88.36c3.77,4.83,8.89,6.92,14,7.63l-.63.49a43.52,43.52,0,0,0-16.59,37.91L15.67,167a5.5,5.5,0,0,0,5.49,7l33.92-1.33a43.57,43.57,0,0,0,40.79-6.94l.38-.3a20.33,20.33,0,0,0,4,14.93c10.49,13.42,29.67,9.95,39.47,2.29,8.4-6.57,10.78-17,12.23-24.3A24.84,24.84,0,0,0,167.7,153ZM68.79,163.91,37,123.19A32.3,32.3,0,0,1,44.46,109l39.93,51.1A32.42,32.42,0,0,1,68.79,163.91Zm-16-62.11,11.54-9,40.6,51.93-11.55,9Zm88.05-27a33,33,0,0,1-5.67,46.27L113.57,138,73,86,94.57,69.14A33,33,0,0,1,140.83,74.81ZM92.44,56.35,58,83.25c-3,1-15.92,4.88-21-1.65-6.28-8,0-19.45,5.31-23.59,5.58-4.36,13.78-3.91,20.36-3.54,1.56.09,3,.16,4.33.18A5.5,5.5,0,0,0,72.57,49a13.32,13.32,0,0,1,5.28-10.9c5.62-4.39,13.42-3.85,17.37,1.21,2.35,3,3.31,5.81,2.92,8.54C97.45,52.68,92.69,56.17,92.44,56.35ZM28.35,162.72l6.94-23.84,17.87,22.87ZM133,174c-5.29,4.13-17.85,7.54-24-.39-5.06-6.48,1.83-18,3.58-20.65l34.65-27.09s4.6-3.79,9.43-3.32c2.72.26,5.18,1.83,7.5,4.81,3.9,5,2.5,12.63-3.12,17a13.38,13.38,0,0,1-11.83,2.54,5.49,5.49,0,0,0-6.85,4c-.3,1.28-.59,2.71-.89,4.24C140.11,161.6,138.54,169.62,133,174Z"/><circle cx="111.48" cy="82.33" r="6.04"/><circle cx="126.1" cy="101.03" r="5.98"/><path d="M111,105.14a4.89,4.89,0,0,1-4.57,3.49,7,7,0,0,1-7-9.07A4.88,4.88,0,0,1,103.82,96h.12a.16.16,0,0,1,.15.16.15.15,0,0,1-.06.11,5.73,5.73,0,0,0-1.94,3.65,5.31,5.31,0,0,0,1.13,3.9,5.38,5.38,0,0,0,3.51,2,5.68,5.68,0,0,0,4-1,.16.16,0,0,1,.22,0,.13.13,0,0,1,0,.12Z"/><circle class="cls-2" cx="68.11" cy="106.02" r="4.24"/><circle class="cls-2" cx="66.07" cy="135.15" r="4.34"/><circle class="cls-2" cx="69.09" cy="152.7" r="3.36"/><circle class="cls-2" cx="88.72" cy="148.86" r="4.28"/><circle class="cls-2" cx="41.98" cy="134.97" r="5.13"/><circle class="cls-2" cx="50.25" cy="75.07" r="6.28"/><circle class="cls-2" cx="122.88" cy="166.23" r="4.03"/><circle class="cls-2" cx="89.86" cy="129.69" r="4.55"/></svg>