<svg id="Calque_1" data-name="Calque 1" xmlns="http://www.w3.org/2000/svg" viewBox="0 0 435.32 622.33"><defs><style>.cls-1{fill:#fff;}</style></defs><title>Plan de travail 1</title><path class="cls-1" d="M64.8,237.68c12.63,3.71,28.23,5.2,45.32,5.2h9.66a15.91,15.91,0,0,0-3.71,2.23c-31.21,20.06-58.7,49.78-48.3,66.13,2.23,3.72,7.43,7.43,17.09,7.43a50.91,50.91,0,0,0,16.35-3c14.12-3.71,30.46-11.89,46.81-22.29.74-.74,2.23-1.49,3-2.23-1.48,2.23-1.48,3.71-2.23,5.2a185.62,185.62,0,0,0-15.6,49c-3,21.55,3.72,29.73,9.66,32.7a23.17,23.17,0,0,0,5.94,1.49c17.1,0,38.65-29,52.76-58.71,1.49-2.23,2.23-5.2,3-7.43-7.43,66.14-16.35,181.32-1.49,265.28a7.24,7.24,0,0,0,7.43,6h1.49a7.7,7.7,0,0,0,5.94-8.92c-15.6-84.71-5.2-205.09,2.23-269,1.49,5.21,3,11.15,4.46,16.35,5.94,18.58,14.12,34.93,22.29,46.82,10.41,14.12,18.58,17.83,24.52,17.83a9.45,9.45,0,0,0,4.46-.74c5.95-2.23,14.12-8.92,13.38-31.21,0-14.12-3.72-32.7-9.66-50.53a5.59,5.59,0,0,0-1.49-3c1.49.74,2.23,2.23,3.72,3,14.86,12.63,29.72,22.29,43.1,28.24,8.17,3.71,14.86,5.2,20.06,5.2a18,18,0,0,0,14.12-5.95c13.37-15.6-11.15-48.3-39.39-72.08a10.32,10.32,0,0,0-3-2.23c1.49,0,3,.75,4.46.75a238.11,238.11,0,0,0,31.21,2.23A158.69,158.69,0,0,0,372.43,260c21.55-3.72,27.5-11.89,28.24-18.58s-2.23-16.35-21.55-26c-12.63-6.68-30.46-11.14-49.78-14.11a6.66,6.66,0,0,1-3.72-.75c1.49-.74,3-.74,4.46-1.48a190.48,190.48,0,0,0,44.58-26c17.09-14.12,17.09-24.52,14.87-30.47-8.18-18.58-48.31-11.14-81.74,3-.75.75-2.23.75-3,1.49a13,13,0,0,1,3-3.71c21.55-30.47,36.41-67.63,20.06-79.52-5.2-3.71-15.61-5.2-33.44,7.44-11.15,8.91-23.78,22.29-34.93,37.89h0c-.74.75-1.48,2.23-2.22,3v-4.46c2.22-37.16-4.46-77.28-24.53-78-20.06-1.48-31.95,37.9-34.18,74.31v3.72q-1.11-2.23-2.23-4.46c-17.09-32.7-44.58-63.16-61.67-53.5-17.84,9.66-6.69,49,10.4,81a5.69,5.69,0,0,1,1.49,3c-1.49-.74-2.23-1.48-3.72-2.22a193,193,0,0,0-47.56-20.07c-21.55-4.46-29.72.75-33.44,6.69s-1.48,17.09,13.38,33.44c9.66,10.4,24.52,21.55,40.87,31.21a5.64,5.64,0,0,0,3,1.48h-4.46c-37.15.75-76.54,11.15-75.79,31.21C38.79,222.82,43.25,231.73,64.8,237.68Zm74.3,44.58c-34.18,22.3-56.47,24.52-59.44,21.55-1.49-3.71,9.66-23.78,43.84-46.07,26.75-17.83,46.81-23,55-23,2.23,0,3.71,0,4.46.75C184.43,239.91,173.29,260,139.1,282.26ZM188.15,315c-17.09,36.41-34.93,50.53-39.39,49.79-3-2.23-3.71-25.27,13.38-62.42,16.35-35.67,34.18-49.79,38.64-49.79h0C204.5,255.51,205.24,278.55,188.15,315Zm84,58.7h0c-4.46,0-20.07-16.35-32.7-54.24-12.63-38.64-8.92-60.94-5.2-63.17h0c4.46,0,20.06,16.35,32.7,54.25C278.81,349.14,275.09,371.43,272.12,373.66Zm76.54-50.53c-3,2.23-25.27-3-56.48-29s-39.38-47.56-37.9-51.27c.75,0,1.49-.74,2.23-.74,7.43,0,27.5,6.68,54.25,29.72C342,298.61,350.88,320.16,348.66,323.13ZM329.34,216.87c40.12,5.95,58.7,19.32,58.7,23.78-1.49,3.71-23,11.15-63.16,5.2s-58.71-19.32-58.71-23.78c.75-3,12.64-7.43,34.18-7.43Q312.62,213.53,329.34,216.87Zm-14.12-57.22c23.78-10.4,41.61-13.37,52-13.37,5.95,0,9.66.74,10.41,2.23.74,3.71-14.12,21.55-51.28,37.15s-60.19,14.12-62.42,11.15C263.2,193.09,278.06,175.26,315.22,159.65ZM273.6,118.78h0c22.3-31.21,41.62-42.35,46.82-42.35h.74c3,3-.74,26-23.78,58.7S253.54,179,249.82,177.49C246.85,174.51,249.82,151.48,273.6,118.78Zm-52,122.61a25.85,25.85,0,0,1-26-26,26,26,0,0,1,52,0A25.85,25.85,0,0,1,221.59,241.39Zm-6-136c2.23-40.13,14.12-60.19,17.84-60.94,3.71,1.49,13.37,22.3,10.4,62.42-2.23,40.13-14.12,60.19-17.83,60.94C222.33,167.08,213.41,146.28,215.64,105.41ZM144.31,63.79c3.71-1.48,23,11.89,41.61,47.56,19.32,35.67,19.32,58.71,16.35,60.94-3.72,1.48-23-11.89-41.62-47.56C141.33,89.06,141.33,66,144.31,63.79ZM76.69,127c3-3,26-1.49,60.93,18.57s47.56,39.39,46.07,43.1c-3,3-26,1.49-60.93-18.57C88.57,150,75.94,130.67,76.69,127Zm37.89,72.82h6c36.41,0,55,8.92,55.73,12.63-.74,3.72-20.81,14.86-61.68,16.35-40.12,1.49-60.93-8.92-62.42-12.63C54.39,211.67,74.46,200.52,114.58,199.78Z"/></svg>