<svg id="Calque_1" data-name="Calque 1" xmlns="http://www.w3.org/2000/svg" viewBox="0 0 357.16 342.7"><title>Plan de travail 1</title><path d="M197.22,127.54a48.64,48.64,0,1,0,26.36,26.28A48.28,48.28,0,0,0,197.22,127.54Zm18.71,60.33a40.31,40.31,0,1,1-.05-30.85A40,40,0,0,1,215.93,187.87Z"/><path d="M307.89,119A56.93,56.93,0,0,0,232.2,43.29a56.94,56.94,0,0,0-107,0A56.93,56.93,0,0,0,49.47,119a56.93,56.93,0,0,0,0,107,56.93,56.93,0,0,0,75.68,75.69,56.94,56.94,0,0,0,107,0A56.93,56.93,0,0,0,307.89,226a56.93,56.93,0,0,0,0-107ZM125.54,52.89a4.16,4.16,0,0,0,6.13-2.54,48.6,48.6,0,0,1,94,0,4.17,4.17,0,0,0,6.13,2.54,48.68,48.68,0,0,1,55.79,4.78L245.78,99.49a39.44,39.44,0,0,0-67.25-22.56,39.45,39.45,0,0,0-67.15,22.39L69.74,57.68A48.68,48.68,0,0,1,125.54,52.89Zm139.83,122.8a31.13,31.13,0,0,1-23,55.67,4.17,4.17,0,0,0-4.68,4.69,31.14,31.14,0,0,1-55.6,23.14,4.16,4.16,0,0,0-3.32-1.64h0a4.16,4.16,0,0,0-3.32,1.65,31.13,31.13,0,0,1-55.67-23,4.18,4.18,0,0,0-4.13-4.72,3.64,3.64,0,0,0-.57,0A31.13,31.13,0,0,1,92,176a4.17,4.17,0,0,0,0-6.64,31.13,31.13,0,0,1,23-55.67,4.12,4.12,0,0,0,3.51-1.19,4.17,4.17,0,0,0,1.18-3.5,31.13,31.13,0,0,1,55.6-23.14,4.14,4.14,0,0,0,3.31,1.64h0a4.15,4.15,0,0,0,3.31-1.65,31.13,31.13,0,0,1,55.67,23,4.17,4.17,0,0,0,1.19,3.5,4.12,4.12,0,0,0,3.51,1.18,31.13,31.13,0,0,1,23.13,55.6,4.17,4.17,0,0,0,0,6.64ZM59.07,225.63a4.17,4.17,0,0,0-2.54-6.13,48.59,48.59,0,0,1,0-94,4.17,4.17,0,0,0,2.54-6.13,48.69,48.69,0,0,1,4.78-55.79l41.83,41.83a39.42,39.42,0,0,0-22.57,67.23,39.44,39.44,0,0,0,22.4,67.14L63.86,281.43A48.68,48.68,0,0,1,59.07,225.63Zm172.74,66.48a4.17,4.17,0,0,0-6.13,2.54,48.6,48.6,0,0,1-94,0,4.17,4.17,0,0,0-2.43-2.79,4.27,4.27,0,0,0-1.6-.32,4.14,4.14,0,0,0-2.1.57,48.66,48.66,0,0,1-55.78-4.78l41.82-41.82a39.44,39.44,0,0,0,67.24,22.56A39.45,39.45,0,0,0,246,245.68l41.64,41.64A48.68,48.68,0,0,1,231.81,292.11Zm69-72.61a4.18,4.18,0,0,0-2.54,6.13,48.66,48.66,0,0,1-4.78,55.79L251.68,239.6a39.42,39.42,0,0,0,22.56-67.24,39.43,39.43,0,0,0-22.41-67.13l41.66-41.66a48.66,48.66,0,0,1,4.79,55.8,4.18,4.18,0,0,0,2.54,6.13,48.59,48.59,0,0,1,0,94Z"/><path d="M150.61,115.89a4.18,4.18,0,0,0,3.85,2.57,4.08,4.08,0,0,0,1.6-.32,4.17,4.17,0,0,0,2.25-5.45l-4-9.62a4.17,4.17,0,1,0-7.7,3.2Z"/><path d="M109.17,148.34l9.63,4a4.28,4.28,0,0,0,1.59.31,4.17,4.17,0,0,0,1.59-8l-9.63-4a4.17,4.17,0,0,0-3.18,7.7Z"/><path d="M118.87,192.87l-9.62,4a4.16,4.16,0,1,0,3.2,7.69l9.62-4a4.16,4.16,0,1,0-3.2-7.69Z"/><path d="M156.23,226.93a4.18,4.18,0,0,0-5.44,2.26l-4,9.64a4.17,4.17,0,0,0,7.71,3.18l4-9.64A4.16,4.16,0,0,0,156.23,226.93Z"/><path d="M206.74,229.11a4.17,4.17,0,1,0-7.7,3.2l4,9.62a4.16,4.16,0,1,0,7.69-3.2Z"/><path d="M248.18,196.66l-9.63-4a4.17,4.17,0,0,0-3.18,7.71l9.63,4a4.07,4.07,0,0,0,1.59.32,4.17,4.17,0,0,0,1.59-8Z"/><path d="M236.89,152.45a4.15,4.15,0,0,0,1.6-.32l9.62-4a4.16,4.16,0,1,0-3.2-7.69l-9.62,4a4.16,4.16,0,0,0,1.6,8Z"/><path d="M201.12,118.07a4.26,4.26,0,0,0,1.59.32,4.18,4.18,0,0,0,3.86-2.58l4-9.64a4.17,4.17,0,0,0-7.7-3.18l-4,9.64A4.17,4.17,0,0,0,201.12,118.07Z"/></svg>