<svg id="Calque_1" data-name="Calque 1" xmlns="http://www.w3.org/2000/svg" viewBox="0 0 357.16 342.7"><title>Plan de travail 1</title><path d="M273.6,136.61a161.84,161.84,0,0,0-16.62-.06q3.57-3.5,7.1-7.35C288.79,102,292,44.42,292,44.42s-53.67,2.23-82.82,33.3a153.66,153.66,0,0,0-24,33.52,158,158,0,0,0-8.12-32.87c-12.43-34.59-61.73-64.48-61.73-64.48s-23.23,48.43-9.47,88.76a153,153,0,0,0,18.31,37,158.34,158.34,0,0,0-32.85-8.25C54.93,126.08,5.4,155.58,5.4,155.58s31.86,43.25,73.92,50a153.08,153.08,0,0,0,41.23,1.18,158.76,158.76,0,0,0-22.71,25.12c-21.74,29.65-18.93,87.24-18.93,87.24s53.14-7.82,78.88-41.78a153.4,153.4,0,0,0,20.4-35.85,158.66,158.66,0,0,0,11.52,31.85c16,33.11,68.13,57.67,68.13,57.67s18-50.59.14-89.26a153.33,153.33,0,0,0-22.07-34.85,158.5,158.5,0,0,0,33.52,4.78c36.74,1.45,82.92-33.08,82.92-33.08S316.14,139,273.6,136.61Zm-81.08,88.76c-.27,0-1.75,0-4.57.13s-5.1.14-6.85.14c-5.77,0-10.87-.41-13.16-3.09-3.22-3.76-3.22-10.07-1.74-17.73a219.27,219.27,0,0,1,6-23.77c.67-2,5.78-18.4,7.39-24.3,2.28-7.93,3.22-13.17,3.09-15.85-.54-7.39-2.69-10.61-7.66-9.94a17.53,17.53,0,0,1-2,.14,9.62,9.62,0,0,0-.67,2.55c-.54,3.76-.54,8.86-.41,15.58.14,3.35.14,5.23.14,5.5a3.9,3.9,0,1,1-7.79,0c0-.27,0-2.15-.14-5.5-.13-6.85-.13-12.49.54-16.93,1.07-6.58,3.36-8.19,9.27-9.13,11.28-1.47,15.84,7,16.51,17.19.54,7.12-3.76,20.28-7.52,32.1l-3.22,10.74a224.34,224.34,0,0,0-5.91,23,39.24,39.24,0,0,0-.67,8.05,5.82,5.82,0,0,0,.54,3c.4.13.8.13,1.48.27a35.66,35.66,0,0,0,5.9.4c1.88,0,4.17,0,7-.14s4.16-.13,4.43-.13a3.9,3.9,0,1,1,0,7.79Z"/></svg>