<svg id="Calque_1" data-name="Calque 1" xmlns="http://www.w3.org/2000/svg" viewBox="0 0 357.16 342.7"><title>Plan de travail 1</title><path d="M289.25,138.06a118.29,118.29,0,0,0-15.11-4.1,115.77,115.77,0,0,0,12.15-13.28c27.79-35.57,5.51-99.41,5.51-99.41s-67.33-6.17-95.12,29.4a116.8,116.8,0,0,0-8.79,12.95,115.84,115.84,0,0,0-8.6-15.81C154.7,10,87.08,10.23,87.08,10.23s-27.75,61.66-3.17,99.51a115.56,115.56,0,0,0,9.39,12.53,117.53,117.53,0,0,0-17.75,3c-43.8,10.93-65.55,75-65.55,75s45,42.34,87.27,36.51a55.25,55.25,0,0,0,5.79-1.12,117.84,117.84,0,0,0,15-4.84c1.17,1.14,2.38,2.25,3.61,3.32.89.77,1.79,1.51,2.7,2.24A116.29,116.29,0,0,0,123,254c0,45.14,56.86,81.73,56.86,81.73s56.86-36.59,56.86-81.73a117.32,117.32,0,0,0-1-15.63,115.94,115.94,0,0,0,16.51,7.16c42.68,14.7,95.8-27.15,95.8-27.15S331.93,152.76,289.25,138.06ZM192.91,196.7a42.34,42.34,0,0,1-1.39,4.87,21.4,21.4,0,0,1-9.2,10,12.05,12.05,0,0,1-9.88,1.39,12.26,12.26,0,0,1-5-3.2c-4.59-4.87-4.59-10.72-4.59-20.33a4,4,0,1,1,8.07,0c0,9,.14,12.53,2.37,14.76,2.65,2.78,8.5-.56,10.73-6a19.42,19.42,0,0,0,1.53-7.8c0-3.34,0-4.6-.28-9.05-.14-2.23-.28-3.76-.28-4.6a24.93,24.93,0,0,0-1.95-9.61,4.84,4.84,0,0,0-1.81-2.37c-3.2,2.23-5.85,3.07-8.22,2.37a5.14,5.14,0,0,1-1.67-8.77,8.22,8.22,0,0,1,4.6-1.53,3.6,3.6,0,0,1,1-.14,9.46,9.46,0,0,1,2-.28c2.51-2.23,4-4,4.46-5.29,2.23-7.11,2.51-18.11.7-25.35-1.12-4.32-3.77-7.38-6-8.08a2.49,2.49,0,0,0-2.23.28c-1.26.83-2.23,2.37-3.07,4.73-.69,2.23-1,6.55-.55,13.1a4,4,0,0,1-8.08.55c-.56-3.76-.56-11.28,1.11-16.15,2.79-8.36,8.5-12.12,15-10.31,5.58,1.67,9.89,7.24,11.56,13.93,2.23,8.49,2,21.45-1,29.8a16.19,16.19,0,0,1-3.48,5.71,12.71,12.71,0,0,1,3.06,4.32c1.53,3.2,2.37,7.52,2.65,12.81l.28,3.9c.14,2.37.28,4.18.28,5.43A59.66,59.66,0,0,1,192.91,196.7Z"/></svg>