<svg id="Calque_1" data-name="Calque 1" xmlns="http://www.w3.org/2000/svg" viewBox="0 0 357.16 342.7"><title>Plan de travail 1</title><path d="M290.16,187.13c40.84-19.24,57.89-43.36,47.52-65.37s-55.52-25.08-96.36-5.84a115.11,115.11,0,0,0-16.43,9.36,154.8,154.8,0,0,0,5.78-41.38c.61-45.15-13.59-71.06-37.92-71.38s-46.88,38.91-47.5,84.05c-.2,14.91,2.11,27.33,6.13,37.71C138.32,122.12,120.43,112,97,104.94c-43.22-13-72-6.52-79.07,16.78s24.49,55.79,67.71,68.82c14.25,4.3,26.81,5.5,37.88,4.51-15.26,9.2-29.9,23.64-43.13,44.19C56,277.19,54.27,306.68,74.73,319.87s60.37-8.17,84.82-46.12c8.06-12.52,12.67-24.25,14.77-35.17,4.64,17.21,14.48,35.26,30.58,53.64,29.75,34,57.65,43.7,75.94,27.66s8.8-60.28-20.94-94.25c-9.83-11.21-19.86-18.89-29.79-23.92C248,202,268,197.56,290.16,187.13ZM187.31,213.57a3.69,3.69,0,1,1-7.36-.5,296.07,296.07,0,0,0,.5-32.86c-.63-19.8-.88-30.33-.88-31.73l-1,2.67a3.65,3.65,0,1,1-6.85-2.54,111.18,111.18,0,0,0,4.82-16.11,23.08,23.08,0,0,1,.89-3.94l.63-2.66c.13-.38.13-.76.26-1l.25-.5a2.9,2.9,0,0,1,.89-1.4,3.78,3.78,0,0,1,6,1,7.63,7.63,0,0,1,.76,1.52c.13.76.38,1.78.51,2.92l.38,7v8.88c-.13,1.39-.13,2.28-.13,2.41,0,2.15.26,13.19.89,33.24A307,307,0,0,1,187.31,213.57Z"/></svg>