<svg id="Calque_1" data-name="Calque 1" xmlns="http://www.w3.org/2000/svg" viewBox="0 0 357.16 342.7"><title>Plan de travail 1</title><path d="M290.25,140.42c-18.82-7.23-33.94-11-46.13-12.14A188.25,188.25,0,0,0,264.29,106c39-50,14.56-94,14.56-94S230.18-1.15,191.14,48.82c-9.7,12.41-16.76,23.28-21.58,32.85a206.18,206.18,0,0,0-10.3-20.18C127.55,6.57,77.52,12.77,77.52,12.77S47.15,53,78.86,107.91c10.08,17.46,19.43,30,28.21,38.47A188.22,188.22,0,0,0,77.36,151C15.57,165.28,6.87,214.93,6.87,214.93s29.58,40.81,91.37,26.54c19.65-4.53,34.32-9.83,45-15.74A188.89,188.89,0,0,0,139,255.51c-4.43,63.26,40.51,86.09,40.51,86.09s47.67-16.35,52.1-79.62c1.4-20.11.63-35.69-1.89-47.66A188.42,188.42,0,0,0,257,227.08c59.21,22.72,94.18-13.57,94.18-13.57S349.46,163.14,290.25,140.42Zm-99.13,42.23c-.29,17-.29,29.25-.14,36.68a4.22,4.22,0,0,1-8.44.29c-.3-7.57-.3-19.65.14-36.24a17.39,17.39,0,0,1-2.91.14,72.49,72.49,0,0,1-13.83-1.16c-2.32-.58-4.65-1.17-6-3.06a6.86,6.86,0,0,1-1-5.67l.44-1.31V172c.14-3.93.29-11.94.43-23.73s.44-20.81.73-27.36a4.23,4.23,0,1,1,8.44.58c-.43,6.41-.58,15.43-.73,27.22s-.29,19.65-.43,23.58a11.29,11.29,0,0,1-.29,1.74h.14a64,64,0,0,0,11.94,1h1.16a16.4,16.4,0,0,0,.73-3.49,103.65,103.65,0,0,0,.87-11.5c.15-6.11,0-13-.29-20.66-.15-1.46-.29-3.64-.73-6.55-.43-3.35-.73-5.68-.87-7.28a2.44,2.44,0,0,0-.15-.87,11.79,11.79,0,0,1-.43-4.37,4.52,4.52,0,0,1,7.27-2.62,6,6,0,0,1,1.6,2.18l.44,1.46a30.61,30.61,0,0,1,.58,3.2c.44,3.93.88,9.61,1,16v4.8C191.41,152.67,191.41,165,191.12,182.65Z"/></svg>