<svg id="Calque_1" data-name="Calque 1" xmlns="http://www.w3.org/2000/svg" viewBox="0 0 339.32 318.95"><defs><style>.cls-1{fill:#fccb00;}</style></defs><title>Plan de travail 1</title><path class="cls-1" d="M262.56,69l31.89,8.4,10.07,28.53-10.07,16.79v25.18L304.52,163l-10.07,26.86L269.27,210l-31.89-28.54L225.63,210l-23.51,20.15-30.21,35.25-23.5,21.82-28.54-60.43-16.79-28.54V163l-23.5,8.39L49.36,163l-6.71-40.29L61.11,97.5l6.72-10.07-5-26.86s10.08-25.18,13.43-23.5,21.83,0,21.83,0l13.43,8.39,3.35,11.75L140,45.46,168.55,32h33.57l14.78,12.8,27.19,32.53Z"/><path d="M312.79,105.34c3.82-21.82-9.75-42.49-30.24-46.08-11.33-2-21.06,0-28.92,5.81a32,32,0,0,0-2.6,2.29A73.62,73.62,0,0,0,125,45.65a32.52,32.52,0,0,0-1.81-3.31c-5.46-8.22-14-13.41-25.49-15.41C77.05,23.32,57.15,38.14,53.33,60A41.46,41.46,0,0,0,58,87.51c-9.79,7.94-23.39,19.66-26.48,37.29-3.51,20.07,6.9,51.81,34.9,56.71,10.13,1.77,18.87-1.38,26.07-6.29l-.23,1.32a73.1,73.1,0,0,0,22,65.9L139,293.72a9.2,9.2,0,0,0,14.73,2.58l40.77-39.81a73.1,73.1,0,0,0,43-54.53l.14-.8c5,6.78,12,12.41,21.77,14.12,28.17,4.93,48.16-21,51.76-41.55,3.08-17.62-5.65-33.25-12.09-44A41.68,41.68,0,0,0,312.79,105.34Zm-111,124.81-85.46-15a54.21,54.21,0,0,1-6.65-26.12L216.9,207.83A54.24,54.24,0,0,1,201.78,230.15ZM112,170.75l4.24-24.22,109,19.07L221,189.82ZM191.33,38.09a55.39,55.39,0,0,1,45,64l-7.92,45.3-109-19.06,7.92-45.31A55.4,55.4,0,0,1,191.33,38.09ZM110.27,69.51,97.63,141.76c-2.61,4.66-14.36,24-28.06,21.58-16.86-3-21.85-24.26-19.91-35.36,2.05-11.72,12.77-20.37,21.39-27.33,2-1.64,4-3.18,5.61-4.63a9.23,9.23,0,0,0,.51-13.38A22.36,22.36,0,0,1,71.5,63.13c2.06-11.8,12.39-19.89,23-18,6.32,1.1,10.66,3.51,13.25,7.35C112.38,59.32,110.37,69,110.27,69.51ZM150,274.16l-18.16-37.51,48,8.39Zm143-103.61c-1.94,11.1-13.77,29.47-30.41,26.56-13.6-2.38-17.92-24.44-18.77-29.76l12.71-72.73c0-.1,1.48-9.88,8-14.74,3.69-2.74,8.52-3.54,14.76-2.45,10.48,1.83,17.32,12.93,15.26,24.73a22.48,22.48,0,0,1-11.88,16.46,9.23,9.23,0,0,0-4,12.7c1.06,1.93,2.31,4,3.66,6.28C288.05,147.05,295.11,158.81,293.06,170.55Z"/><circle cx="163.22" cy="80.48" r="10.13"/><circle cx="202.46" cy="87.34" r="10.04"/><path d="M188.2,109.49c1.67,2.91.78,6.89-1.76,9.49a11.67,11.67,0,0,1-19-3.36c-1.49-3.3-1-7.34,1.57-9.51l.15-.13a.27.27,0,0,1,.37,0,.27.27,0,0,1,.06.21,9.55,9.55,0,0,0,1.68,6.72,9.22,9.22,0,0,0,12.47,2.2,9.56,9.56,0,0,0,3.87-5.75.26.26,0,0,1,.31-.2.26.26,0,0,1,.17.13Z"/></svg>