<svg id="Calque_1" data-name="Calque 1" xmlns="http://www.w3.org/2000/svg" viewBox="0 0 612 1037.52"><defs><style>.cls-1{fill:#1fb4b1;}.cls-2{fill:#fccb00;}</style></defs><title>Plan de travail 1</title><path class="cls-1" d="M590,428.37l-5.18-10c-2.26-4.26-33.36-62.14-78.52-104.32,46.37-46,76.44-112.85,77.78-115.84l3.2-7.16-7.06-3.41c-59.7-28.82-120.65-23.78-138.06-21.54.34-63.53-25.88-120.6-26.33-121.57l-3.72-7.9L404.48,41C357.71,67.51,326.21,94.43,305,119.63c-48.41-51.28-109.24-72-111.87-72.92l-7.3-2.42-2.79,7.15c-26.36,67.68-21.17,119.63-17.69,139C100,187.29,37.36,207,33.12,208.34l-10.27,3.3,6,8.92c30.55,45,58.19,76.28,82.67,97.89-15.18,12.69-56.94,51.74-86,118.51L22,445.12l8.46,2.76c3.18,1,76,24.17,147,11.89-.91,33.88,4.35,77.65,20.48,134.27l2.82,9.93,9-5.14c3.81-2.17,52.64-30.59,92.57-72.19V988.83a13.25,13.25,0,1,0,26.49,0V532.37c19.06,18.93,51,43.16,95.63,51.8L429,585l3.06-3.51c1.86-2.14,43.54-51.52,25.64-128.94,32.54.23,73-5.57,123-21.31Zm-77-84-36,30.34-45.41-18,47.67-44.35A258.6,258.6,0,0,1,513,344.41ZM324.29,471.1l-45.41-66,2.89-8.36a83.31,83.31,0,0,0,51.57-.7c.3.56.68,1.2,1.11,1.92l-.2.07C342.88,422.81,337.19,447.8,324.29,471.1Zm9.82-92.65a67.56,67.56,0,1,1,33.78-89.36A67.62,67.62,0,0,1,334.11,378.45ZM210.87,286.39l15.68,5.52a83.26,83.26,0,0,0,.37,51.5c-3.87,2.16-34.86,17-89.11-24Zm-10.48-75.24c24.59,5.17,47.55,15.21,65.18,32.67A83.16,83.16,0,0,0,232.86,277l-16.34-5.76ZM236.6,363.49l-.36-1a83.27,83.27,0,0,0,30.6,28.09l-3.5,10.11L194.81,444.5C201.54,377.87,236.06,363.72,236.6,363.49ZM344.93,242.72l7.17-19.35,69.78-19C416,230.48,403,255.52,379.06,275.49A83.34,83.34,0,0,0,344.93,242.72Zm36.23,111.51,28.28,11.19,10.78,66c-48.16-9.31-67.25-34.38-72.06-42A83.28,83.28,0,0,0,381.16,354.23Zm33.71-4L387,339.15a83.25,83.25,0,0,0-.62-46.57h0c27.06-12.22,54.34-5.32,79.31,10.36Zm151-151.32c-9.12,18.6-35.73,69.09-71.77,104.54-26-21.32-55.88-36.06-87.15-32.91,22.31-26.25,31.91-57.35,34.43-88C450.44,181.2,508.44,174,565.85,198.88Zm-141-12L359,204.75l17.29-46.66,48-21.67A216.55,216.55,0,0,1,424.83,186.87ZM408.7,70.61a325.76,325.76,0,0,1,13.11,49.21l-37.63,17Zm-15.78-3.9L367.23,136,341.9,104.81A368.75,368.75,0,0,1,392.92,66.71ZM330.16,116l30.55,37.67-18.63,50.29-40.8-52A210.91,210.91,0,0,1,330.16,116Zm5.33,105.73-5.55,15a83.42,83.42,0,0,0-48.35.3c-1.73-7.1-6.33-33.81,11.15-69.74ZM195.33,64.79C212.83,71.86,258.49,93,295,132.5c-26.33,36.46-31.59,68.26-31.35,88.44-23.52-17.41-52.31-25.94-81.53-29.21C179.67,180.35,171.44,131.17,195.33,64.79ZM182.89,208.25l15.16,56.49L146.2,246.45l-5.65-39.81A273.7,273.7,0,0,1,182.89,208.25Zm-58.52-.67L129,240.39,63.08,217.15A433.51,433.51,0,0,1,124.37,207.58ZM84.91,267.94c-9-10.58-18.36-22.46-28.13-35.89l60.43,21.31Zm11.16,12.68,43.19-19.49,49.58,17.48L123.8,308A352.4,352.4,0,0,1,96.07,280.62ZM44.2,435c29-61.85,69.42-97.36,80-106,37.19,29.19,66.06,35.49,85.19,34.76-12.71,13.38-27,37.46-31,79.45C124,453.65,65.81,440.76,44.2,435Zm151.48,68a307.34,307.34,0,0,1-2-38.88l.11.18,61-39L236,479.78Zm11.11,61.11c-3.85-15.8-6.71-30.34-8.77-43.79l29.88-17.23Zm14.14,8.5,26.69-77.1,19.13,42.27A482.76,482.76,0,0,1,220.93,572.6Zm58.41-46.19-24-53.11,17-49.2L315,486C304.8,500.53,292.31,514.16,279.34,526.41Zm143.37,40.88c-49-11.14-81.15-43.59-94.37-59.48a13.29,13.29,0,0,0-4.21-6.7c18.22-24.45,31-51.88,30.39-80.4C371,434.32,398.11,448.57,441,451.85,456.81,512.94,431.57,555,422.71,567.29ZM437,433.86l-10.05-61.51,45.47,18L491.78,433A256.87,256.87,0,0,1,437,433.86Zm71.48-3.2L494,398.91l57,22.57C535.79,425.53,521.63,428.53,508.47,430.66ZM494,381.5l29.5-24.84a479.89,479.89,0,0,1,36.22,50.87Z"/><path class="cls-2" d="M291,300.76l19,5,6,17-6,10v15l6,9-6,16-15,12-19-17-7,17-14,12-18,21-14,13-17-36-10-17v-21l-14,5-18-5-4-24,11-15,4-6-3-16s6-15,8-14,13,0,13,0l8,5,2,7,15-7,17-8h20l8.8,7.62L280,305.76Z"/><path d="M320.93,322.43c2.27-13-5.81-25.31-18-27.45-6.75-1.18-12.55,0-17.23,3.46a18.45,18.45,0,0,0-1.54,1.36,43.86,43.86,0,0,0-75.09-12.93,19,19,0,0,0-1.08-2c-3.25-4.9-8.36-8-15.18-9.18-12.3-2.15-24.15,6.67-26.43,19.67a24.74,24.74,0,0,0,2.77,16.42c-5.84,4.73-13.94,11.71-15.78,22.21-2.09,12,4.11,30.87,20.8,33.78,6,1.06,11.23-.82,15.52-3.74l-.14.79a43.57,43.57,0,0,0,13.09,39.25l14.79,30.55a5.49,5.49,0,0,0,8.78,1.54l24.29-23.72A43.55,43.55,0,0,0,276.11,380l.08-.48a20.34,20.34,0,0,0,13,8.41c16.78,2.94,28.69-12.49,30.83-24.75,1.84-10.5-3.36-19.81-7.2-26.23A24.82,24.82,0,0,0,320.93,322.43Zm-66.14,74.35-50.9-8.9a32.26,32.26,0,0,1-4-15.57l63.87,11.17A32.25,32.25,0,0,1,254.79,396.78Zm-53.5-35.38L203.81,347l64.94,11.36-2.53,14.42Zm47.28-79a33,33,0,0,1,26.79,38.14l-4.72,27-64.93-11.35,4.72-27A33,33,0,0,1,248.57,282.37Zm-48.29,18.72-7.53,43C191.2,346.9,184.2,358.41,176,357c-10-1.76-13-14.45-11.86-21.07,1.22-7,7.6-12.13,12.74-16.27,1.22-1,2.35-1.9,3.34-2.77a5.5,5.5,0,0,0,.31-8,13.34,13.34,0,0,1-3.39-11.62c1.23-7,7.39-11.85,13.71-10.75,3.77.66,6.35,2.09,7.89,4.38C201.54,295,200.34,300.78,200.28,301.09ZM224,423l-10.82-22.35,28.59,5Zm85.2-61.72c-1.15,6.61-8.2,17.55-18.12,15.82-8.09-1.42-10.67-14.56-11.17-17.73L287.45,316c0-.05.87-5.88,4.78-8.78,2.19-1.63,5.07-2.11,8.79-1.46,6.24,1.1,10.31,7.7,9.08,14.74a13.35,13.35,0,0,1-7.07,9.8,5.5,5.5,0,0,0-2.41,7.57c.63,1.14,1.38,2.4,2.18,3.74C306.19,347.28,310.4,354.28,309.17,361.28Z"/><circle cx="231.82" cy="307.62" r="6.04"/><circle cx="255.2" cy="311.71" r="5.98"/><path d="M246.71,324.9a4.88,4.88,0,0,1-1.05,5.65,6.95,6.95,0,0,1-11.32-2,4.91,4.91,0,0,1,.94-5.66l.09-.08a.16.16,0,0,1,.22,0,.17.17,0,0,1,0,.12,5.68,5.68,0,0,0,1,4,5.49,5.49,0,0,0,7.42,1.31,5.72,5.72,0,0,0,2.31-3.43.17.17,0,0,1,.19-.12.16.16,0,0,1,.1.08Z"/><circle class="cls-1" cx="215.5" cy="354.26" r="4.24"/><circle class="cls-1" cx="233.5" cy="377.26" r="4.34"/><circle class="cls-1" cx="247.5" cy="388.26" r="3.36"/><circle class="cls-1" cx="259.5" cy="372.26" r="4.28"/><circle class="cls-1" cx="215.5" cy="393.26" r="5.13"/><circle class="cls-1" cx="365.5" cy="291.26" r="5.13"/><circle class="cls-1" cx="353.5" cy="320.26" r="5.13"/><circle class="cls-1" cx="358.5" cy="360.26" r="5.13"/><circle class="cls-1" cx="333.5" cy="332.26" r="5.13"/><circle class="cls-1" cx="331.5" cy="362.26" r="5.13"/><circle class="cls-1" cx="296.5" cy="362.26" r="4.03"/><circle class="cls-1" cx="247.5" cy="357.26" r="4.55"/></svg>