<svg id="Calque_1" data-name="Calque 1" xmlns="http://www.w3.org/2000/svg" viewBox="0 0 205.49 208.49"><defs><style>.cls-1{fill:none;stroke:#000;stroke-miterlimit:10;stroke-width:8px;}</style></defs><title>Plan de travail 1</title><path d="M56.08,77.57h3.39a5.23,5.23,0,0,1,3.21.75,3.42,3.42,0,0,1,1.26,2.82A3.38,3.38,0,0,1,63.42,83a2.93,2.93,0,0,1-1.34,1.11l2.14,3.81H61.49l-2.7-5h.43a3.23,3.23,0,0,0,1.6-.28,1.55,1.55,0,0,0,.59-1.28,1.41,1.41,0,0,0-.62-1.2,2.17,2.17,0,0,0-1.08-.28h-1v8H56.08Z"/><path d="M67,84.86a1.7,1.7,0,0,0,1.8,1.37,1.55,1.55,0,0,0,1.41-.73h2.38a4.56,4.56,0,0,1-1.58,2,3.82,3.82,0,0,1-2.21.7,4.15,4.15,0,0,1,0-8.29,4,4,0,0,1,3,1.23,4.35,4.35,0,0,1,1.09,3.73Zm3.5-1.77a1.84,1.84,0,0,0-3.47,0Z"/><path d="M82.23,87a4.88,4.88,0,0,1-.47,2.56,4.54,4.54,0,0,1-3.93,1.84c-2.71,0-3.73-1.63-3.88-2.73h2.69a1.29,1.29,0,0,0,.74.67,1.88,1.88,0,0,0,.62.1,1.8,1.8,0,0,0,1.89-1.89v-.47a2.43,2.43,0,0,1-2.16,1.11,3.89,3.89,0,0,1-3.92-4.09,3.94,3.94,0,0,1,3.92-4.19,2.56,2.56,0,0,1,2.17,1v-.73h2.33Zm-6.1-3A1.89,1.89,0,0,0,78,86a1.84,1.84,0,0,0,1.35-.53,2,2,0,0,0,.55-1.35,2.17,2.17,0,0,0-.49-1.45,1.73,1.73,0,0,0-1.4-.61A1.9,1.9,0,0,0,76.13,84Z"/><path d="M92,87.94H89.71V87.1a2.59,2.59,0,0,1-2.29,1.1,4.16,4.16,0,0,1,0-8.3A2.59,2.59,0,0,1,89.71,81v-.83H92Zm-6.21-3.85A1.94,1.94,0,0,0,87.77,86a1.79,1.79,0,0,0,1.62-.87,2,2,0,0,0,.32-1,2,2,0,0,0-.19-1,1.85,1.85,0,0,0-1.77-1.08,1.92,1.92,0,0,0-1.92,2Z"/><path d="M93.72,80.16H95.9V81a2,2,0,0,1,2-1.13v2.34h-.09c-1.19,0-1.75.43-1.75,1.52v4.18H93.72Z"/><path d="M106.7,87.94h-2.22V87.1a2.54,2.54,0,0,1-2.35,1.09,4.15,4.15,0,0,1,0-8.29,3,3,0,0,1,2.28.92V77.57h2.33ZM100.56,84a1.91,1.91,0,0,0,2,2,2,2,0,0,0,1.44-.59,2,2,0,0,0,0-2.81,1.93,1.93,0,0,0-1.38-.55,1.91,1.91,0,0,0-2,2Z"/><path d="M110.28,84.86a1.69,1.69,0,0,0,1.79,1.37,1.57,1.57,0,0,0,1.42-.73h2.38a4.58,4.58,0,0,1-1.59,2,3.77,3.77,0,0,1-2.21.7,4.15,4.15,0,0,1,0-8.29A4,4,0,0,1,115,81.13a4.32,4.32,0,0,1,1.09,3.73Zm3.5-1.77a1.84,1.84,0,0,0-3.47,0Z"/><path d="M118.37,89.06h-1.92l.9-3.5h2.42Z"/><path d="M56.15,94.37H58.8v8h3.07v2.33H56.15Z"/><path d="M64.71,101.66A1.69,1.69,0,0,0,66.5,103a1.57,1.57,0,0,0,1.42-.73H70.3a4.58,4.58,0,0,1-1.59,2,3.77,3.77,0,0,1-2.21.7,4.15,4.15,0,0,1,0-8.29,4,4,0,0,1,2.94,1.23,4.32,4.32,0,0,1,1.09,3.73Zm3.5-1.77a1.84,1.84,0,0,0-3.47,0Z"/><path d="M76.17,97h2.19v.86a3.08,3.08,0,0,1,2.46-1.12c2.76,0,3.8,2.42,3.8,4.23A3.86,3.86,0,0,1,80.84,105a3,3,0,0,1-2.34-1v3.29H76.17Zm6.13,3.88a1.94,1.94,0,0,0-2-2,1.9,1.9,0,0,0-1.4.59,2,2,0,0,0-.55,1.41,2,2,0,1,0,3.9,0Z"/><path d="M85.57,100.83A4.19,4.19,0,1,1,89.76,105a4.06,4.06,0,0,1-4.19-4.15Zm2.32,0a1.87,1.87,0,1,0,1.87-2,1.9,1.9,0,0,0-1.87,2Z"/><path d="M95.25,94.37h2.33v10.37H95.25Z"/><path d="M99.26,94.37h2.32v10.37H99.26Z"/><path d="M105.17,101.66A1.69,1.69,0,0,0,107,103a1.58,1.58,0,0,0,1.42-.73h2.38a4.58,4.58,0,0,1-1.59,2,3.77,3.77,0,0,1-2.21.7,4.15,4.15,0,0,1,0-8.29,4,4,0,0,1,2.94,1.23,4.35,4.35,0,0,1,1.09,3.73Zm3.5-1.77a1.84,1.84,0,0,0-3.47,0Z"/><path d="M112.31,97h2.17v.83a2.29,2.29,0,0,1,2.14-1.09c2.62,0,2.89,2.13,2.89,3.18v4.86h-2.33v-4.25c0-.85-.18-1.61-1.22-1.61s-1.33.83-1.33,1.63v4.23h-2.32Z"/><path d="M128.79,99.15c0-.17,0-.59-.73-.59-.49,0-.66.31-.66.52s.57.59,1.19.77c1.32.36,2.72.76,2.72,2.44s-1.45,2.71-3.17,2.71a2.91,2.91,0,0,1-3.16-2.57h2.31a.82.82,0,0,0,.88.71c.39,0,.81-.22.81-.6,0-.53-.57-.6-2.06-1.18a2.27,2.27,0,0,1-1.85-2,2.77,2.77,0,0,1,3-2.63,2.72,2.72,0,0,1,3,2.45Z"/><path d="M132.83,94.37h2l-1.48,3.5h-1.69Z"/><path d="M138.77,101.66a1.69,1.69,0,0,0,1.79,1.37,1.55,1.55,0,0,0,1.41-.73h2.39a4.58,4.58,0,0,1-1.59,2,3.77,3.77,0,0,1-2.21.7,4.15,4.15,0,0,1,0-8.29,4,4,0,0,1,2.94,1.23,4.35,4.35,0,0,1,1.09,3.73Zm3.5-1.77a1.84,1.84,0,0,0-3.47,0Z"/><path d="M149.21,99.15c0-.17,0-.59-.73-.59-.49,0-.65.31-.65.52s.57.59,1.19.77c1.31.36,2.71.76,2.71,2.44s-1.44,2.71-3.16,2.71a2.92,2.92,0,0,1-3.17-2.57h2.31a.83.83,0,0,0,.89.71c.39,0,.81-.22.81-.6,0-.53-.58-.6-2.06-1.18a2.26,2.26,0,0,1-1.85-2,2.77,2.77,0,0,1,3-2.63,2.73,2.73,0,0,1,3,2.45Z"/><path d="M153.35,98.73h-1.14V97h1.14V94.37h2.33V97h1.12v1.77h-1.12v6h-2.33Z"/><path d="M64.15,121.54H61.83v-.84a2.61,2.61,0,0,1-2.3,1.11,4.16,4.16,0,0,1,0-8.31,2.63,2.63,0,0,1,2.3,1.09v-.83h2.32ZM58,117.69a1.93,1.93,0,0,0,1.93,1.94,1.79,1.79,0,0,0,1.62-.86,2.16,2.16,0,0,0,.33-1,2.12,2.12,0,0,0-.2-1,1.84,1.84,0,0,0-1.76-1.08,1.91,1.91,0,0,0-1.92,2Z"/><path d="M73.7,118.58a4.18,4.18,0,0,1-8.24-1,4.16,4.16,0,0,1,8.23-.87H71.33a1.74,1.74,0,0,0-1.68-1.09,1.64,1.64,0,0,0-1.34.55,2.07,2.07,0,0,0-.51,1.42,1.84,1.84,0,0,0,1.85,2,1.78,1.78,0,0,0,1.68-1Z"/><path d="M82.83,118.58a4.18,4.18,0,0,1-8.24-1,4.16,4.16,0,0,1,8.22-.87H80.46a1.74,1.74,0,0,0-1.68-1.09,1.66,1.66,0,0,0-1.35.55,2.12,2.12,0,0,0-.5,1.42,1.84,1.84,0,0,0,1.85,2,1.78,1.78,0,0,0,1.68-1Z"/><path d="M84.08,113.76h2.19v.87a1.94,1.94,0,0,1,2-1.13v2.34h-.08c-1.19,0-1.75.43-1.75,1.52v4.18H84.08Z"/><path d="M88.6,117.63a4.19,4.19,0,1,1,4.19,4.15,4.06,4.06,0,0,1-4.19-4.15Zm2.33,0a1.87,1.87,0,1,0,1.86-2,1.89,1.89,0,0,0-1.86,2Z"/><path d="M106.15,118.58a4.17,4.17,0,0,1-8.23-1,4.16,4.16,0,0,1,8.22-.87h-2.36a1.74,1.74,0,0,0-1.68-1.09,1.64,1.64,0,0,0-1.34.55,2.12,2.12,0,0,0-.51,1.42,1.84,1.84,0,0,0,1.85,2,1.78,1.78,0,0,0,1.68-1Z"/><path d="M107.21,111.17h2.33v3.31a2.25,2.25,0,0,1,2-1,2.46,2.46,0,0,1,2.31,1.1,5,5,0,0,1,.53,2.6v4.34h-2.32v-4.23a2.24,2.24,0,0,0-.24-1.14,1.14,1.14,0,0,0-1-.49,1.15,1.15,0,0,0-1.14.63,2.14,2.14,0,0,0-.16.91v4.32h-2.33Z"/><path d="M118,118.46a1.7,1.7,0,0,0,1.8,1.37,1.55,1.55,0,0,0,1.41-.73h2.38a4.56,4.56,0,0,1-1.58,2,3.79,3.79,0,0,1-2.21.7,4.15,4.15,0,0,1-.05-8.29,4,4,0,0,1,3,1.23,4.35,4.35,0,0,1,1.09,3.73Zm3.38-8.8.74,1.65-3.44,1.53-.66-1.37Zm.13,7a1.85,1.85,0,0,0-3.48,0Z"/><path d="M132.73,116c0-.17,0-.59-.72-.59-.49,0-.66.31-.66.52s.57.59,1.19.77c1.31.36,2.71.76,2.71,2.44s-1.44,2.72-3.16,2.72a2.93,2.93,0,0,1-3.17-2.58h2.32a.82.82,0,0,0,.88.71c.39,0,.81-.22.81-.6,0-.53-.57-.6-2.06-1.18a2.26,2.26,0,0,1-1.85-2,2.77,2.77,0,0,1,3-2.63,2.73,2.73,0,0,1,3,2.45Z"/><path d="M143.61,121.54h-2.17v-.83a2.29,2.29,0,0,1-2.15,1.1c-2.64,0-2.9-2.13-2.9-3.18v-4.87h2.32V118c0,.85.18,1.61,1.23,1.61s1.35-.83,1.35-1.63v-4.23h2.32Z"/><path d="M145.28,113.76h2.18v.87a2,2,0,0,1,2-1.13v2.34h-.09c-1.19,0-1.75.43-1.75,1.52v4.18h-2.32Z"/><path d="M56,130.56h2.17v.83a1.89,1.89,0,0,1,.47-.55,2.61,2.61,0,0,1,1.7-.54,2.39,2.39,0,0,1,1.78.74,3,3,0,0,1,.46.64,3.5,3.5,0,0,1,.56-.67,2.74,2.74,0,0,1,1.9-.71,2.81,2.81,0,0,1,2,.78c.73.77.84,1.29.84,3v4.25H65.59v-4.13a2.84,2.84,0,0,0-.15-1.1,1,1,0,0,0-1-.63,1.11,1.11,0,0,0-1.12.65,2.31,2.31,0,0,0-.16,1v4.25H60.79v-4.23a2.68,2.68,0,0,0-.14-1,1,1,0,0,0-1-.66,1.13,1.13,0,0,0-1.15.69,2.54,2.54,0,0,0-.17,1v4.13H56Z"/><path d="M69.19,134.43a4.19,4.19,0,1,1,4.19,4.15,4.06,4.06,0,0,1-4.19-4.15Zm2.32,0a1.87,1.87,0,1,0,1.87-2,1.9,1.9,0,0,0-1.87,2Z"/><path d="M78.88,130.56h2.17v.83a2.29,2.29,0,0,1,2.14-1.09c2.62,0,2.89,2.13,2.89,3.18v4.86H83.75v-4.25c0-.85-.18-1.61-1.22-1.61s-1.33.83-1.33,1.63v4.23H78.88Z"/><path d="M99.91,135.38a4.18,4.18,0,0,1-8.24-.95,4.16,4.16,0,0,1,8.22-.87H97.54a1.74,1.74,0,0,0-1.68-1.09,1.66,1.66,0,0,0-1.35.55,2.12,2.12,0,0,0-.5,1.42,1.84,1.84,0,0,0,1.85,2,1.78,1.78,0,0,0,1.68-1Z"/><path d="M100.81,134.43a4.19,4.19,0,1,1,4.19,4.15,4.06,4.06,0,0,1-4.19-4.15Zm2.33,0a1.86,1.86,0,1,0,1.86-2,1.89,1.89,0,0,0-1.86,2Z"/><path d="M110.49,130.56h2.18v.87a2,2,0,0,1,2-1.13v2.34h-.09c-1.19,0-1.75.43-1.75,1.52v4.18h-2.32Z"/><path d="M115.72,130.56h2.19v.86a3.08,3.08,0,0,1,2.46-1.12c2.76,0,3.8,2.42,3.8,4.23a3.86,3.86,0,0,1-3.78,4.07,3,3,0,0,1-2.34-1v3.29h-2.33Zm6.12,3.88a1.94,1.94,0,0,0-1.94-2,1.9,1.9,0,0,0-1.4.59,2,2,0,0,0-.55,1.41,1.93,1.93,0,0,0,2,2,1.93,1.93,0,0,0,1.94-2Z"/><path d="M128.79,132.75c0-.17,0-.59-.73-.59-.49,0-.66.31-.66.52s.57.59,1.19.77c1.32.36,2.72.76,2.72,2.44s-1.45,2.71-3.17,2.71A2.91,2.91,0,0,1,125,136h2.31a.82.82,0,0,0,.88.71c.39,0,.81-.22.81-.6s-.57-.6-2.06-1.18a2.26,2.26,0,0,1-1.85-2,2.77,2.77,0,0,1,3-2.63,2.72,2.72,0,0,1,3,2.45Z"/><path d="M139.48,134.92h-2.39V128h2.39Zm0,3.42h-2.39V136h2.39Z"/><circle class="cls-1" cx="104.33" cy="104.5" r="86.82"/></svg>