<svg id="Calque_1" data-name="Calque 1" xmlns="http://www.w3.org/2000/svg" viewBox="0 0 357.16 342.7"><title>Plan de travail 1</title><path d="M332.1,81.66c-.18-25.81-20.05-46.67-44.29-46.5-13.4.1-24.15,4.37-31.94,12.69a40.36,40.36,0,0,0-2.5,3.17,85.77,85.77,0,0,0-149,1.43A37.71,37.71,0,0,0,101.59,49c-8-8.28-18.88-12.43-32.43-12.33C44.75,36.87,25,58,25.21,83.82a48.33,48.33,0,0,0,11.07,30.61c-9.57,11.15-22.71,27.42-22.56,48.27.16,23.74,18.72,58,51.84,57.72,12-.09,21.34-5.52,28.57-12.65v1.56a85.18,85.18,0,0,0,38.93,70.95l39.18,53.6a10.74,10.74,0,0,0,17.43-.12l38.42-54.14A85.21,85.21,0,0,0,266,208.13v-.95c7.18,6.72,16.35,11.72,27.9,11.64,33.32-.24,50.82-34.09,50.65-58.44-.14-20.84-13.41-36.94-23.05-47.94A48.57,48.57,0,0,0,332.1,81.66ZM230.9,247.91l-101.07.71a63.14,63.14,0,0,1-13.08-28.56l126.83-.89A63.27,63.27,0,0,1,230.9,247.91ZM115.55,198.58l-.2-28.65L244.27,169l.2,28.65ZM178.83,29.94a64.53,64.53,0,0,1,64.92,64l.37,53.59-128.92.9-.38-53.58A64.54,64.54,0,0,1,178.83,29.94ZM92.47,82.88l.6,85.45c-2,5.9-11.45,30.49-27.66,30.6-19.94.14-30.11-23.25-30.2-36.38-.1-13.86,10.38-26,18.81-35.78,2-2.32,3.86-4.48,5.46-6.49a10.77,10.77,0,0,0-2.2-15.44A26,26,0,0,1,46.7,83.67c-.1-14,10-25.39,22.61-25.48,7.47-.06,13,1.79,16.72,5.66C92.77,70.75,92.48,82.28,92.47,82.88Zm88.32,226.28L152.14,270l56.76-.4ZM323.1,160.53c.09,13.13-9.63,36.66-29.32,36.8-16.08.11-25.65-24.28-27.72-30.19l-.62-86c0-.11-.38-11.64,6.11-18.57,3.66-3.91,9-5.84,16.41-5.89,12.39-.09,22.55,11.2,22.65,25.16a26.16,26.16,0,0,1-10.18,21.35,10.77,10.77,0,0,0-2,15.4c1.62,2,3.49,4.14,5.51,6.43C312.44,134.64,323,146.65,323.1,160.53Z"/><circle cx="155.45" cy="84.39" r="11.81"/><circle cx="201.87" cy="84.07" r="11.7"/><path d="M190.15,112.44c2.51,3,2.33,7.73,0,11.24a13.6,13.6,0,0,1-22.47.12c-2.39-3.48-2.64-8.22-.18-11.23l.15-.18a.29.29,0,0,1,.42,0,.3.3,0,0,1,.12.21,11.14,11.14,0,0,0,3.32,7.36,10.73,10.73,0,0,0,14.76-.08,11.21,11.21,0,0,0,3.24-7.4.29.29,0,0,1,.31-.29.3.3,0,0,1,.22.11Z"/></svg>