<?xml version="1.0" encoding="utf-8"?>
<!-- Generator: Adobe Illustrator 22.1.0, SVG Export Plug-In . SVG Version: 6.00 Build 0)  -->
<svg version="1.1" id="Calque_1" xmlns="http://www.w3.org/2000/svg" xmlns:xlink="http://www.w3.org/1999/xlink" x="0px" y="0px"
	 viewBox="0 0 1281 781" style="enable-background:new 0 0 1281 781;" xml:space="preserve">
<style type="text/css">
	.st0{fill:none;}
	.st1{fill:#FFFFFF;}
	.st2{fill:#010101;}
	.st3{fill:#23B4B1;}
</style>
<title>Plan de travail 1</title>
<path class="st0" d="M754,427.5c2.8-1.6,5.5-3.4,7.9-5.6c-3.5,1.2-7.3,2.6-11.3,4.2L754,427.5z"/>
<path class="st0" d="M788.8,415.5c-1.3,0.1-2.8,0.3-4.3,0.5c-8.1,15.9-23.1,27.1-40.5,30.4l-38.2,23.6c-3.4,2.1-7.9,1.1-10-2.3
	c-0.4-0.7-0.7-1.4-0.9-2.2l-2-8.6l-2,1.3c-63.8,41.6-84.6,79-81.8,86c5.5,5.5,47.1,1.4,110.9-40.2c50.2-32.8,73.8-63,80.2-78.4
	C795.4,423.5,791.4,420,788.8,415.5z"/>
<path class="st0" d="M860.8,350.6c-2.9,7-8.1,12.8-14.7,16.4c3.1,9.4,7.1,22.9,1.7,35.9c-1.8,4.2-4.3,8.2-7.4,11.6
	c19.6,18.4,50.4,17.5,68.8-2.1c8.5-9,13.2-20.9,13.2-33.3c0-26.3-22.2-48.5-48.5-48.5c-3.7,0-7.5,0.5-11.1,1.3
	C863.9,338.3,863.2,344.7,860.8,350.6z"/>
<path class="st0" d="M679,367.4l0.4-1c-6.4,2.5-13.6,3.5-21.1,0.4c-6.9-2.8-12.5-8.1-15.7-14.8c-53.9,5.6-81.3,21.6-84.8,28.6
	c2.8,6.9,41.6,26.3,116.5,23.6l2.3-0.1C673.3,391.9,674.2,379,679,367.4z"/>
<path class="st0" d="M708.9,253.4c8.5,3.5,14.2,9,17,16.2c0.3,0.9,0.6,1.9,0.8,2.9c4.5-3.5,9.6-6.3,14.9-8.4
	c-7.4-5-15.5-10.1-24.5-15.2C652,211.4,609,208.7,603.5,214.2c-1.2,6,16.5,34.2,63.3,66.1c0.3-3.2,1.1-6.3,2.3-9.2
	C675.8,255,693.7,247.1,708.9,253.4z"/>
<path class="st0" d="M679.5,350.1h-5.3c-5.1,0.1-10,0.3-14.8,0.5c1.3,1.2,2.8,2.1,4.4,2.8C669,355.5,674.8,353.3,679.5,350.1z"/>
<path class="st0" d="M896,60.3c-6.9,1.4-29.1,38.8-33.2,113.7c-4.2,76.3,12.5,115.1,19.4,116.5c6.9-1.4,29.1-38.8,33.3-113.7
	C921,101.9,903,63.1,896,60.3z"/>
<path class="st0" d="M729.6,96.4c-5.5,4.2-5.5,47.1,30.5,113.7c34.7,66.6,70.7,91.5,77.6,88.7c5.5-4.1,5.5-47.1-30.5-113.7
	C772.6,118.5,736.6,93.6,729.6,96.4z"/>
<path class="st0" d="M1015.3,229.5c43-61,49.9-104,44.4-109.5h-1.4c-9.7,0-45.8,20.8-87.3,79c-44.4,61-49.9,104-44.4,109.5
	C933.5,311.3,972.3,290.5,1015.3,229.5z"/>
<path class="st0" d="M835,448.5c-8.3,0-41.6,26.3-72.1,92.9c-31.9,69.3-30.5,112.3-25,116.5c8.3,1.4,41.6-25,73.5-92.9
	S842,454.1,835,448.5z"/>
<path class="st0" d="M952.9,344.5c4.2,5.5,47.1,8.3,116.5-20.8s97.1-62.4,95.7-69.3c-1.4-2.8-8.3-4.2-19.4-4.2
	c-19.4,0-52.7,5.5-97,25C979.2,304.3,951.5,337.6,952.9,344.5z"/>
<path class="st0" d="M1074.9,382c-20.8-4.2-38.8-5.5-54.1-4.2c-40.2,0-62.4,8.3-63.8,13.9c0,8.3,34.7,33.3,109.5,44.4
	s115.1-2.8,117.8-9.7C1184.4,418,1149.8,393.1,1074.9,382z"/>
<path class="st0" d="M939,429.1c-1.4,0-2.8,1.4-4.2,1.4c-2.8,6.9,12.5,47.1,70.7,95.7c58.2,48.5,99.8,58.2,105.4,54.1
	c4.2-5.5-12.5-45.8-70.7-95.7C990.3,441.6,952.9,429.1,939,429.1z"/>
<path class="st0" d="M897.4,455.5c-6.9,4.2-13.9,45.8,9.7,117.8c23.6,70.7,52.7,101.2,61,101.2c5.5-4.2,12.5-45.8-9.7-117.8
	C934.8,486,905.7,455.5,897.4,455.5z"/>
<path class="st1" d="M786.6,411.4l-0.2,0.6c-0.6,1.4-1.2,2.8-1.9,4.1c1.5-0.2,3-0.4,4.3-0.5C787.9,414.2,787.2,412.8,786.6,411.4z"
	/>
<path class="st1" d="M1167.8,379.2c-23.6-12.5-56.8-20.8-92.9-26.3c-2.8,0-4.2,0-6.9-1.4c2.8-1.4,5.5-1.4,8.3-2.8
	c33.3-13.9,62.4-31.9,83.2-48.5c31.9-26.3,31.9-45.8,27.7-56.8c-15.2-34.7-90.1-20.8-152.5,5.5c-1.4,1.4-4.2,1.4-5.6,2.8
	c1.4-2.8,2.8-4.2,5.6-6.9c40.2-56.8,67.9-126.2,37.4-148.4c-9.7-6.9-29.1-9.7-62.4,13.9c-20.8,16.6-44.4,41.6-65.2,70.7
	c-1.4,1.4-2.8,4.2-4.2,5.6v-8.3c4.2-69.3-8.3-144.2-45.8-145.6c-37.4-2.8-59.6,70.7-63.8,138.6v6.9l-4.2-8.3
	C794.8,108.8,743.5,52,711.6,70c-33.3,18-12.5,91.5,19.4,151.1c1.4,1.4,2.8,4.2,2.8,5.6c-2.8-1.4-4.2-2.8-6.9-4.2
	c-27.8-16.4-57.6-29-88.7-37.4c-40.2-8.3-55.5,1.4-62.4,12.5s-2.7,31.9,25,62.4c13,14,31.2,28.8,51.7,42.7c4.8-3.8,10-7,15.6-9.6
	c-1.2-4.1-1.6-8.5-1.2-12.8c-46.8-31.9-64.6-60.1-63.3-66.1c5.5-5.6,48.5-2.8,113.7,34.7c8.9,5.1,17,10.2,24.5,15.2
	c29.9-11.5,63.4,3.4,74.8,33.3c1.7,4.3,2.8,8.8,3.4,13.4c0.8-0.5,1.6-0.9,2.4-1.3c7-3.1,14.9-3,23.2,0.5c9.1,3.9,15.7,12.2,17.3,22
	c3.6-0.9,7.3-1.3,11.1-1.3c26.3,0,48.5,22.2,48.5,48.5c0,26.9-21.9,48.6-48.7,48.6c-12.4,0-24.3-4.8-33.3-13.2
	c-9.2,10.4-24.1,17.8-39.5,11.4c-0.2-0.1-0.5-0.2-0.7-0.3c-6.4,15.4-30,45.6-80.2,78.4c-63.8,41.6-105.4,45.8-110.9,40.2
	c-2.8-6.9,18-44.4,81.8-86l2-1.3l-8.2-35.1c-3.6-5.4-6.3-11.5-8-17.8l-2.3,0.1c-74.9,2.8-113.7-16.6-116.5-23.6
	c3.5-7,31-23.1,84.8-28.6c-4.5-9-5.2-19.9-3.2-28.8c-57,6.2-107.8,24.9-106.6,56c0,13.9,8.3,30.5,48.5,41.6
	c23.6,6.9,52.7,9.7,84.6,9.7h18c-2.8,1.4-5.5,2.8-6.9,4.2c-58.2,37.4-109.5,92.9-90.1,123.4c4.2,6.9,13.9,13.9,31.9,13.9
	c8.3,0,18-1.4,30.5-5.5c26.3-6.9,56.8-22.2,87.3-41.6c1.4-1.4,4.2-2.8,5.5-4.2c-2.8,4.2-2.8,6.9-4.2,9.7
	c-15.2,31.9-25,65.2-29.1,91.5c-5.5,40.2,6.9,55.5,18,61c4.2,1.4,8.3,2.8,11.1,2.8c31.9,0,72.1-54.1,98.4-109.5
	c2.8-4.2,4.2-9.7,5.5-13.9c-13.9,123.4-30.5,338.3-2.8,495c1.4,6.9,6.9,11.1,13.9,11.1h2.8c7.6-1.6,12.5-9,11.1-16.6
	c-29.1-158-9.7-382.6,4.2-501.9c2.8,9.7,5.5,20.8,8.3,30.5c11.1,34.7,26.3,65.2,41.6,87.3c19.4,26.3,34.7,33.3,45.8,33.3
	c2.8,0,5.5,0,8.3-1.4c11.1-4.2,26.3-16.6,25-58.2c0-26.3-6.9-61-18-94.3c0-1.4-1.4-4.2-2.8-5.5c2.8,1.4,4.2,4.2,6.9,5.5
	c27.7,23.6,55.5,41.6,80.4,52.7c15.2,6.9,27.7,9.7,37.4,9.7c13.9,0,20.8-5.5,26.3-11.1c25-29.1-20.8-90.1-73.5-134.5
	c-1.6-1.7-3.5-3.1-5.5-4.2c2.8,0,5.5,1.4,8.3,1.4c19.3,2.7,38.7,4.1,58.2,4.2c12.5-0.1,25-1.1,37.4-2.8
	c40.2-6.9,51.3-22.2,52.7-34.7S1203.8,397.2,1167.8,379.2z M837.8,298.8c-6.9,2.8-43-22.2-77.6-88.7c-36-66.6-36-109.5-30.5-113.7
	c6.9-2.8,43,22.2,77.7,88.7C843.3,251.6,843.3,294.6,837.8,298.8L837.8,298.8z M915.4,176.8c-4.2,74.9-26.3,112.3-33.3,113.7
	c-6.9-1.4-23.6-40.2-19.4-116.5c4.2-74.9,26.4-112.3,33.3-113.7C903,63.1,921,101.9,915.4,176.8L915.4,176.8z M811.5,565
	c-31.9,67.9-65.2,94.3-73.5,92.9c-5.5-4.2-6.9-47.2,25-116.5c30.5-66.5,63.8-92.9,72.1-92.9C842,454.1,843.3,497.1,811.5,565z
	 M1048.5,275.2c44.4-19.4,77.6-25,97-25c11.1,0,18,1.4,19.4,4.2c1.4,6.9-26.3,40.2-95.7,69.3S957,350.1,952.9,344.5
	C951.5,337.6,979.2,304.3,1048.5,275.2L1048.5,275.2z M970.9,199c41.6-58.2,77.7-79,87.3-79h1.4c5.5,5.5-1.4,48.5-44.4,109.5
	s-81.8,81.8-88.7,79C921,302.9,926.5,260,970.9,199z M968.1,674.6c-8.3,0-37.4-30.5-61-101.2c-23.6-72.1-16.6-113.7-9.7-117.8
	c8.3,0,37.4,30.5,61,101.2C980.6,628.8,973.7,670.4,968.1,674.6L968.1,674.6z M1110.9,580.3c-5.6,4.2-47.1-5.5-105.4-54.1
	s-73.5-88.7-70.7-95.7c1.4,0,2.8-1.4,4.2-1.4c13.9,0,51.3,12.5,101.2,55.5C1098.4,534.5,1115.1,574.7,1110.9,580.3L1110.9,580.3z
	 M1066.6,436.1C991.7,425,957,400,957,391.7c1.4-5.5,23.6-13.9,63.8-13.9c15.3-1.4,33.3,0,54.1,4.2c74.9,11.1,109.5,36,109.5,44.4
	C1181.6,433.3,1141.4,447.1,1066.6,436.1L1066.6,436.1z"/>
<path class="st2" d="M746,299c-3.8,2.3-5,7.2-2.7,11c2.3,3.8,7.2,5,11,2.7c3.8-2.3,5-7.2,2.7-11C754.7,297.9,749.8,296.7,746,299
	C746,299,746,299,746,299z"/>
<path class="st2" d="M775.3,310.9c-3.8,2.1-5.2,6.9-3.1,10.7c2.1,3.8,6.9,5.2,10.7,3.1s5.2-6.9,3.1-10.7c0,0,0,0,0,0
	C783.9,310.2,779.1,308.8,775.3,310.9z"/>
<path class="st2" d="M747.3,333.5c1,5,5.9,8.2,10.9,7.1c1.1-0.2,2.2-0.7,3.1-1.3c2.4-1.6,3.8-4.5,3-7v-0.1c0-0.1-0.1-0.1-0.1-0.1
	c-0.1,0-0.2,0-0.3,0.1c-0.8,1.7-2.2,3-4,3.8c-3.6,1.4-7.6-0.3-9.2-3.8c-0.7-1.7-0.8-3.7-0.1-5.5c0-0.1,0-0.1,0-0.2
	c-0.1-0.1-0.2-0.1-0.3-0.1l-0.1,0.1C747.8,327.7,746.7,330.8,747.3,333.5z"/>
<circle class="st3" cx="865.7" cy="362.8" r="5.6"/>
<circle class="st3" cx="863.2" cy="396.1" r="5.7"/>
<circle class="st3" cx="747" cy="414.4" r="4.4"/>
<circle class="st3" cx="871.3" cy="416.3" r="5.7"/>
<circle class="st3" cx="704.3" cy="411.6" r="6.8"/>
<circle class="st3" cx="908.6" cy="385.5" r="8.3"/>
<circle class="st3" cx="895.9" cy="403.4" r="5.3"/>
<circle class="st3" cx="897.4" cy="358.2" r="5.3"/>
<circle class="st3" cx="884.7" cy="379.7" r="6"/>
<g>
	<path class="st2" d="M668,293.1c-5.5,2.6-10.8,5.8-15.6,9.6c4.2,2.9,8.6,5.7,13,8.5c3.3-2.1,6.8-4,10.4-5.7
		c1.8-0.9,3.6-1.8,5.1-2.6c3.5-1.9,4.8-6.3,2.9-9.8c-0.1-0.1-0.1-0.2-0.2-0.3c-0.4-0.7-0.8-1.5-1.2-2.2c-5.5-3.4-10.7-6.8-15.6-10.1
		C666.3,284.6,666.7,289,668,293.1z"/>
	<path class="st2" d="M862.7,332C862.8,332,862.8,332,862.7,332c-1.6-9.8-8.1-18.1-17.3-22c-8.4-3.5-16.2-3.6-23.2-0.5
		c-0.8,0.4-1.6,0.8-2.4,1.3c-4.1-31.7-33.1-54.2-64.8-50.1c-4.6,0.6-9.1,1.7-13.4,3.4c0,0,0,0,0,0c-5.3,2-10.4,4.9-14.9,8.4
		c-0.2-1-0.5-1.9-0.8-2.9c-2.8-7.3-8.5-12.7-17-16.2c-15.2-6.3-33.1,1.6-39.8,17.8c-1.2,2.9-2,6-2.3,9.2c4.9,3.3,10.1,6.7,15.6,10.1
		c-1.8-4.4-1.7-9.4,0.1-13.7c3.6-8.7,12.9-13.1,20.8-9.9c4.7,1.9,7.6,4.5,8.9,7.9c2.4,6.1-0.8,13.2-1,13.5l-6.2,14.9c0,0,0,0,0,0
		l-15.9,38.4c-2.9,3.2-6.1,6-9.6,8.4h0c-4.8,3.2-10.5,5.4-15.6,3.3c-1.6-0.7-3.1-1.6-4.4-2.8c0,0-0.1,0-0.1,0
		c-7.9-7-7.6-20.7-4.7-27.8c0.1-0.3,0.3-0.6,0.5-1c0,0,0,0,0,0c2.2-4.5,6-7.9,10.3-10.7c-4.4-2.8-8.7-5.6-13-8.5
		c-4.9,3.8-8.7,8.8-11.2,14.5c-0.8,1.9-1.4,4-1.9,6c0,0,0,0,0,0c-2,8.8-1.4,19.7,3.2,28.8c0,0,0,0,0,0c3.3,6.7,8.8,12,15.7,14.8
		c7.5,3.1,14.7,2.2,21.1-0.3l-0.4,1c-4.8,11.6-5.7,24.5-2.5,36.6c0,0,0,0,0,0c1.7,6.3,4.4,12.3,8,17.8l8.2,35.1c0,0,0,0,0,0l2,8.6
		c0.5,2.3,2.1,4.2,4.3,5.1c2.2,0.9,4.6,0.7,6.6-0.5l38.2-23.6c17.5-3.3,32.4-14.5,40.5-30.4c0,0,0,0,0,0c0.7-1.3,1.3-2.7,1.9-4.1
		l0.2-0.6c0.6,1.4,1.4,2.8,2.2,4.1c0,0,0,0,0,0c2.7,4.4,6.6,7.9,11.4,10.1c1.3-3.1,1.9-5.6,1.8-7.4c0,1.8-0.6,4.3-1.8,7.4
		c0.2,0.1,0.5,0.2,0.7,0.3c15.4,6.4,30.3-1,39.5-11.4c-1.4-1.3-2.7-2.7-3.9-4.2c1.2,1.4,2.5,2.8,3.8,4.1c3.1-3.4,5.6-7.4,7.4-11.6
		c5.4-13,1.4-26.5-1.7-35.9C858.5,360.1,865.3,346.1,862.7,332z M706.7,452.4l-0.9-3.7c0,0,0,0,0,0l-6.6-28.3l33.2,13.8c0,0,0,0,0,0
		l2.2,0.9L706.7,452.4z M789.3,373.6c-1.3-6.1-28.3-19.7-81.3-22.9l73.2,30.3c3.4-2,5.7-3.9,7-5.5c-1.3,1.5-3.5,3.4-7,5.4l1.9,0.8
		l-7.4,17.9l-19.5-8.1c-7.7,2.4-15.6,4.4-23.5,6l36.8,15.3c-2.1,3.3-4.6,6.3-7.6,8.9c0,0,0,0,0,0c-2.4,2.2-5,4-7.9,5.6l-3.4-1.5
		c0,0,0,0,0,0l-55.7-23.1c0,0,0,0,0,0l-3.9-1.6c-2-6.9-2.2-14.2-0.6-21.2l42.3,17.6c7.9-1.6,15.8-3.6,23.5-6l-61-25.3l6.6-15.9
		c0,0,0,0,0.1,0l0.8-2l5.5,2.3C761,353.9,788,367.5,789.3,373.6C789.3,373.6,789.3,373.6,789.3,373.6z M788.7,368.5l-80.5-33.4
		l10.4-25.2c0,0,0,0,0,0l3.4-8.3c6-14.5,19.4-24.6,35-26.5c0,0,0,0,0,0c7.5-0.9,15.1,0.1,22,3c22.2,9.2,32.7,34.7,23.5,56.9
		L788.7,368.5z M848.7,337.9c0,2.5-0.5,4.9-1.4,7.2c-2.1,5.2-6.5,9.2-12,10.6c-3.9,0.9-6.3,4.9-5.4,8.8c0,0.1,0,0.2,0.1,0.3
		c0.5,1.7,1.1,3.5,1.7,5.5c2.7,8.2,6.2,18.5,2.5,27.2c-0.8,1.9-1.9,3.7-3.1,5.3c0,0,0,0,0,0.1c-5.3,7.1-15,13.9-24.8,9.9
		c-10-4.2-9.6-21.9-9.3-26.1l22.3-53.7c0-0.1,2.8-7.3,8.7-10c3.3-1.5,7.2-1.3,11.8,0.7C845.5,325.8,848.8,331.5,848.7,337.9
		C848.8,337.8,848.8,337.9,848.7,337.9z"/>
</g>
<circle class="st3" cx="732.2" cy="396.1" r="5.7"/>
</svg>
