<svg id="Calque_1" data-name="Calque 1" xmlns="http://www.w3.org/2000/svg" viewBox="0 0 1281 781"><defs><style>.cls-1{fill:#fff;}</style></defs><title>Plan de travail 1</title><path class="cls-1" d="M795.48,458c12.63,3.71,28.23,5.2,45.33,5.2h9.66a16.13,16.13,0,0,0-3.72,2.23c-31.21,20.06-58.7,49.79-48.3,66.13,2.23,3.72,7.43,7.44,17.09,7.44a51,51,0,0,0,16.35-3c14.12-3.71,30.46-11.89,46.81-22.29.75-.74,2.23-1.49,3-2.23-1.49,2.23-1.49,3.72-2.23,5.2a185.25,185.25,0,0,0-15.61,49c-3,21.55,3.72,29.72,9.66,32.69a22.72,22.72,0,0,0,6,1.49c17.09,0,38.64-29,52.76-58.71,1.48-2.22,2.22-5.2,3-7.43-7.43,66.14-16.35,181.32-1.49,265.29a7.24,7.24,0,0,0,7.43,5.94h1.49a7.7,7.7,0,0,0,5.94-8.92c-15.6-84.71-5.2-205.09,2.23-269,1.49,5.2,3,11.14,4.46,16.34,6,18.58,14.12,34.93,22.29,46.82,10.41,14.12,18.58,17.83,24.53,17.83a9.43,9.43,0,0,0,4.45-.74c6-2.23,14.12-8.92,13.38-31.21,0-14.12-3.72-32.7-9.66-50.53a5.59,5.59,0,0,0-1.49-3c1.49.74,2.23,2.23,3.72,3,14.86,12.63,29.72,22.29,43.1,28.24,8.17,3.71,14.86,5.2,20.06,5.2a18,18,0,0,0,14.12-5.95c13.38-15.6-11.15-48.3-39.38-72.08a10.35,10.35,0,0,0-3-2.22c1.49,0,3,.74,4.46.74a238.11,238.11,0,0,0,31.21,2.23,159,159,0,0,0,20.07-1.49c21.54-3.71,27.49-11.89,28.23-18.58s-2.23-16.34-21.55-26c-12.63-6.69-30.46-11.15-49.78-14.12a6.66,6.66,0,0,1-3.72-.75c1.49-.74,3-.74,4.46-1.48a190.48,190.48,0,0,0,44.58-26c17.1-14.12,17.1-24.52,14.87-30.47-8.18-18.57-48.3-11.14-81.74,3-.75.74-2.23.74-3,1.48a13.12,13.12,0,0,1,3-3.71c21.55-30.47,36.41-67.62,20.06-79.51-5.2-3.72-15.61-5.21-33.44,7.43-11.15,8.91-23.78,22.29-34.92,37.89h0c-.75.75-1.49,2.23-2.23,3V328c2.23-37.16-4.46-77.28-24.53-78-20.06-1.48-31.95,37.9-34.18,74.31V328L927,323.49c-17.09-32.7-44.58-63.16-61.67-53.5-17.84,9.66-6.69,49,10.4,81a5.68,5.68,0,0,1,1.49,3c-1.49-.75-2.23-1.49-3.72-2.23a193,193,0,0,0-47.56-20.07c-21.55-4.45-29.72.75-33.44,6.69s-1.48,17.09,13.38,33.44c9.66,10.4,24.52,21.55,40.87,31.21a5.66,5.66,0,0,0,3,1.49h-4.46c-37.15.74-76.53,11.14-75.79,31.21C769.47,443.13,773.93,452,795.48,458Zm74.31,44.58c-34.19,22.3-56.48,24.53-59.45,21.55-1.49-3.71,9.66-23.78,43.84-46.07,26.75-17.83,46.82-23,55-23,2.23,0,3.71,0,4.46.74C915.11,460.22,904,480.28,869.79,502.57Zm49,32.7c-17.09,36.41-34.93,50.53-39.38,49.79-3-2.23-3.72-25.27,13.37-62.42C909.17,487,927,472.85,931.46,472.85h0C935.18,475.82,935.92,498.86,918.83,535.27Zm84,58.7h0c-4.46,0-20.07-16.34-32.7-54.24-12.63-38.64-8.91-60.93-5.2-63.16h0c4.46,0,20.06,16.34,32.7,54.24C1009.49,569.45,1005.77,591.74,1002.8,594Zm76.54-50.53c-3,2.23-25.27-3-56.48-29s-39.38-47.55-37.9-51.27c.75,0,1.49-.74,2.23-.74,7.43,0,27.5,6.69,54.25,29.72C1072.65,518.92,1081.57,540.47,1079.34,543.44ZM1060,437.18c40.12,5.95,58.7,19.32,58.7,23.78-1.49,3.72-23,11.15-63.16,5.2s-58.71-19.32-58.71-23.78c.75-3,12.64-7.43,34.19-7.43Q1043.3,433.84,1060,437.18ZM1045.9,380c23.78-10.4,41.61-13.37,52-13.37,5.95,0,9.66.74,10.41,2.23.74,3.71-14.12,21.55-51.28,37.15s-60.19,14.12-62.42,11.15C993.88,413.4,1008.74,395.57,1045.9,380Zm-41.62-40.87h0c22.3-31.2,41.62-42.35,46.82-42.35h.74c3,3-.74,26-23.78,58.7s-43.84,43.85-47.55,42.36C977.53,394.83,980.51,371.79,1004.28,339.09Zm-52,122.61a25.85,25.85,0,0,1-26-26,26,26,0,0,1,52,0A25.85,25.85,0,0,1,952.27,461.7Zm-5.95-136c2.23-40.13,14.12-60.19,17.84-60.93,3.71,1.48,13.37,22.29,10.4,62.42-2.23,40.12-14.12,60.19-17.83,60.93C953,387.4,944.09,366.59,946.32,325.72ZM875,284.11c3.71-1.49,23,11.89,41.61,47.55,19.32,35.67,19.32,58.71,16.35,60.94-3.72,1.48-23-11.89-41.61-47.56C872,309.37,872,286.34,875,284.11Zm-67.62,63.16c3-3,26-1.49,60.93,18.58s47.56,39.38,46.07,43.1c-3,3-26,1.48-60.93-18.58C819.26,370.3,806.62,351,807.37,347.27Zm37.89,72.82h6c36.41,0,55,8.92,55.73,12.63-.74,3.72-20.81,14.87-61.68,16.35-40.12,1.49-60.93-8.92-62.42-12.63C785.07,432,805.14,420.83,845.26,420.09Z"/></svg>