<svg id="Calque_1" data-name="Calque 1" xmlns="http://www.w3.org/2000/svg" viewBox="0 0 445.48 415.58"><title>Plan de travail 1</title><path d="M224.35,409C116.78,409,29.27,321.51,29.27,214S116.78,18.87,224.35,18.87,419.42,106.38,419.42,214,331.91,409,224.35,409Zm0-382.15C121.19,26.87,37.27,110.79,37.27,214S121.19,401,224.35,401,411.42,317.1,411.42,214,327.5,26.87,224.35,26.87Z"/><path d="M109.25,180.9a8.27,8.27,0,0,1-8.15,6.34,8.37,8.37,0,1,1,0-16.73,8.25,8.25,0,0,1,8.19,6.43h-4.31a4.18,4.18,0,0,0-3.9-2.81,4.45,4.45,0,0,0-4.31,4.7,4.51,4.51,0,0,0,4.33,4.79,4.31,4.31,0,0,0,3.88-2.72Z"/><path d="M111.8,170.82h3.09l-2.31,5.44H110Z"/><path d="M121,182.14a2.63,2.63,0,0,0,2.79,2.14,2.43,2.43,0,0,0,2.2-1.14h3.7a7.17,7.17,0,0,1-2.46,3.1,6,6,0,0,1-3.44,1.08,6.45,6.45,0,0,1-.07-12.89,6.17,6.17,0,0,1,4.57,1.92,6.71,6.71,0,0,1,1.7,5.79Zm5.44-2.74a2.86,2.86,0,0,0-5.4,0Z"/><path d="M137.27,178.24c0-.26-.06-.91-1.13-.91-.76,0-1,.48-1,.81,0,.54.89.91,1.85,1.19,2.05.57,4.22,1.18,4.22,3.79s-2.24,4.23-4.92,4.23c-1.83,0-4.59-.83-4.92-4h3.59a1.29,1.29,0,0,0,1.38,1.11c.61,0,1.26-.35,1.26-.94,0-.82-.89-.93-3.2-1.83-1.57-.5-2.88-1.52-2.88-3.15,0-2.51,2.18-4.1,4.69-4.1,1.58,0,4.33.64,4.63,3.81Z"/><path d="M143.72,177.59h-1.78v-2.74h1.78v-4h3.62v4h1.74v2.74h-1.74v9.34h-3.62Z"/><path d="M169.89,185.47a7.76,7.76,0,0,1-.71,4,7.1,7.1,0,0,1-6.12,2.85c-4.21,0-5.79-2.53-6-4.25h4.18a2,2,0,0,0,1.15,1.05,3,3,0,0,0,1,.15,2.8,2.8,0,0,0,2.94-2.94v-.72a3.78,3.78,0,0,1-3.36,1.72,6.05,6.05,0,0,1-6.09-6.35,6.12,6.12,0,0,1,6.09-6.51,4,4,0,0,1,3.38,1.52v-1.13h3.61Zm-9.47-4.61a2.94,2.94,0,0,0,2.9,3.09,2.88,2.88,0,0,0,2.11-.83,3.18,3.18,0,0,0,.85-2.09,3.37,3.37,0,0,0-.76-2.26,2.69,2.69,0,0,0-2.18-.94,2.94,2.94,0,0,0-2.92,3Z"/><path d="M172.44,174.85h3.4v1.35a3,3,0,0,1,3.07-1.77v3.64h-.13c-1.85,0-2.72.67-2.72,2.37v6.49h-3.62Z"/><path d="M192.74,186.93h-3.62v-1.3a4,4,0,0,1-3.57,1.72c-3.83,0-6.07-3-6.07-6.47a6.11,6.11,0,0,1,6.07-6.45,4.08,4.08,0,0,1,3.57,1.7v-1.28h3.62ZM190.8,173h-3.48l-1.22-1.24L184.88,173h-3.53l3.62-3.62h2.35Zm-7.71,7.94a3,3,0,0,0,3,3,2.78,2.78,0,0,0,2.52-1.35,3.23,3.23,0,0,0,.5-1.55,3,3,0,0,0-.3-1.58,2.86,2.86,0,0,0-2.74-1.68,3,3,0,0,0-3,3.11Z"/><path d="M207.59,182.34a6.49,6.49,0,0,1-12.8-1.48,6.47,6.47,0,0,1,12.78-1.35h-3.66a2.7,2.7,0,0,0-2.61-1.7,2.59,2.59,0,0,0-2.09.85,3.32,3.32,0,0,0-.79,2.22A2.86,2.86,0,0,0,201.3,184a2.77,2.77,0,0,0,2.61-1.61Z"/><path d="M212.53,182.14a2.64,2.64,0,0,0,2.79,2.14,2.41,2.41,0,0,0,2.2-1.14h3.7a7,7,0,0,1-2.46,3.1,5.92,5.92,0,0,1-3.44,1.08,6.45,6.45,0,0,1-.06-12.89,6.17,6.17,0,0,1,4.57,1.92,6.77,6.77,0,0,1,1.7,5.79ZM218,179.4a2.86,2.86,0,0,0-5.4,0Z"/><path d="M243.06,186.93h-3.61v-1.3a4,4,0,0,1-3.57,1.72c-3.83,0-6.08-3-6.08-6.47a6.11,6.11,0,0,1,6.08-6.45,4.08,4.08,0,0,1,3.57,1.7v-1.28h3.61Zm-3.89-15.48-1,2.11-5.37-2.35,1.11-2.55Zm-5.75,9.49a3,3,0,0,0,3,3,2.8,2.8,0,0,0,2.53-1.35,3.34,3.34,0,0,0,.5-1.55,3.11,3.11,0,0,0-.31-1.58,2.85,2.85,0,0,0-2.74-1.68,3,3,0,0,0-3,3.11Z"/><path d="M264.64,182.34a6.49,6.49,0,0,1-12.8-1.48,6.47,6.47,0,0,1,12.78-1.35H261a2.7,2.7,0,0,0-2.61-1.7,2.59,2.59,0,0,0-2.09.85,3.32,3.32,0,0,0-.78,2.22,2.86,2.86,0,0,0,2.87,3.07,2.77,2.77,0,0,0,2.61-1.61Z"/><path d="M269.59,182.14a2.63,2.63,0,0,0,2.79,2.14,2.43,2.43,0,0,0,2.2-1.14h3.7a7.17,7.17,0,0,1-2.46,3.1,6,6,0,0,1-3.44,1.08,6.45,6.45,0,0,1-.07-12.89,6.17,6.17,0,0,1,4.57,1.92,6.71,6.71,0,0,1,1.7,5.79ZM275,179.4a2.86,2.86,0,0,0-5.4,0Z"/><path d="M287.42,174.85h3.4v1.33a4.82,4.82,0,0,1,3.83-1.75c4.29,0,5.9,3.77,5.9,6.58,0,3.48-2.43,6.34-5.87,6.34a4.61,4.61,0,0,1-3.64-1.51V191h-3.62Zm9.52,6a3,3,0,0,0-3-3.07,3,3,0,0,0-2.17.91,3.15,3.15,0,0,0-.85,2.2,3,3,0,1,0,6.05,0Z"/><path d="M302,180.86a6.51,6.51,0,1,1,6.51,6.44,6.3,6.3,0,0,1-6.51-6.44Zm3.61,0a2.9,2.9,0,1,0,2.9-3.07,2.95,2.95,0,0,0-2.9,3.07Z"/><path d="M317.11,170.82h3.61v16.11h-3.61Z"/><path d="M323.33,170.82H327v16.11h-3.62Z"/><path d="M332.52,182.14a2.64,2.64,0,0,0,2.79,2.14,2.43,2.43,0,0,0,2.2-1.14h3.7a7.17,7.17,0,0,1-2.46,3.1,5.92,5.92,0,0,1-3.44,1.08,6.45,6.45,0,0,1-.06-12.89,6.17,6.17,0,0,1,4.57,1.92,6.77,6.77,0,0,1,1.7,5.79ZM338,179.4a2.86,2.86,0,0,0-5.4,0Z"/><path d="M343.63,174.85H347v1.28a3.6,3.6,0,0,1,3.34-1.7c4.07,0,4.48,3.31,4.48,4.95v7.55h-3.61v-6.6c0-1.32-.29-2.5-1.9-2.5-1.78,0-2.07,1.29-2.07,2.53v6.57h-3.61Z"/><path d="M105.7,217.09h-3.62v-5.27a4.24,4.24,0,0,1-3.7,1.64,5.89,5.89,0,0,1-5.83-6.21c0-4.18,2.76-6.68,6.07-6.68a4.05,4.05,0,0,1,3.61,1.74V201h3.47Zm-9.54-10a3,3,0,0,0,6-.06,2.84,2.84,0,0,0-.85-2.2,3.13,3.13,0,0,0-2.2-.92,3,3,0,0,0-3,3.16Z"/><path d="M119.5,213.07h-3.37v-1.29a3.6,3.6,0,0,1-3.35,1.7c-4.1,0-4.51-3.31-4.51-4.94V201h3.61v6.6c0,1.33.29,2.5,1.92,2.5,1.81,0,2.09-1.28,2.09-2.52V201h3.61Z"/><path d="M125.08,208.28a2.63,2.63,0,0,0,2.79,2.13,2.45,2.45,0,0,0,2.2-1.13h3.7a7.14,7.14,0,0,1-2.46,3.09,5.86,5.86,0,0,1-3.44,1.09,6.45,6.45,0,0,1-.07-12.89,6.16,6.16,0,0,1,4.57,1.91,6.73,6.73,0,0,1,1.7,5.8Zm5.44-2.75a2.86,2.86,0,0,0-5.4,0Z"/><path d="M142.92,197h3.61v16.12h-3.61Z"/><path d="M161.84,213.07h-3.62v-1.31a4,4,0,0,1-3.57,1.72c-3.83,0-6.07-3-6.07-6.47a6.1,6.1,0,0,1,6.07-6.44,4.08,4.08,0,0,1,3.57,1.7V201h3.62Zm-9.65-6a3,3,0,0,0,3,3,2.78,2.78,0,0,0,2.52-1.35,3.19,3.19,0,0,0,.5-1.54,3,3,0,0,0-.3-1.59,2.87,2.87,0,0,0-2.75-1.68,3,3,0,0,0-3,3.12Z"/><path d="M175,203.72v9.35h-3.62v-9.35H170V201h1.35v-.52c0-3.51,2.59-3.81,5.14-3.81v2.72c-.67,0-1.52,0-1.52,1.15V201h3.11v-4h3.62v16.1h-3.62v-9.35Z"/><path d="M187.25,208.28a2.63,2.63,0,0,0,2.79,2.13,2.45,2.45,0,0,0,2.2-1.13h3.7a7.14,7.14,0,0,1-2.46,3.09,5.86,5.86,0,0,1-3.44,1.09,6.45,6.45,0,0,1-.07-12.89,6.2,6.2,0,0,1,4.58,1.91,6.75,6.75,0,0,1,1.69,5.8Zm5.44-2.75a2.86,2.86,0,0,0-5.39,0Z"/><path d="M209.55,213.07h-3.37v-1.29a3.62,3.62,0,0,1-3.36,1.7c-4.09,0-4.51-3.31-4.51-4.94V201h3.62v6.6c0,1.33.28,2.5,1.92,2.5,1.8,0,2.09-1.28,2.09-2.52V201h3.61Z"/><path d="M212.14,201h3.4v1.35a3,3,0,0,1,3.07-1.76v3.63h-.13c-1.85,0-2.72.68-2.72,2.38v6.49h-3.62Z"/><path d="M226.8,201h3.4v1.33a4.8,4.8,0,0,1,3.83-1.74c4.29,0,5.9,3.76,5.9,6.57,0,3.49-2.44,6.34-5.88,6.34a4.66,4.66,0,0,1-3.64-1.5v5.11H226.8Zm9.51,6a3,3,0,0,0-3-3.07,3,3,0,0,0-2.18.92,3.16,3.16,0,0,0-.85,2.2,3,3,0,1,0,6.05,0Z"/><path d="M244.94,208.28a2.62,2.62,0,0,0,2.78,2.13,2.42,2.42,0,0,0,2.2-1.13h3.71a7.09,7.09,0,0,1-2.47,3.09,5.84,5.84,0,0,1-3.44,1.09,6.45,6.45,0,0,1-.06-12.89,6.16,6.16,0,0,1,4.57,1.91,6.76,6.76,0,0,1,1.7,5.8Zm5.44-2.75a2.86,2.86,0,0,0-5.4,0Z"/><path d="M267.24,213.07h-3.38v-1.29a3.58,3.58,0,0,1-3.35,1.7c-4.1,0-4.51-3.31-4.51-4.94V201h3.62v6.6c0,1.33.28,2.5,1.91,2.5,1.81,0,2.09-1.28,2.09-2.52V201h3.62Z"/><path d="M270.57,203.72h-1.79V201h1.79v-4h3.61v4h1.75v2.74h-1.75v9.35h-3.61Z"/><path d="M289.36,204.38c0-.26-.06-.92-1.13-.92-.76,0-1,.48-1,.81,0,.54.89.91,1.85,1.2,2,.56,4.22,1.17,4.22,3.78s-2.24,4.23-4.92,4.23c-1.83,0-4.59-.83-4.92-4H287a1.28,1.28,0,0,0,1.37,1.11c.61,0,1.27-.35,1.27-.93,0-.83-.9-.94-3.2-1.83-1.57-.5-2.88-1.53-2.88-3.16,0-2.5,2.18-4.09,4.68-4.09,1.59,0,4.34.63,4.64,3.81Z"/><path d="M298.05,208.28a2.63,2.63,0,0,0,2.79,2.13,2.45,2.45,0,0,0,2.2-1.13h3.7a7.14,7.14,0,0,1-2.46,3.09,5.86,5.86,0,0,1-3.44,1.09,6.45,6.45,0,0,1-.07-12.89,6.2,6.2,0,0,1,4.58,1.91,6.75,6.75,0,0,1,1.69,5.8Zm5.44-2.75a2.86,2.86,0,0,0-5.4,0Z"/><path d="M93.09,227.11h3.4v1.35a3,3,0,0,1,3.07-1.76v3.63h-.13c-1.85,0-2.73.68-2.73,2.38v6.49H93.09Z"/><path d="M103.65,234.41a2.63,2.63,0,0,0,2.79,2.13,2.45,2.45,0,0,0,2.2-1.13h3.7a7.14,7.14,0,0,1-2.46,3.09,5.86,5.86,0,0,1-3.44,1.09,6.45,6.45,0,0,1-.07-12.89,6.21,6.21,0,0,1,4.58,1.92,6.73,6.73,0,0,1,1.69,5.79Zm5.44-2.75a2.86,2.86,0,0,0-5.4,0Z"/><path d="M114.76,227.11h3.39v1.33A4.87,4.87,0,0,1,122,226.7c4.29,0,5.9,3.77,5.9,6.57,0,3.49-2.44,6.34-5.88,6.34a4.63,4.63,0,0,1-3.64-1.5v5.12h-3.61Zm9.51,6a3,3,0,0,0-3-3.07,3,3,0,0,0-2.18.92,3.18,3.18,0,0,0-.85,2.2,3,3,0,1,0,6,0Z"/><path d="M129.91,227.11h3.4v1.35a3,3,0,0,1,3.07-1.76v3.63h-.13c-1.85,0-2.72.68-2.72,2.38v6.49h-3.62Z"/><path d="M137,233.12a6.51,6.51,0,1,1,6.51,6.45,6.3,6.3,0,0,1-6.51-6.45Zm3.61,0a2.9,2.9,0,1,0,2.9-3.07,2.94,2.94,0,0,0-2.9,3.07Z"/><path d="M164.6,239.2h-3.44v-1.31a4,4,0,0,1-3.65,1.7c-3.66,0-6.06-2.83-6.06-6.47a6,6,0,0,1,6-6.42,4.61,4.61,0,0,1,3.55,1.44v-5.06h3.61Zm-9.53-6.08a3,3,0,0,0,3,3.09,3.18,3.18,0,0,0,2.25-.91,3,3,0,0,0,.85-2.24,2.93,2.93,0,0,0-.9-2.14,3,3,0,0,0-2.15-.85,3,3,0,0,0-3.07,3Z"/><path d="M178.41,239.2H175v-1.29a3.58,3.58,0,0,1-3.35,1.7c-4.09,0-4.51-3.31-4.51-4.94v-7.56h3.62v6.6c0,1.33.28,2.5,1.92,2.5,1.8,0,2.09-1.28,2.09-2.52v-6.58h3.61Z"/><path d="M181,223.08h3.62v2.75H181Zm0,4h3.62V239.2H181Z"/><path d="M187.23,227.11h3.4v1.35a3,3,0,0,1,3.07-1.76v3.63h-.13c-1.85,0-2.72.68-2.72,2.38v6.49h-3.62Z"/><path d="M197.79,234.41a2.63,2.63,0,0,0,2.79,2.13,2.45,2.45,0,0,0,2.2-1.13h3.7A7.14,7.14,0,0,1,204,238.5a5.86,5.86,0,0,1-3.44,1.09,6.45,6.45,0,0,1-.07-12.89,6.21,6.21,0,0,1,4.58,1.92,6.73,6.73,0,0,1,1.69,5.79Zm5.44-2.75a2.86,2.86,0,0,0-5.39,0Z"/><path d="M219.81,233.88h-3.73v-10.8h3.73Zm0,5.32h-3.73v-3.7h3.73Z"/><path d="M239.49,232.9l-.08-9.82h3.94V239.2h-3.57l-6.17-9.71.09,9.71h-3.94V223.08h3.55Z"/><path d="M245.57,233.12a6.51,6.51,0,1,1,6.51,6.45,6.3,6.3,0,0,1-6.51-6.45Zm3.61,0a2.9,2.9,0,1,0,2.9-3.07,2.94,2.94,0,0,0-2.9,3.07Z"/><path d="M271.83,239.2h-3.37v-1.29a3.62,3.62,0,0,1-3.36,1.7c-4.09,0-4.51-3.31-4.51-4.94v-7.56h3.62v6.6c0,1.33.28,2.5,1.92,2.5,1.8,0,2.09-1.28,2.09-2.52v-6.58h3.61Z"/><path d="M279.58,230.51c0-.26-.06-.92-1.13-.92-.76,0-1,.48-1,.81,0,.54.89.92,1.85,1.2,2.05.56,4.22,1.17,4.22,3.79s-2.24,4.22-4.92,4.22c-1.83,0-4.59-.83-4.92-4h3.59a1.29,1.29,0,0,0,1.38,1.11c.61,0,1.26-.34,1.26-.93,0-.83-.89-.94-3.2-1.83-1.57-.5-2.88-1.52-2.88-3.16,0-2.5,2.18-4.09,4.69-4.09,1.58,0,4.33.63,4.63,3.81Z"/><path d="M304.74,239.2h-3.62v-1.31a4,4,0,0,1-3.57,1.72c-3.83,0-6.08-3-6.08-6.47a6.1,6.1,0,0,1,6.08-6.44,4.08,4.08,0,0,1,3.57,1.7v-1.29h3.62Zm-9.65-6a3,3,0,0,0,3,3,2.8,2.8,0,0,0,2.53-1.35,3.38,3.38,0,0,0,.5-1.55,3.14,3.14,0,0,0-.3-1.59,2.88,2.88,0,0,0-2.75-1.68,3,3,0,0,0-3,3.12Z"/><path d="M313.79,239.2h-3.46L306,227.11h3.75l2.33,7.54,2.33-7.54h3.74Z"/><path d="M318.5,233.12a6.51,6.51,0,1,1,6.51,6.45,6.3,6.3,0,0,1-6.51-6.45Zm3.61,0a2.9,2.9,0,1,0,2.9-3.07,2.94,2.94,0,0,0-2.9,3.07Z"/><path d="M333.57,227.11h3.37v1.29a3.6,3.6,0,0,1,3.34-1.7c4.07,0,4.48,3.31,4.48,4.94v7.56h-3.61v-6.6c0-1.33-.29-2.5-1.9-2.5-1.78,0-2.07,1.28-2.07,2.52v6.58h-3.61Z"/><path d="M352.47,230.51c0-.26-.06-.92-1.13-.92-.76,0-1,.48-1,.81,0,.54.9.92,1.86,1.2,2,.56,4.22,1.17,4.22,3.79s-2.24,4.22-4.92,4.22c-1.83,0-4.6-.83-4.92-4h3.59a1.28,1.28,0,0,0,1.37,1.11c.61,0,1.27-.34,1.27-.93,0-.83-.9-.94-3.21-1.83-1.56-.5-2.87-1.52-2.87-3.16,0-2.5,2.18-4.09,4.68-4.09,1.59,0,4.33.63,4.64,3.81Z"/><path d="M93.11,253.24h3.4v1.33a4.83,4.83,0,0,1,3.83-1.74c4.29,0,5.9,3.77,5.9,6.58,0,3.48-2.44,6.33-5.88,6.33a4.6,4.6,0,0,1-3.63-1.5v5.12H93.11Zm9.52,6a3,3,0,0,0-3-3.07,3,3,0,0,0-2.18.91,3.18,3.18,0,0,0-.85,2.2,3,3,0,0,0,3,3.05,3,3,0,0,0,3-3.07Z"/><path d="M107.72,259.25a6.52,6.52,0,1,1,6.51,6.45,6.32,6.32,0,0,1-6.51-6.45Zm3.62.05a2.9,2.9,0,1,0,2.89-3.07,2.93,2.93,0,0,0-2.89,3.07Z"/><path d="M122.79,249.22h3.62v16.11h-3.62Z"/><path d="M129,249.22h3.62v16.11H129Z"/><path d="M135.25,249.22h3.61V252h-3.61Zm0,4h3.61v12.09h-3.61Z"/><path d="M141.48,253.24h3.37v1.29a3.6,3.6,0,0,1,3.33-1.7c4.08,0,4.49,3.31,4.49,4.94v7.56h-3.61v-6.6c0-1.33-.29-2.5-1.9-2.5-1.78,0-2.07,1.28-2.07,2.52v6.58h-3.61Z"/><path d="M155.24,249.22h3.61V252h-3.61Zm0,4h3.61v12.09h-3.61Z"/><path d="M166.61,256.64c0-.26-.07-.91-1.14-.91-.76,0-1,.48-1,.8,0,.55.89.92,1.85,1.2,2,.57,4.23,1.18,4.23,3.79s-2.25,4.22-4.93,4.22c-1.82,0-4.59-.82-4.92-4h3.6a1.28,1.28,0,0,0,1.37,1.11c.61,0,1.26-.35,1.26-.94,0-.83-.89-.93-3.2-1.83-1.57-.5-2.87-1.52-2.87-3.16,0-2.5,2.17-4.09,4.68-4.09,1.59,0,4.33.63,4.64,3.81Z"/><path d="M175.3,260.54a2.62,2.62,0,0,0,2.78,2.13,2.42,2.42,0,0,0,2.2-1.13H184a6.94,6.94,0,0,1-2.46,3.09,5.86,5.86,0,0,1-3.44,1.09,6.45,6.45,0,0,1-.06-12.89,6.17,6.17,0,0,1,4.57,1.92,6.77,6.77,0,0,1,1.7,5.79Zm5.24-13.67,1.16,2.56-5.36,2.38-1-2.14Zm.2,10.93a2.86,2.86,0,0,0-5.4,0Z"/><path d="M205.35,260.74a6.49,6.49,0,0,1-12.81-1.49,6.47,6.47,0,0,1,12.79-1.34h-3.66a2.7,2.7,0,0,0-2.61-1.7,2.59,2.59,0,0,0-2.1.85,3.32,3.32,0,0,0-.78,2.22,2.86,2.86,0,0,0,2.88,3.07,2.77,2.77,0,0,0,2.61-1.61Z"/><path d="M210.29,260.54a2.63,2.63,0,0,0,2.79,2.13,2.45,2.45,0,0,0,2.2-1.13H219a7.08,7.08,0,0,1-2.46,3.09,5.86,5.86,0,0,1-3.44,1.09,6.45,6.45,0,0,1-.07-12.89,6.21,6.21,0,0,1,4.58,1.92,6.73,6.73,0,0,1,1.69,5.79Zm5.44-2.74a2.85,2.85,0,0,0-5.39,0Z"/><path d="M222.12,256h-1.79v-2.75h1.79v-4h3.61v4h1.74V256h-1.74v9.34h-3.61Z"/><path d="M229.76,256H228v-2.75h1.79v-4h3.61v4h1.75V256h-1.75v9.34h-3.61Z"/><path d="M239.21,260.54a2.63,2.63,0,0,0,2.79,2.13,2.45,2.45,0,0,0,2.2-1.13h3.7a7.08,7.08,0,0,1-2.46,3.09,5.86,5.86,0,0,1-3.44,1.09,6.45,6.45,0,0,1-.07-12.89,6.21,6.21,0,0,1,4.58,1.92,6.73,6.73,0,0,1,1.69,5.79Zm5.44-2.74a2.58,2.58,0,0,0-2.69-1.92,2.61,2.61,0,0,0-2.71,1.92Z"/><path d="M260.79,256v9.34h-3.61V256h-1.35v-2.75h1.35v-.52c0-3.5,2.59-3.81,5.14-3.81v2.72c-.68,0-1.53,0-1.53,1.16v.45h3.12v-4h3.61v16.09h-3.61V256Z"/><path d="M273.1,260.54a2.62,2.62,0,0,0,2.78,2.13,2.42,2.42,0,0,0,2.2-1.13h3.7a6.94,6.94,0,0,1-2.46,3.09,5.86,5.86,0,0,1-3.44,1.09,6.45,6.45,0,0,1-.06-12.89,6.17,6.17,0,0,1,4.57,1.92,6.77,6.77,0,0,1,1.7,5.79Zm5.44-2.74a2.86,2.86,0,0,0-5.4,0Z"/><path d="M295.39,265.33H292V264a3.6,3.6,0,0,1-3.35,1.7c-4.1,0-4.51-3.31-4.51-4.94v-7.56h3.61v6.6c0,1.33.29,2.51,1.92,2.51,1.81,0,2.09-1.29,2.09-2.53v-6.58h3.61Z"/><path d="M298,253.24h3.39v1.36a3,3,0,0,1,3.07-1.77v3.64h-.13c-1.85,0-2.72.67-2.72,2.37v6.49H298Z"/><path d="M316.82,260H313.1v-10.8h3.72Zm0,5.31H313.1v-3.7h3.72Z"/></svg>